<?xml version="1.0" encoding="utf-8" standalone="no"?>
<!DOCTYPE svg PUBLIC "-//W3C//DTD SVG 1.1//EN"
  "http://www.w3.org/Graphics/SVG/1.1/DTD/svg11.dtd">
<!-- Created with matplotlib (http://matplotlib.org/) -->
<svg height="144pt" version="1.1" viewBox="0 0 144 144" width="144pt" xmlns="http://www.w3.org/2000/svg" xmlns:xlink="http://www.w3.org/1999/xlink">
 <defs>
  <style type="text/css">
*{stroke-linecap:butt;stroke-linejoin:round;}
  </style>
 </defs>
 <g id="figure_1">
  <g id="patch_1">
   <path d="
M0 144
L144 144
L144 0
L0 0
z
" style="fill:#ffffff;stroke:#ffffff;stroke-linejoin:miter;stroke-width:4;"/>
   <path d="
M0 144
L144 144
L144 0
L0 0
z
" style="fill:#ffffff;"/>
   <g id="axes_1">
    <g id="patch_2">
     <path d="
M37.12 114.969
L126.163 114.969
L126.163 32.2588
L37.12 32.2588
z
" style="fill:#ffffff;stroke:#ffffff;stroke-linejoin:miter;stroke-width:4;"/>
     <path d="
M37.12 114.969
L126.163 114.969
L126.163 32.2588
L37.12 32.2588
z
" style="fill:#ffffff;"/>
     <path clip-path="url(#pcefeed6d72)" d="
M37.12 32.2588
L38.4691 40.3723
L39.8183 47.6899
L41.1674 54.2896
L42.5166 60.242
L43.8657 65.6105
L45.2148 70.4523
L46.564 74.8192
L47.9131 78.7577
L49.2622 82.3098
L50.6114 85.5135
L51.9605 88.403
L53.3097 91.009
L54.6588 93.3593
L56.0079 95.4791
L57.3571 97.391
L58.7062 99.1153
L60.0554 100.67
L61.4045 102.073
L62.7536 103.338
L64.1028 104.479
L65.4519 105.508
L66.801 106.436
L68.1502 107.273
L69.4993 108.028
L70.8485 108.709
L72.1976 109.323
L73.5467 109.877
L74.8959 110.376
L76.245 110.827
L77.5941 111.233
L78.9433 111.6
L80.2924 111.93
L81.6416 112.228
L82.9907 112.497
L84.3398 112.739
L85.689 112.958
L87.0381 113.155
L88.3873 113.333
L89.7364 113.494
L91.0855 113.638
L92.4347 113.769
L93.7838 113.887
L95.1329 113.993
L96.4821 114.088
L97.8312 114.175
L99.1804 114.253
L100.529 114.323
L101.879 114.386
L103.228 114.443
L104.577 114.495
L105.926 114.541
L107.275 114.583
L108.624 114.621
L109.973 114.655
L111.323 114.686
L112.672 114.714
L114.021 114.739
L115.37 114.761
L116.719 114.782
L118.068 114.8
L119.417 114.817
L120.767 114.832
L122.116 114.845
L123.465 114.857
L124.814 114.868
L126.163 114.878" style="fill:none;stroke:#ffffff;stroke-linecap:square;stroke-width:4;"/>
     <path clip-path="url(#pcefeed6d72)" d="
M37.12 32.2588
L38.4691 40.3723
L39.8183 47.6899
L41.1674 54.2896
L42.5166 60.242
L43.8657 65.6105
L45.2148 70.4523
L46.564 74.8192
L47.9131 78.7577
L49.2622 82.3098
L50.6114 85.5135
L51.9605 88.403
L53.3097 91.009
L54.6588 93.3593
L56.0079 95.4791
L57.3571 97.391
L58.7062 99.1153
L60.0554 100.67
L61.4045 102.073
L62.7536 103.338
L64.1028 104.479
L65.4519 105.508
L66.801 106.436
L68.1502 107.273
L69.4993 108.028
L70.8485 108.709
L72.1976 109.323
L73.5467 109.877
L74.8959 110.376
L76.245 110.827
L77.5941 111.233
L78.9433 111.6
L80.2924 111.93
L81.6416 112.228
L82.9907 112.497
L84.3398 112.739
L85.689 112.958
L87.0381 113.155
L88.3873 113.333
L89.7364 113.494
L91.0855 113.638
L92.4347 113.769
L93.7838 113.887
L95.1329 113.993
L96.4821 114.088
L97.8312 114.175
L99.1804 114.253
L100.529 114.323
L101.879 114.386
L103.228 114.443
L104.577 114.495
L105.926 114.541
L107.275 114.583
L108.624 114.621
L109.973 114.655
L111.323 114.686
L112.672 114.714
L114.021 114.739
L115.37 114.761
L116.719 114.782
L118.068 114.8
L119.417 114.817
L120.767 114.832
L122.116 114.845
L123.465 114.857
L124.814 114.868
L126.163 114.878" style="fill:none;stroke:#ff0000;stroke-linecap:square;stroke-width:2.0;"/>
     <path clip-path="url(#pcefeed6d72)" d="
M37.12 114.969
L38.4691 107.336
L39.8183 101.323
L41.1674 96.6714
L42.5166 93.1602
L43.8657 90.5992
L45.2148 88.8259
L46.564 87.7019
L47.9131 87.1092
L49.2622 86.9477
L50.6114 87.1324
L51.9605 87.5917
L53.3097 88.2652
L54.6588 89.1023
L56.0079 90.0608
L57.3571 91.1055
L58.7062 92.2074
L60.0554 93.3426
L61.4045 94.4917
L62.7536 95.6392
L64.1028 96.7723
L65.4519 97.8815
L66.801 98.9589
L68.1502 99.9991
L69.4993 100.998
L70.8485 101.952
L72.1976 102.86
L73.5467 103.721
L74.8959 104.535
L76.245 105.303
L77.5941 106.024
L78.9433 106.7
L80.2924 107.333
L81.6416 107.924
L82.9907 108.476
L84.3398 108.989
L85.689 109.466
L87.0381 109.908
L88.3873 110.319
L89.7364 110.698
L91.0855 111.05
L92.4347 111.374
L93.7838 111.674
L95.1329 111.95
L96.4821 112.205
L97.8312 112.439
L99.1804 112.654
L100.529 112.853
L101.879 113.035
L103.228 113.202
L104.577 113.355
L105.926 113.495
L107.275 113.624
L108.624 113.742
L109.973 113.85
L111.323 113.949
L112.672 114.039
L114.021 114.122
L115.37 114.197
L116.719 114.266
L118.068 114.329
L119.417 114.387
L120.767 114.439
L122.116 114.487
L123.465 114.53
L124.814 114.57
L126.163 114.606" style="fill:none;stroke:#ffffff;stroke-linecap:square;stroke-width:4;"/>
     <path clip-path="url(#pcefeed6d72)" d="
M37.12 114.969
L38.4691 107.336
L39.8183 101.323
L41.1674 96.6714
L42.5166 93.1602
L43.8657 90.5992
L45.2148 88.8259
L46.564 87.7019
L47.9131 87.1092
L49.2622 86.9477
L50.6114 87.1324
L51.9605 87.5917
L53.3097 88.2652
L54.6588 89.1023
L56.0079 90.0608
L57.3571 91.1055
L58.7062 92.2074
L60.0554 93.3426
L61.4045 94.4917
L62.7536 95.6392
L64.1028 96.7723
L65.4519 97.8815
L66.801 98.9589
L68.1502 99.9991
L69.4993 100.998
L70.8485 101.952
L72.1976 102.86
L73.5467 103.721
L74.8959 104.535
L76.245 105.303
L77.5941 106.024
L78.9433 106.7
L80.2924 107.333
L81.6416 107.924
L82.9907 108.476
L84.3398 108.989
L85.689 109.466
L87.0381 109.908
L88.3873 110.319
L89.7364 110.698
L91.0855 111.05
L92.4347 111.374
L93.7838 111.674
L95.1329 111.95
L96.4821 112.205
L97.8312 112.439
L99.1804 112.654
L100.529 112.853
L101.879 113.035
L103.228 113.202
L104.577 113.355
L105.926 113.495
L107.275 113.624
L108.624 113.742
L109.973 113.85
L111.323 113.949
L112.672 114.039
L114.021 114.122
L115.37 114.197
L116.719 114.266
L118.068 114.329
L119.417 114.387
L120.767 114.439
L122.116 114.487
L123.465 114.53
L124.814 114.57
L126.163 114.606" style="fill:none;stroke:#0000ff;stroke-linecap:square;stroke-width:2.0;"/>
     <path clip-path="url(#pcefeed6d72)" d="
M37.12 114.969
L38.4691 114.488
L39.8183 113.184
L41.1674 111.235
L42.5166 108.794
L43.8657 105.987
L45.2148 102.918
L46.564 99.6752
L47.9131 96.3293
L49.2622 92.9387
L50.6114 89.5503
L51.9605 86.2016
L53.3097 82.9221
L54.6588 79.7346
L56.0079 76.6563
L57.3571 73.6998
L58.7062 70.8736
L60.0554 68.1832
L61.4045 65.6315
L62.7536 63.219
L64.1028 60.9449
L65.4519 58.8068
L66.801 56.8013
L68.1502 54.9241
L69.4993 53.1706
L70.8485 51.5354
L72.1976 50.0131
L73.5467 48.5981
L74.8959 47.2846
L76.245 46.0669
L77.5941 44.9394
L78.9433 43.8966
L80.2924 42.9332
L81.6416 42.0439
L82.9907 41.2238
L84.3398 40.4682
L85.689 39.7726
L87.0381 39.1327
L88.3873 38.5445
L89.7364 38.0041
L91.0855 37.5081
L92.4347 37.053
L93.7838 36.6357
L95.1329 36.2533
L96.4821 35.9031
L97.8312 35.5824
L99.1804 35.289
L100.529 35.0207
L101.879 34.7754
L103.228 34.5512
L104.577 34.3464
L105.926 34.1594
L107.275 33.9888
L108.624 33.833
L109.973 33.691
L111.323 33.5615
L112.672 33.4434
L114.021 33.3358
L115.37 33.2377
L116.719 33.1485
L118.068 33.0672
L119.417 32.9932
L120.767 32.9258
L122.116 32.8645
L123.465 32.8088
L124.814 32.7581
L126.163 32.712" style="fill:none;stroke:#ffffff;stroke-linecap:square;stroke-width:4;"/>
     <path clip-path="url(#pcefeed6d72)" d="
M37.12 114.969
L38.4691 114.488
L39.8183 113.184
L41.1674 111.235
L42.5166 108.794
L43.8657 105.987
L45.2148 102.918
L46.564 99.6752
L47.9131 96.3293
L49.2622 92.9387
L50.6114 89.5503
L51.9605 86.2016
L53.3097 82.9221
L54.6588 79.7346
L56.0079 76.6563
L57.3571 73.6998
L58.7062 70.8736
L60.0554 68.1832
L61.4045 65.6315
L62.7536 63.219
L64.1028 60.9449
L65.4519 58.8068
L66.801 56.8013
L68.1502 54.9241
L69.4993 53.1706
L70.8485 51.5354
L72.1976 50.0131
L73.5467 48.5981
L74.8959 47.2846
L76.245 46.0669
L77.5941 44.9394
L78.9433 43.8966
L80.2924 42.9332
L81.6416 42.0439
L82.9907 41.2238
L84.3398 40.4682
L85.689 39.7726
L87.0381 39.1327
L88.3873 38.5445
L89.7364 38.0041
L91.0855 37.5081
L92.4347 37.053
L93.7838 36.6357
L95.1329 36.2533
L96.4821 35.9031
L97.8312 35.5824
L99.1804 35.289
L100.529 35.0207
L101.879 34.7754
L103.228 34.5512
L104.577 34.3464
L105.926 34.1594
L107.275 33.9888
L108.624 33.833
L109.973 33.691
L111.323 33.5615
L112.672 33.4434
L114.021 33.3358
L115.37 33.2377
L116.719 33.1485
L118.068 33.0672
L119.417 32.9932
L120.767 32.9258
L122.116 32.8645
L123.465 32.8088
L124.814 32.7581
L126.163 32.712" style="fill:none;stroke:#008000;stroke-linecap:square;stroke-width:2.0;"/>
     <g id="patch_3">
      <path d="
M37.12 32.2588
L126.163 32.2588" style="fill:none;stroke:#ffffff;stroke-linecap:square;stroke-linejoin:miter;stroke-width:4;"/>
      <path d="
M37.12 32.2588
L126.163 32.2588" style="fill:none;stroke:#000000;stroke-linecap:square;stroke-linejoin:miter;stroke-width:1.5;"/>
      <g id="patch_4">
       <path d="
M126.163 114.969
L126.163 32.2588" style="fill:none;stroke:#ffffff;stroke-linecap:square;stroke-linejoin:miter;stroke-width:4;"/>
       <path d="
M126.163 114.969
L126.163 32.2588" style="fill:none;stroke:#000000;stroke-linecap:square;stroke-linejoin:miter;stroke-width:1.5;"/>
       <g id="patch_5">
        <path d="
M37.12 114.969
L126.163 114.969" style="fill:none;stroke:#ffffff;stroke-linecap:square;stroke-linejoin:miter;stroke-width:4;"/>
        <path d="
M37.12 114.969
L126.163 114.969" style="fill:none;stroke:#000000;stroke-linecap:square;stroke-linejoin:miter;stroke-width:1.5;"/>
        <g id="patch_6">
         <path d="
M37.12 114.969
L37.12 32.2588" style="fill:none;stroke:#ffffff;stroke-linecap:square;stroke-linejoin:miter;stroke-width:4;"/>
         <path d="
M37.12 114.969
L37.12 32.2588" style="fill:none;stroke:#000000;stroke-linecap:square;stroke-linejoin:miter;stroke-width:1.5;"/>
         <g id="matplotlib.axis_1">
          <g id="xtick_1">
           <path d="
M37.12 114.969
L37.12 106.969" style="stroke:#ffffff;stroke-width:4;"/>
           <path d="
M37.12 114.969
L37.12 106.969" style="stroke:#000000;"/>
           <path d="
M37.12 32.2588
L37.12 40.2588" style="stroke:#ffffff;stroke-width:4;"/>
           <path d="
M37.12 32.2588
L37.12 40.2588" style="stroke:#000000;"/>
           <g id="text_1">
            <path d="
M39.8139 123.781
L39.8139 122.578
L39.7308 122.359
L38.5277 121.156
L38.3089 121.073
L38.077 121.156
L37.7752 121.456
L37.7073 121.675
L37.6264 121.909
L37.4755 121.909
L37.3245 121.758
L37.1058 121.675
L36.5042 121.675
L36.2723 121.758
L35.9705 122.058
L35.9027 122.276
L35.9027 122.578
L35.8217 122.81
L35.6708 122.961
L35.603 123.18
L35.5198 123.412
L35.3689 123.562
L35.3011 123.781
L35.3011 125.586
L35.3689 125.818
L35.9705 126.419
L36.2045 126.487
L37.1058 126.487
L37.3245 126.419
L37.4755 126.268
L37.7073 126.188
L37.9261 126.12
L39.1292 124.917
L39.2123 124.683
L39.2802 124.464
L39.7308 124.013
z

M40.783 123.862
L40.7152 124.081
L40.7152 124.383
L40.6342 124.615
L40.1814 125.065
L40.1136 125.284
L40.0327 125.518
L39.1292 126.419
L38.9105 126.487
L38.6786 126.57
L37.9261 127.323
L37.7073 127.391
L37.4755 127.474
L37.3245 127.623
L37.1058 127.692
L36.8739 127.773
L36.723 127.924
L36.5042 127.992
L36.2723 127.924
L36.1214 127.773
L35.9027 127.692
L35.6708 127.623
L35.5198 127.474
L35.3011 127.391
L35.0692 127.323
L34.4677 126.721
L34.3998 126.487
L34.3167 126.268
L34.1658 126.12
L34.098 125.886
L34.098 123.781
L34.1658 123.562
L34.3167 123.412
L34.3998 123.18
L34.3998 122.878
L34.4677 122.659
L34.6186 122.51
L34.6995 122.276
L34.7673 122.058
L34.9183 121.909
L35.0014 121.675
L35.0014 121.375
L35.0692 121.156
L35.9705 120.253
L36.2045 120.172
L36.4233 120.104
L36.572 119.953
L36.8061 119.87
L37.0248 119.802
L37.1736 119.651
L37.4077 119.57
L38.0092 119.57
L38.228 119.651
L38.3767 119.802
L38.6108 119.87
L38.8295 119.953
L39.5798 120.706
L39.8139 120.773
L40.0327 120.854
L40.1136 121.073
L40.1814 121.307
L40.9339 122.058
L41.017 122.276
L41.017 123.479
L40.9339 123.713
z
" style="stroke:#ffffff;stroke-width:4;"/>
            <path d="
M39.8139 123.781
L39.8139 122.578
L39.7308 122.359
L38.5277 121.156
L38.3089 121.073
L38.077 121.156
L37.7752 121.456
L37.7073 121.675
L37.6264 121.909
L37.4755 121.909
L37.3245 121.758
L37.1058 121.675
L36.5042 121.675
L36.2723 121.758
L35.9705 122.058
L35.9027 122.276
L35.9027 122.578
L35.8217 122.81
L35.6708 122.961
L35.603 123.18
L35.5198 123.412
L35.3689 123.562
L35.3011 123.781
L35.3011 125.586
L35.3689 125.818
L35.9705 126.419
L36.2045 126.487
L37.1058 126.487
L37.3245 126.419
L37.4755 126.268
L37.7073 126.188
L37.9261 126.12
L39.1292 124.917
L39.2123 124.683
L39.2802 124.464
L39.7308 124.013
z

M40.783 123.862
L40.7152 124.081
L40.7152 124.383
L40.6342 124.615
L40.1814 125.065
L40.1136 125.284
L40.0327 125.518
L39.1292 126.419
L38.9105 126.487
L38.6786 126.57
L37.9261 127.323
L37.7073 127.391
L37.4755 127.474
L37.3245 127.623
L37.1058 127.692
L36.8739 127.773
L36.723 127.924
L36.5042 127.992
L36.2723 127.924
L36.1214 127.773
L35.9027 127.692
L35.6708 127.623
L35.5198 127.474
L35.3011 127.391
L35.0692 127.323
L34.4677 126.721
L34.3998 126.487
L34.3167 126.268
L34.1658 126.12
L34.098 125.886
L34.098 123.781
L34.1658 123.562
L34.3167 123.412
L34.3998 123.18
L34.3998 122.878
L34.4677 122.659
L34.6186 122.51
L34.6995 122.276
L34.7673 122.058
L34.9183 121.909
L35.0014 121.675
L35.0014 121.375
L35.0692 121.156
L35.9705 120.253
L36.2045 120.172
L36.4233 120.104
L36.572 119.953
L36.8061 119.87
L37.0248 119.802
L37.1736 119.651
L37.4077 119.57
L38.0092 119.57
L38.228 119.651
L38.3767 119.802
L38.6108 119.87
L38.8295 119.953
L39.5798 120.706
L39.8139 120.773
L40.0327 120.854
L40.1136 121.073
L40.1814 121.307
L40.9339 122.058
L41.017 122.276
L41.017 123.479
L40.9339 123.713
z
"/>
           </g>
           <g id="xtick_2">
            <path d="
M81.6416 114.969
L81.6416 106.969" style="stroke:#ffffff;stroke-width:4;"/>
            <path d="
M81.6416 114.969
L81.6416 106.969" style="stroke:#000000;"/>
            <path d="
M81.6416 32.2588
L81.6416 40.2588" style="stroke:#ffffff;stroke-width:4;"/>
            <path d="
M81.6416 32.2588
L81.6416 40.2588" style="stroke:#000000;"/>
            <g id="text_2">
             <path d="
M83.4998 128.075
L83.3511 128.224
L83.1323 128.294
L81.9292 128.294
L81.6952 128.224
L81.6273 127.992
L81.6273 123.479
L81.5464 123.261
L81.3955 123.112
L81.3277 122.878
L81.3277 122.578
L81.2445 122.359
L81.0936 122.208
L81.0258 121.977
L81.0258 121.675
L80.9448 121.456
L80.7939 121.307
L80.7261 121.073
L80.643 120.854
L80.492 120.706
L80.4242 120.472
L80.4242 119.87
L80.492 119.651
L80.7939 119.352
L81.0258 119.268
L81.6273 119.268
L81.8461 119.352
L81.997 119.502
L82.2289 119.57
L82.4477 119.651
L82.5308 119.87
L82.5986 120.104
L83.0492 120.555
L83.1323 120.773
L83.2002 121.005
L83.3511 121.156
L83.432 121.375
L83.432 122.878
L83.4998 123.112
L83.6508 123.261
L83.7339 123.479
L83.7339 127.692
L83.6508 127.924
z
" style="stroke:#ffffff;stroke-width:4;"/>
             <path d="
M83.4998 128.075
L83.3511 128.224
L83.1323 128.294
L81.9292 128.294
L81.6952 128.224
L81.6273 127.992
L81.6273 123.479
L81.5464 123.261
L81.3955 123.112
L81.3277 122.878
L81.3277 122.578
L81.2445 122.359
L81.0936 122.208
L81.0258 121.977
L81.0258 121.675
L80.9448 121.456
L80.7939 121.307
L80.7261 121.073
L80.643 120.854
L80.492 120.706
L80.4242 120.472
L80.4242 119.87
L80.492 119.651
L80.7939 119.352
L81.0258 119.268
L81.6273 119.268
L81.8461 119.352
L81.997 119.502
L82.2289 119.57
L82.4477 119.651
L82.5308 119.87
L82.5986 120.104
L83.0492 120.555
L83.1323 120.773
L83.2002 121.005
L83.3511 121.156
L83.432 121.375
L83.432 122.878
L83.4998 123.112
L83.6508 123.261
L83.7339 123.479
L83.7339 127.692
L83.6508 127.924
z
"/>
            </g>
            <g id="xtick_3">
             <path d="
M126.163 114.969
L126.163 106.969" style="stroke:#ffffff;stroke-width:4;"/>
             <path d="
M126.163 114.969
L126.163 106.969" style="stroke:#000000;"/>
             <path d="
M126.163 32.2588
L126.163 40.2588" style="stroke:#ffffff;stroke-width:4;"/>
             <path d="
M126.163 32.2588
L126.163 40.2588" style="stroke:#000000;"/>
             <g id="text_3">
              <path d="
M129.076 128.375
L128.925 128.526
L128.706 128.594
L128.105 128.594
L127.873 128.526
L127.722 128.375
L127.503 128.294
L126.3 128.294
L126.068 128.375
L125.917 128.526
L125.698 128.594
L124.797 128.594
L124.563 128.526
L124.263 128.224
L124.195 127.992
L124.195 127.391
L124.263 127.172
L125.016 126.419
L125.097 126.188
L125.097 125.886
L125.165 125.667
L125.917 124.917
L126 124.683
L126 124.383
L126.068 124.164
L126.219 124.013
L126.3 123.781
L126.368 123.562
L126.602 123.479
L126.82 123.412
L126.901 123.18
L126.901 122.878
L126.969 122.659
L127.12 122.51
L127.203 122.276
L127.203 121.977
L127.12 121.758
L126.969 121.607
L126.901 121.375
L126.82 121.156
L126.67 121.156
L126.219 121.607
L126 121.675
L125.766 121.758
L125.165 122.359
L125.097 122.578
L125.016 122.81
L124.797 122.878
L124.495 122.878
L124.263 122.81
L123.961 122.51
L123.894 122.276
L123.894 121.977
L123.961 121.758
L125.165 120.555
L125.399 120.472
L125.617 120.404
L126.368 119.651
L126.602 119.57
L127.503 119.57
L127.722 119.651
L128.024 119.953
L128.105 120.172
L128.172 120.404
L128.323 120.555
L128.406 120.773
L128.406 122.578
L128.323 122.81
L128.172 122.961
L128.105 123.18
L128.024 123.412
L127.571 123.862
L127.503 124.081
L127.422 124.315
L127.271 124.464
L127.203 124.683
L127.203 124.984
L127.12 125.216
L126.368 125.969
L126.3 126.188
L126.3 126.789
L126.368 127.021
L126.602 127.089
L128.706 127.089
L128.925 127.172
L129.227 127.474
L129.308 127.692
L129.308 127.992
L129.227 128.224
z
" style="stroke:#ffffff;stroke-width:4;"/>
              <path d="
M129.076 128.375
L128.925 128.526
L128.706 128.594
L128.105 128.594
L127.873 128.526
L127.722 128.375
L127.503 128.294
L126.3 128.294
L126.068 128.375
L125.917 128.526
L125.698 128.594
L124.797 128.594
L124.563 128.526
L124.263 128.224
L124.195 127.992
L124.195 127.391
L124.263 127.172
L125.016 126.419
L125.097 126.188
L125.097 125.886
L125.165 125.667
L125.917 124.917
L126 124.683
L126 124.383
L126.068 124.164
L126.219 124.013
L126.3 123.781
L126.368 123.562
L126.602 123.479
L126.82 123.412
L126.901 123.18
L126.901 122.878
L126.969 122.659
L127.12 122.51
L127.203 122.276
L127.203 121.977
L127.12 121.758
L126.969 121.607
L126.901 121.375
L126.82 121.156
L126.67 121.156
L126.219 121.607
L126 121.675
L125.766 121.758
L125.165 122.359
L125.097 122.578
L125.016 122.81
L124.797 122.878
L124.495 122.878
L124.263 122.81
L123.961 122.51
L123.894 122.276
L123.894 121.977
L123.961 121.758
L125.165 120.555
L125.399 120.472
L125.617 120.404
L126.368 119.651
L126.602 119.57
L127.503 119.57
L127.722 119.651
L128.024 119.953
L128.105 120.172
L128.172 120.404
L128.323 120.555
L128.406 120.773
L128.406 122.578
L128.323 122.81
L128.172 122.961
L128.105 123.18
L128.024 123.412
L127.571 123.862
L127.503 124.081
L127.422 124.315
L127.271 124.464
L127.203 124.683
L127.203 124.984
L127.12 125.216
L126.368 125.969
L126.3 126.188
L126.3 126.789
L126.368 127.021
L126.602 127.089
L128.706 127.089
L128.925 127.172
L129.227 127.474
L129.308 127.692
L129.308 127.992
L129.227 128.224
z
"/>
             </g>
            </g>
            <g id="matplotlib.axis_2">
             <g id="ytick_1">
              <path d="
M37.12 114.969
L45.12 114.969" style="stroke:#ffffff;stroke-width:4;"/>
              <path d="
M37.12 114.969
L45.12 114.969" style="stroke:#000000;"/>
              <path d="
M126.163 114.969
L118.163 114.969" style="stroke:#ffffff;stroke-width:4;"/>
              <path d="
M126.163 114.969
L118.163 114.969" style="stroke:#000000;"/>
              <g id="text_4">
               <path d="
M22.1803 114.367
L22.1803 113.164
L22.0972 112.945
L20.8941 111.742
L20.6753 111.659
L20.4434 111.742
L20.1416 112.042
L20.0737 112.261
L19.9928 112.495
L19.8419 112.495
L19.6909 112.344
L19.4722 112.261
L18.8706 112.261
L18.6387 112.344
L18.3369 112.643
L18.2691 112.862
L18.2691 113.164
L18.1881 113.396
L18.0372 113.547
L17.9694 113.766
L17.8862 113.998
L17.7353 114.148
L17.6675 114.367
L17.6675 116.172
L17.7353 116.404
L18.3369 117.005
L18.5709 117.073
L19.4722 117.073
L19.6909 117.005
L19.8419 116.854
L20.0737 116.773
L20.2925 116.706
L21.4956 115.502
L21.5787 115.268
L21.6466 115.05
L22.0972 114.599
z

M23.1494 114.448
L23.0816 114.667
L23.0816 114.969
L23.0006 115.201
L22.5478 115.651
L22.48 115.87
L22.3991 116.104
L21.4956 117.005
L21.2769 117.073
L21.045 117.156
L20.2925 117.909
L20.0737 117.977
L19.8419 118.06
L19.6909 118.208
L19.4722 118.278
L19.2403 118.359
L19.0894 118.51
L18.8706 118.578
L18.6387 118.51
L18.4878 118.359
L18.2691 118.278
L18.0372 118.208
L17.8862 118.06
L17.6675 117.977
L17.4356 117.909
L16.8341 117.307
L16.7662 117.073
L16.6831 116.854
L16.5322 116.706
L16.4644 116.472
L16.4644 114.367
L16.5322 114.148
L16.6831 113.998
L16.7662 113.766
L16.7662 113.464
L16.8341 113.245
L16.985 113.096
L17.0659 112.862
L17.1337 112.643
L17.2847 112.495
L17.3678 112.261
L17.3678 111.961
L17.4356 111.742
L18.3369 110.839
L18.5709 110.758
L18.7897 110.69
L18.9384 110.539
L19.1725 110.456
L19.3912 110.388
L19.54 110.237
L19.7741 110.156
L20.3756 110.156
L20.5944 110.237
L20.7431 110.388
L20.9772 110.456
L21.1959 110.539
L21.9462 111.292
L22.1803 111.359
L22.3991 111.44
L22.48 111.659
L22.5478 111.893
L23.3003 112.643
L23.3834 112.862
L23.3834 114.065
L23.3003 114.299
z

M25.5283 117.456
L25.0777 117.909
L24.8589 117.977
L24.627 117.909
L24.3252 117.607
L24.2573 117.375
L24.2573 117.073
L24.3252 116.854
L24.4761 116.706
L24.5592 116.472
L24.627 116.253
L24.8589 116.172
L25.1608 116.172
L25.3795 116.253
L25.6792 116.555
L25.7623 116.773
L25.7623 117.073
L25.6792 117.307
z

M32.3522 114.367
L32.3522 113.164
L32.2691 112.945
L31.0659 111.742
L30.8472 111.659
L30.6153 111.742
L30.3134 112.042
L30.2456 112.261
L30.1647 112.495
L30.0137 112.495
L29.8628 112.344
L29.6441 112.261
L29.0425 112.261
L28.8106 112.344
L28.5087 112.643
L28.4409 112.862
L28.4409 113.164
L28.36 113.396
L28.2091 113.547
L28.1412 113.766
L28.0581 113.998
L27.9072 114.148
L27.8394 114.367
L27.8394 116.172
L27.9072 116.404
L28.5087 117.005
L28.7428 117.073
L29.6441 117.073
L29.8628 117.005
L30.0137 116.854
L30.2456 116.773
L30.4644 116.706
L31.6675 115.502
L31.7506 115.268
L31.8184 115.05
L32.2691 114.599
z

M33.3212 114.448
L33.2534 114.667
L33.2534 114.969
L33.1725 115.201
L32.7197 115.651
L32.6519 115.87
L32.5709 116.104
L31.6675 117.005
L31.4487 117.073
L31.2169 117.156
L30.4644 117.909
L30.2456 117.977
L30.0137 118.06
L29.8628 118.208
L29.6441 118.278
L29.4122 118.359
L29.2612 118.51
L29.0425 118.578
L28.8106 118.51
L28.6597 118.359
L28.4409 118.278
L28.2091 118.208
L28.0581 118.06
L27.8394 117.977
L27.6075 117.909
L27.0059 117.307
L26.9381 117.073
L26.855 116.854
L26.7041 116.706
L26.6362 116.472
L26.6362 114.367
L26.7041 114.148
L26.855 113.998
L26.9381 113.766
L26.9381 113.464
L27.0059 113.245
L27.1569 113.096
L27.2378 112.862
L27.3056 112.643
L27.4566 112.495
L27.5397 112.261
L27.5397 111.961
L27.6075 111.742
L28.5087 110.839
L28.7428 110.758
L28.9616 110.69
L29.1103 110.539
L29.3444 110.456
L29.5631 110.388
L29.7119 110.237
L29.9459 110.156
L30.5475 110.156
L30.7662 110.237
L30.915 110.388
L31.1491 110.456
L31.3678 110.539
L32.1181 111.292
L32.3522 111.359
L32.5709 111.44
L32.6519 111.659
L32.7197 111.893
L33.4722 112.643
L33.5553 112.862
L33.5553 114.065
L33.4722 114.299
z
" style="stroke:#ffffff;stroke-width:4;"/>
               <path d="
M22.1803 114.367
L22.1803 113.164
L22.0972 112.945
L20.8941 111.742
L20.6753 111.659
L20.4434 111.742
L20.1416 112.042
L20.0737 112.261
L19.9928 112.495
L19.8419 112.495
L19.6909 112.344
L19.4722 112.261
L18.8706 112.261
L18.6387 112.344
L18.3369 112.643
L18.2691 112.862
L18.2691 113.164
L18.1881 113.396
L18.0372 113.547
L17.9694 113.766
L17.8862 113.998
L17.7353 114.148
L17.6675 114.367
L17.6675 116.172
L17.7353 116.404
L18.3369 117.005
L18.5709 117.073
L19.4722 117.073
L19.6909 117.005
L19.8419 116.854
L20.0737 116.773
L20.2925 116.706
L21.4956 115.502
L21.5787 115.268
L21.6466 115.05
L22.0972 114.599
z

M23.1494 114.448
L23.0816 114.667
L23.0816 114.969
L23.0006 115.201
L22.5478 115.651
L22.48 115.87
L22.3991 116.104
L21.4956 117.005
L21.2769 117.073
L21.045 117.156
L20.2925 117.909
L20.0737 117.977
L19.8419 118.06
L19.6909 118.208
L19.4722 118.278
L19.2403 118.359
L19.0894 118.51
L18.8706 118.578
L18.6387 118.51
L18.4878 118.359
L18.2691 118.278
L18.0372 118.208
L17.8862 118.06
L17.6675 117.977
L17.4356 117.909
L16.8341 117.307
L16.7662 117.073
L16.6831 116.854
L16.5322 116.706
L16.4644 116.472
L16.4644 114.367
L16.5322 114.148
L16.6831 113.998
L16.7662 113.766
L16.7662 113.464
L16.8341 113.245
L16.985 113.096
L17.0659 112.862
L17.1337 112.643
L17.2847 112.495
L17.3678 112.261
L17.3678 111.961
L17.4356 111.742
L18.3369 110.839
L18.5709 110.758
L18.7897 110.69
L18.9384 110.539
L19.1725 110.456
L19.3912 110.388
L19.54 110.237
L19.7741 110.156
L20.3756 110.156
L20.5944 110.237
L20.7431 110.388
L20.9772 110.456
L21.1959 110.539
L21.9462 111.292
L22.1803 111.359
L22.3991 111.44
L22.48 111.659
L22.5478 111.893
L23.3003 112.643
L23.3834 112.862
L23.3834 114.065
L23.3003 114.299
z

M25.5283 117.456
L25.0777 117.909
L24.8589 117.977
L24.627 117.909
L24.3252 117.607
L24.2573 117.375
L24.2573 117.073
L24.3252 116.854
L24.4761 116.706
L24.5592 116.472
L24.627 116.253
L24.8589 116.172
L25.1608 116.172
L25.3795 116.253
L25.6792 116.555
L25.7623 116.773
L25.7623 117.073
L25.6792 117.307
z

M32.3522 114.367
L32.3522 113.164
L32.2691 112.945
L31.0659 111.742
L30.8472 111.659
L30.6153 111.742
L30.3134 112.042
L30.2456 112.261
L30.1647 112.495
L30.0137 112.495
L29.8628 112.344
L29.6441 112.261
L29.0425 112.261
L28.8106 112.344
L28.5087 112.643
L28.4409 112.862
L28.4409 113.164
L28.36 113.396
L28.2091 113.547
L28.1412 113.766
L28.0581 113.998
L27.9072 114.148
L27.8394 114.367
L27.8394 116.172
L27.9072 116.404
L28.5087 117.005
L28.7428 117.073
L29.6441 117.073
L29.8628 117.005
L30.0137 116.854
L30.2456 116.773
L30.4644 116.706
L31.6675 115.502
L31.7506 115.268
L31.8184 115.05
L32.2691 114.599
z

M33.3212 114.448
L33.2534 114.667
L33.2534 114.969
L33.1725 115.201
L32.7197 115.651
L32.6519 115.87
L32.5709 116.104
L31.6675 117.005
L31.4487 117.073
L31.2169 117.156
L30.4644 117.909
L30.2456 117.977
L30.0137 118.06
L29.8628 118.208
L29.6441 118.278
L29.4122 118.359
L29.2612 118.51
L29.0425 118.578
L28.8106 118.51
L28.6597 118.359
L28.4409 118.278
L28.2091 118.208
L28.0581 118.06
L27.8394 117.977
L27.6075 117.909
L27.0059 117.307
L26.9381 117.073
L26.855 116.854
L26.7041 116.706
L26.6362 116.472
L26.6362 114.367
L26.7041 114.148
L26.855 113.998
L26.9381 113.766
L26.9381 113.464
L27.0059 113.245
L27.1569 113.096
L27.2378 112.862
L27.3056 112.643
L27.4566 112.495
L27.5397 112.261
L27.5397 111.961
L27.6075 111.742
L28.5087 110.839
L28.7428 110.758
L28.9616 110.69
L29.1103 110.539
L29.3444 110.456
L29.5631 110.388
L29.7119 110.237
L29.9459 110.156
L30.5475 110.156
L30.7662 110.237
L30.915 110.388
L31.1491 110.456
L31.3678 110.539
L32.1181 111.292
L32.3522 111.359
L32.5709 111.44
L32.6519 111.659
L32.7197 111.893
L33.4722 112.643
L33.5553 112.862
L33.5553 114.065
L33.4722 114.299
z
"/>
              </g>
              <g id="ytick_2">
               <path d="
M37.12 73.6138
L45.12 73.6138" style="stroke:#ffffff;stroke-width:4;"/>
               <path d="
M37.12 73.6138
L45.12 73.6138" style="stroke:#000000;"/>
               <path d="
M126.163 73.6138
L118.163 73.6138" style="stroke:#ffffff;stroke-width:4;"/>
               <path d="
M126.163 73.6138
L118.163 73.6138" style="stroke:#000000;"/>
               <g id="text_5">
                <path d="
M21.2791 73.0122
L21.2791 71.8091
L21.1959 71.5903
L19.9928 70.3872
L19.7741 70.3041
L19.5422 70.3872
L19.2403 70.6869
L19.1725 70.9056
L19.0916 71.1397
L18.9406 71.1397
L18.7897 70.9888
L18.5709 70.9056
L17.9694 70.9056
L17.7375 70.9888
L17.4356 71.2884
L17.3678 71.5072
L17.3678 71.8091
L17.2869 72.0409
L17.1359 72.1919
L17.0681 72.4106
L16.985 72.6425
L16.8341 72.7934
L16.7662 73.0122
L16.7662 74.8169
L16.8341 75.0488
L17.4356 75.6503
L17.6697 75.7181
L18.5709 75.7181
L18.7897 75.6503
L18.9406 75.4994
L19.1725 75.4184
L19.3912 75.3506
L20.5944 74.1475
L20.6775 73.9134
L20.7453 73.6947
L21.1959 73.2441
z

M22.2481 73.0931
L22.1803 73.3119
L22.1803 73.6138
L22.0994 73.8456
L21.6466 74.2963
L21.5787 74.515
L21.4978 74.7491
L20.5944 75.6503
L20.3756 75.7181
L20.1437 75.8013
L19.3912 76.5538
L19.1725 76.6216
L18.9406 76.7047
L18.7897 76.8534
L18.5709 76.9234
L18.3391 77.0044
L18.1881 77.1553
L17.9694 77.2231
L17.7375 77.1553
L17.5866 77.0044
L17.3678 76.9234
L17.1359 76.8534
L16.985 76.7047
L16.7662 76.6216
L16.5344 76.5538
L15.9328 75.9522
L15.865 75.7181
L15.7819 75.4994
L15.6309 75.3506
L15.5631 75.1166
L15.5631 73.0122
L15.6309 72.7934
L15.7819 72.6425
L15.865 72.4106
L15.865 72.1088
L15.9328 71.89
L16.0837 71.7413
L16.1647 71.5072
L16.2325 71.2884
L16.3834 71.1397
L16.4666 70.9056
L16.4666 70.6059
L16.5344 70.3872
L17.4356 69.4838
L17.6697 69.4028
L17.8884 69.335
L18.0372 69.1841
L18.2712 69.1009
L18.49 69.0331
L18.6387 68.8822
L18.8728 68.8013
L19.4744 68.8013
L19.6931 68.8822
L19.8419 69.0331
L20.0759 69.1009
L20.2947 69.1841
L21.045 69.9366
L21.2791 70.0044
L21.4978 70.0853
L21.5787 70.3041
L21.6466 70.5381
L22.3991 71.2884
L22.4822 71.5072
L22.4822 72.7103
L22.3991 72.9444
z

M24.627 76.1009
L24.1764 76.5538
L23.9577 76.6216
L23.7258 76.5538
L23.4239 76.2519
L23.3561 76.02
L23.3561 75.7181
L23.4239 75.4994
L23.5748 75.3506
L23.658 75.1166
L23.7258 74.8978
L23.9577 74.8169
L24.2595 74.8169
L24.4783 74.8978
L24.778 75.1997
L24.8611 75.4184
L24.8611 75.7181
L24.778 75.9522
z

M33.3234 70.6869
L33.1725 70.8378
L32.9537 70.9056
L30.2478 70.9056
L30.0137 70.9888
L29.865 71.1397
L29.6462 71.2075
L28.4431 71.2075
L28.2091 71.2884
L27.6075 71.89
L27.5397 72.1088
L27.6075 72.3428
L27.9094 72.6425
L28.1412 72.7103
L29.0447 72.7103
L29.2634 72.7934
L29.4122 72.9444
L29.6462 73.0122
L29.865 73.0931
L30.3156 73.5459
L30.5475 73.6138
L30.7662 73.6947
L31.6697 74.5981
L31.7506 74.8169
L31.7506 76.6216
L31.6697 76.8534
L31.5187 77.0044
L31.4509 77.2231
L31.3678 77.455
L30.1647 78.6581
L29.9459 78.7281
L29.7141 78.8091
L29.5631 78.96
L29.3444 79.0278
L28.4431 79.0278
L28.2091 78.96
L28.0603 78.8091
L27.8416 78.7281
L27.24 78.7281
L27.0059 78.6581
L26.8572 78.5094
L26.6384 78.4263
L26.3366 78.4263
L26.1047 78.3584
L25.8028 78.0566
L25.735 77.8247
L25.735 77.525
L25.8028 77.3063
L26.0369 77.2231
L28.1412 77.2231
L28.36 77.3063
L28.5109 77.455
L28.7428 77.525
L28.9616 77.455
L29.1125 77.3063
L29.3444 77.2231
L29.5631 77.1553
L30.1647 76.5538
L30.2478 76.3197
L30.2478 75.1166
L30.1647 74.8978
L29.9459 74.8169
L29.7141 74.7491
L29.5631 74.5981
L29.3444 74.515
L27.5397 74.515
L27.3078 74.4472
L27.1569 74.2963
L26.9381 74.2153
L26.7062 74.1475
L26.4044 73.8456
L26.3366 73.6138
L26.3366 73.3119
L26.2556 73.0931
L26.1047 72.9444
L26.0369 72.7103
L26.0369 71.8091
L26.1047 71.5903
L26.2556 71.4394
L26.3366 71.2075
L26.3366 70.3041
L26.4044 70.0853
L26.7062 69.7856
L26.9381 69.7025
L29.6462 69.7025
L29.865 69.6347
L30.0137 69.4838
L30.2478 69.4028
L30.8494 69.4028
L31.0681 69.335
L31.2169 69.1841
L31.4509 69.1009
L32.0525 69.1009
L32.2712 69.1841
L32.7219 69.6347
L32.9537 69.7025
L33.1725 69.7856
L33.4744 70.0853
L33.5553 70.3041
L33.4744 70.5381
z
" style="stroke:#ffffff;stroke-width:4;"/>
                <path d="
M21.2791 73.0122
L21.2791 71.8091
L21.1959 71.5903
L19.9928 70.3872
L19.7741 70.3041
L19.5422 70.3872
L19.2403 70.6869
L19.1725 70.9056
L19.0916 71.1397
L18.9406 71.1397
L18.7897 70.9888
L18.5709 70.9056
L17.9694 70.9056
L17.7375 70.9888
L17.4356 71.2884
L17.3678 71.5072
L17.3678 71.8091
L17.2869 72.0409
L17.1359 72.1919
L17.0681 72.4106
L16.985 72.6425
L16.8341 72.7934
L16.7662 73.0122
L16.7662 74.8169
L16.8341 75.0488
L17.4356 75.6503
L17.6697 75.7181
L18.5709 75.7181
L18.7897 75.6503
L18.9406 75.4994
L19.1725 75.4184
L19.3912 75.3506
L20.5944 74.1475
L20.6775 73.9134
L20.7453 73.6947
L21.1959 73.2441
z

M22.2481 73.0931
L22.1803 73.3119
L22.1803 73.6138
L22.0994 73.8456
L21.6466 74.2963
L21.5787 74.515
L21.4978 74.7491
L20.5944 75.6503
L20.3756 75.7181
L20.1437 75.8013
L19.3912 76.5538
L19.1725 76.6216
L18.9406 76.7047
L18.7897 76.8534
L18.5709 76.9234
L18.3391 77.0044
L18.1881 77.1553
L17.9694 77.2231
L17.7375 77.1553
L17.5866 77.0044
L17.3678 76.9234
L17.1359 76.8534
L16.985 76.7047
L16.7662 76.6216
L16.5344 76.5538
L15.9328 75.9522
L15.865 75.7181
L15.7819 75.4994
L15.6309 75.3506
L15.5631 75.1166
L15.5631 73.0122
L15.6309 72.7934
L15.7819 72.6425
L15.865 72.4106
L15.865 72.1088
L15.9328 71.89
L16.0837 71.7413
L16.1647 71.5072
L16.2325 71.2884
L16.3834 71.1397
L16.4666 70.9056
L16.4666 70.6059
L16.5344 70.3872
L17.4356 69.4838
L17.6697 69.4028
L17.8884 69.335
L18.0372 69.1841
L18.2712 69.1009
L18.49 69.0331
L18.6387 68.8822
L18.8728 68.8013
L19.4744 68.8013
L19.6931 68.8822
L19.8419 69.0331
L20.0759 69.1009
L20.2947 69.1841
L21.045 69.9366
L21.2791 70.0044
L21.4978 70.0853
L21.5787 70.3041
L21.6466 70.5381
L22.3991 71.2884
L22.4822 71.5072
L22.4822 72.7103
L22.3991 72.9444
z

M24.627 76.1009
L24.1764 76.5538
L23.9577 76.6216
L23.7258 76.5538
L23.4239 76.2519
L23.3561 76.02
L23.3561 75.7181
L23.4239 75.4994
L23.5748 75.3506
L23.658 75.1166
L23.7258 74.8978
L23.9577 74.8169
L24.2595 74.8169
L24.4783 74.8978
L24.778 75.1997
L24.8611 75.4184
L24.8611 75.7181
L24.778 75.9522
z

M33.3234 70.6869
L33.1725 70.8378
L32.9537 70.9056
L30.2478 70.9056
L30.0137 70.9888
L29.865 71.1397
L29.6462 71.2075
L28.4431 71.2075
L28.2091 71.2884
L27.6075 71.89
L27.5397 72.1088
L27.6075 72.3428
L27.9094 72.6425
L28.1412 72.7103
L29.0447 72.7103
L29.2634 72.7934
L29.4122 72.9444
L29.6462 73.0122
L29.865 73.0931
L30.3156 73.5459
L30.5475 73.6138
L30.7662 73.6947
L31.6697 74.5981
L31.7506 74.8169
L31.7506 76.6216
L31.6697 76.8534
L31.5187 77.0044
L31.4509 77.2231
L31.3678 77.455
L30.1647 78.6581
L29.9459 78.7281
L29.7141 78.8091
L29.5631 78.96
L29.3444 79.0278
L28.4431 79.0278
L28.2091 78.96
L28.0603 78.8091
L27.8416 78.7281
L27.24 78.7281
L27.0059 78.6581
L26.8572 78.5094
L26.6384 78.4263
L26.3366 78.4263
L26.1047 78.3584
L25.8028 78.0566
L25.735 77.8247
L25.735 77.525
L25.8028 77.3063
L26.0369 77.2231
L28.1412 77.2231
L28.36 77.3063
L28.5109 77.455
L28.7428 77.525
L28.9616 77.455
L29.1125 77.3063
L29.3444 77.2231
L29.5631 77.1553
L30.1647 76.5538
L30.2478 76.3197
L30.2478 75.1166
L30.1647 74.8978
L29.9459 74.8169
L29.7141 74.7491
L29.5631 74.5981
L29.3444 74.515
L27.5397 74.515
L27.3078 74.4472
L27.1569 74.2963
L26.9381 74.2153
L26.7062 74.1475
L26.4044 73.8456
L26.3366 73.6138
L26.3366 73.3119
L26.2556 73.0931
L26.1047 72.9444
L26.0369 72.7103
L26.0369 71.8091
L26.1047 71.5903
L26.2556 71.4394
L26.3366 71.2075
L26.3366 70.3041
L26.4044 70.0853
L26.7062 69.7856
L26.9381 69.7025
L29.6462 69.7025
L29.865 69.6347
L30.0137 69.4838
L30.2478 69.4028
L30.8494 69.4028
L31.0681 69.335
L31.2169 69.1841
L31.4509 69.1009
L32.0525 69.1009
L32.2712 69.1841
L32.7219 69.6347
L32.9537 69.7025
L33.1725 69.7856
L33.4744 70.0853
L33.5553 70.3041
L33.4744 70.5381
z
"/>
               </g>
               <g id="ytick_3">
                <path d="
M37.12 32.2588
L45.12 32.2588" style="stroke:#ffffff;stroke-width:4;"/>
                <path d="
M37.12 32.2588
L45.12 32.2588" style="stroke:#000000;"/>
                <path d="
M126.163 32.2588
L118.163 32.2588" style="stroke:#ffffff;stroke-width:4;"/>
                <path d="
M126.163 32.2588
L118.163 32.2588" style="stroke:#000000;"/>
                <g id="text_6">
                 <path d="
M23.1494 35.9513
L23.0006 36.1
L22.7819 36.17
L21.5787 36.17
L21.3447 36.1
L21.2769 35.8681
L21.2769 31.3553
L21.1959 31.1366
L21.045 30.9878
L20.9772 30.7538
L20.9772 30.4541
L20.8941 30.2353
L20.7431 30.0844
L20.6753 29.8525
L20.6753 29.5506
L20.5944 29.3319
L20.4434 29.1831
L20.3756 28.9491
L20.2925 28.7303
L20.1416 28.5816
L20.0737 28.3475
L20.0737 27.7459
L20.1416 27.5272
L20.4434 27.2275
L20.6753 27.1444
L21.2769 27.1444
L21.4956 27.2275
L21.6466 27.3784
L21.8784 27.4463
L22.0972 27.5272
L22.1803 27.7459
L22.2481 27.98
L22.6987 28.4306
L22.7819 28.6494
L22.8497 28.8813
L23.0006 29.0322
L23.0816 29.2509
L23.0816 30.7538
L23.1494 30.9878
L23.3003 31.1366
L23.3834 31.3553
L23.3834 35.5684
L23.3003 35.8003
z

M25.5283 34.7459
L25.0777 35.1988
L24.8589 35.2666
L24.627 35.1988
L24.3252 34.8969
L24.2573 34.665
L24.2573 34.3631
L24.3252 34.1444
L24.4761 33.9956
L24.5592 33.7616
L24.627 33.5428
L24.8589 33.4619
L25.1608 33.4619
L25.3795 33.5428
L25.6792 33.8447
L25.7623 34.0634
L25.7623 34.3631
L25.6792 34.5972
z

M32.3522 31.6572
L32.3522 30.4541
L32.2691 30.2353
L31.0659 29.0322
L30.8472 28.9491
L30.6153 29.0322
L30.3134 29.3319
L30.2456 29.5506
L30.1647 29.7847
L30.0137 29.7847
L29.8628 29.6338
L29.6441 29.5506
L29.0425 29.5506
L28.8106 29.6338
L28.5087 29.9334
L28.4409 30.1522
L28.4409 30.4541
L28.36 30.6859
L28.2091 30.8369
L28.1412 31.0556
L28.0581 31.2875
L27.9072 31.4384
L27.8394 31.6572
L27.8394 33.4619
L27.9072 33.6938
L28.5087 34.2953
L28.7428 34.3631
L29.6441 34.3631
L29.8628 34.2953
L30.0137 34.1444
L30.2456 34.0634
L30.4644 33.9956
L31.6675 32.7925
L31.7506 32.5584
L31.8184 32.3397
L32.2691 31.8891
z

M33.3212 31.7381
L33.2534 31.9569
L33.2534 32.2588
L33.1725 32.4906
L32.7197 32.9413
L32.6519 33.16
L32.5709 33.3941
L31.6675 34.2953
L31.4487 34.3631
L31.2169 34.4463
L30.4644 35.1988
L30.2456 35.2666
L30.0137 35.3497
L29.8628 35.4984
L29.6441 35.5684
L29.4122 35.6494
L29.2612 35.8003
L29.0425 35.8681
L28.8106 35.8003
L28.6597 35.6494
L28.4409 35.5684
L28.2091 35.4984
L28.0581 35.3497
L27.8394 35.2666
L27.6075 35.1988
L27.0059 34.5972
L26.9381 34.3631
L26.855 34.1444
L26.7041 33.9956
L26.6362 33.7616
L26.6362 31.6572
L26.7041 31.4384
L26.855 31.2875
L26.9381 31.0556
L26.9381 30.7538
L27.0059 30.535
L27.1569 30.3863
L27.2378 30.1522
L27.3056 29.9334
L27.4566 29.7847
L27.5397 29.5506
L27.5397 29.2509
L27.6075 29.0322
L28.5087 28.1288
L28.7428 28.0478
L28.9616 27.98
L29.1103 27.8291
L29.3444 27.7459
L29.5631 27.6781
L29.7119 27.5272
L29.9459 27.4463
L30.5475 27.4463
L30.7662 27.5272
L30.915 27.6781
L31.1491 27.7459
L31.3678 27.8291
L32.1181 28.5816
L32.3522 28.6494
L32.5709 28.7303
L32.6519 28.9491
L32.7197 29.1831
L33.4722 29.9334
L33.5553 30.1522
L33.5553 31.3553
L33.4722 31.5894
z
" style="stroke:#ffffff;stroke-width:4;"/>
                 <path d="
M23.1494 35.9513
L23.0006 36.1
L22.7819 36.17
L21.5787 36.17
L21.3447 36.1
L21.2769 35.8681
L21.2769 31.3553
L21.1959 31.1366
L21.045 30.9878
L20.9772 30.7538
L20.9772 30.4541
L20.8941 30.2353
L20.7431 30.0844
L20.6753 29.8525
L20.6753 29.5506
L20.5944 29.3319
L20.4434 29.1831
L20.3756 28.9491
L20.2925 28.7303
L20.1416 28.5816
L20.0737 28.3475
L20.0737 27.7459
L20.1416 27.5272
L20.4434 27.2275
L20.6753 27.1444
L21.2769 27.1444
L21.4956 27.2275
L21.6466 27.3784
L21.8784 27.4463
L22.0972 27.5272
L22.1803 27.7459
L22.2481 27.98
L22.6987 28.4306
L22.7819 28.6494
L22.8497 28.8813
L23.0006 29.0322
L23.0816 29.2509
L23.0816 30.7538
L23.1494 30.9878
L23.3003 31.1366
L23.3834 31.3553
L23.3834 35.5684
L23.3003 35.8003
z

M25.5283 34.7459
L25.0777 35.1988
L24.8589 35.2666
L24.627 35.1988
L24.3252 34.8969
L24.2573 34.665
L24.2573 34.3631
L24.3252 34.1444
L24.4761 33.9956
L24.5592 33.7616
L24.627 33.5428
L24.8589 33.4619
L25.1608 33.4619
L25.3795 33.5428
L25.6792 33.8447
L25.7623 34.0634
L25.7623 34.3631
L25.6792 34.5972
z

M32.3522 31.6572
L32.3522 30.4541
L32.2691 30.2353
L31.0659 29.0322
L30.8472 28.9491
L30.6153 29.0322
L30.3134 29.3319
L30.2456 29.5506
L30.1647 29.7847
L30.0137 29.7847
L29.8628 29.6338
L29.6441 29.5506
L29.0425 29.5506
L28.8106 29.6338
L28.5087 29.9334
L28.4409 30.1522
L28.4409 30.4541
L28.36 30.6859
L28.2091 30.8369
L28.1412 31.0556
L28.0581 31.2875
L27.9072 31.4384
L27.8394 31.6572
L27.8394 33.4619
L27.9072 33.6938
L28.5087 34.2953
L28.7428 34.3631
L29.6441 34.3631
L29.8628 34.2953
L30.0137 34.1444
L30.2456 34.0634
L30.4644 33.9956
L31.6675 32.7925
L31.7506 32.5584
L31.8184 32.3397
L32.2691 31.8891
z

M33.3212 31.7381
L33.2534 31.9569
L33.2534 32.2588
L33.1725 32.4906
L32.7197 32.9413
L32.6519 33.16
L32.5709 33.3941
L31.6675 34.2953
L31.4487 34.3631
L31.2169 34.4463
L30.4644 35.1988
L30.2456 35.2666
L30.0137 35.3497
L29.8628 35.4984
L29.6441 35.5684
L29.4122 35.6494
L29.2612 35.8003
L29.0425 35.8681
L28.8106 35.8003
L28.6597 35.6494
L28.4409 35.5684
L28.2091 35.4984
L28.0581 35.3497
L27.8394 35.2666
L27.6075 35.1988
L27.0059 34.5972
L26.9381 34.3631
L26.855 34.1444
L26.7041 33.9956
L26.6362 33.7616
L26.6362 31.6572
L26.7041 31.4384
L26.855 31.2875
L26.9381 31.0556
L26.9381 30.7538
L27.0059 30.535
L27.1569 30.3863
L27.2378 30.1522
L27.3056 29.9334
L27.4566 29.7847
L27.5397 29.5506
L27.5397 29.2509
L27.6075 29.0322
L28.5087 28.1288
L28.7428 28.0478
L28.9616 27.98
L29.1103 27.8291
L29.3444 27.7459
L29.5631 27.6781
L29.7119 27.5272
L29.9459 27.4463
L30.5475 27.4463
L30.7662 27.5272
L30.915 27.6781
L31.1491 27.7459
L31.3678 27.8291
L32.1181 28.5816
L32.3522 28.6494
L32.5709 28.7303
L32.6519 28.9491
L32.7197 29.1831
L33.4722 29.9334
L33.5553 30.1522
L33.5553 31.3553
L33.4722 31.5894
z
"/>
                </g>
               </g>
               <g id="text_7">
                <path d="
M43.5167 26.9306
L43.415 27.2588
L43.2903 27.6066
L42.388 28.5089
L42.0598 28.6139
L41.712 28.7353
L41.4856 28.9617
L41.1575 29.0634
L38.0009 29.0634
L37.6498 28.9617
L37.4267 28.7353
L37.0986 28.6139
L36.7475 28.5089
L36.5244 28.2858
L36.1962 28.1611
L35.8452 28.0594
L34.0405 26.2547
L33.9387 25.9036
L33.8173 25.5755
L33.5909 25.3523
L33.4892 25.0013
L33.3645 24.6731
L33.1381 24.45
L33.0364 24.0989
L33.0364 21.3919
L33.1381 21.0638
L33.3645 20.8406
L33.4892 20.4895
L33.5909 20.1614
L34.2669 19.4855
L34.3916 19.1377
L34.4933 18.8095
L37.2003 16.1025
L37.5481 15.9778
L37.8762 15.8761
L38.1027 15.6497
L38.4505 15.5283
L38.9033 15.5283
L39.2314 15.4266
L39.4545 15.2002
L39.8056 15.0755
L40.2552 15.0755
L40.5833 15.2002
L40.8097 15.4266
L41.1575 15.5283
L41.4856 15.6497
L42.388 16.552
L42.5127 16.8802
L42.5127 17.333
L42.388 17.6808
L41.9384 18.1336
L41.712 18.1336
L41.0361 17.4544
L40.708 17.333
L39.8056 17.333
L39.4545 17.4544
L39.2314 17.6808
L38.9033 17.7825
L38.5522 17.9072
L36.298 20.1614
L36.1962 20.4895
L36.0716 20.8406
L35.8452 21.0638
L35.7434 21.3919
L35.622 21.743
L35.3956 21.9661
L35.2939 22.2942
L35.1692 22.6453
L34.9428 22.8684
L34.9428 23.0948
L35.1692 23.3213
L35.2939 23.6494
L35.2939 24.0989
L35.3956 24.45
L36.0716 25.1259
L36.1962 25.4541
L36.298 25.8019
L37.2003 26.7042
L37.5481 26.8059
L37.8762 26.9306
L38.1027 27.157
L38.4505 27.2588
L38.9033 27.2588
L39.2314 27.3834
L39.4545 27.6066
L39.8056 27.7116
L40.1337 27.6066
L40.3569 27.3834
L40.708 27.2588
L41.0361 27.157
L41.712 26.4778
L42.0598 26.3564
L42.388 26.2547
L42.5127 25.9036
L42.6144 25.5755
L42.9622 25.4541
L43.415 25.4541
L43.7431 25.5755
L43.8645 25.9036
L43.8645 26.3564
L43.7431 26.7042
z

M56.1069 22.8684
L56.0052 23.1966
L56.0052 28.1611
L55.8837 28.5089
L55.5556 28.6139
L55.2045 28.7353
L54.9814 28.9617
L54.755 28.9617
L54.6533 28.6139
L54.5286 28.2858
L54.3022 28.0594
L54.2005 27.7116
L54.2005 25.0013
L54.0791 24.6731
L53.7509 24.5517
L51.9462 24.5517
L51.5952 24.6731
L51.372 24.8995
L51.0439 25.0013
L48.3369 25.0013
L47.9858 25.1259
L47.7627 25.3523
L47.4345 25.4541
L47.0834 25.5755
L46.6339 26.0283
L46.5322 26.3564
L46.5322 29.5163
L46.4075 29.8641
L46.0794 29.9658
L45.7316 30.0905
L45.5052 30.3136
L45.2787 30.3136
L45.177 29.9658
L45.177 20.4895
L45.2787 20.1614
L45.5052 19.9383
L45.6298 19.5872
L45.6298 16.8802
L45.7316 16.552
L46.0794 16.4306
L46.5322 16.4306
L46.8603 16.552
L46.9817 16.8802
L46.9817 20.4895
L46.8603 20.8406
L46.6339 21.0638
L46.5322 21.3919
L46.5322 22.747
L46.6339 23.0948
L47.0834 23.5477
L47.4345 23.6494
L49.2392 23.6494
L49.5673 23.5477
L49.7905 23.3213
L50.1416 23.1966
L52.8486 23.1966
L53.1767 23.0948
L53.3998 22.8684
L53.7509 22.747
L54.0791 22.6453
L54.5286 22.1925
L54.6533 21.8447
L54.6533 17.7825
L54.755 17.4544
L55.1028 17.333
L55.4309 17.4544
L55.8837 17.9072
L56.0052 18.2353
L56.0052 21.8447
L56.1069 22.1925
L56.3333 22.4189
L56.3333 22.6453
z

M69.1515 16.1025
L68.4755 16.7784
L68.1474 16.8802
L64.0852 16.8802
L63.7374 17.0048
L63.511 17.2313
L63.1829 17.333
L61.831 17.333
L61.4799 17.4544
L60.5776 18.3567
L60.4759 18.6848
L60.4759 19.5872
L60.5776 19.9383
L61.0304 20.3878
L61.3782 20.4895
L65.8899 20.4895
L66.218 20.6142
L66.6709 21.0638
L66.6709 21.2902
L65.7685 22.1925
L65.4404 22.2942
L64.9876 22.2942
L64.6398 22.4189
L64.4134 22.6453
L64.0852 22.747
L62.7334 22.747
L62.3823 22.6453
L62.1591 22.4189
L61.831 22.2942
L60.9287 22.2942
L60.5776 22.4189
L60.4759 22.747
L60.3545 23.0948
L60.128 23.3213
L60.0263 23.6494
L60.0263 25.4541
L60.128 25.8019
L60.4759 25.9036
L60.804 26.0283
L61.0304 26.2547
L61.3782 26.3564
L61.7063 26.2547
L61.9327 26.0283
L62.2805 25.9036
L67.2451 25.9036
L67.5732 26.0283
L67.6946 26.3564
L67.5732 26.7042
L66.6709 27.6066
L66.3427 27.7116
L64.538 27.7116
L64.187 27.833
L63.9638 28.0594
L63.6357 28.1611
L60.0263 28.1611
L59.6752 28.2858
L59.4521 28.5089
L59.124 28.6139
L58.6712 28.6139
L58.3234 28.5089
L57.8705 28.0594
L57.7688 27.7116
L57.7688 25.9036
L57.8705 25.5755
L58.097 25.3523
L58.2216 25.0013
L58.2216 22.747
L58.3234 22.4189
L58.5498 22.1925
L58.6712 21.8447
L58.6712 18.6848
L58.5498 18.3567
L58.3234 18.1336
L58.2216 17.7825
L58.2216 17.333
L58.3234 17.0048
L59.2257 16.1025
L59.5735 15.9778
L59.9016 15.8761
L60.128 15.6497
L60.4759 15.5283
L62.2805 15.5283
L62.6087 15.4266
L62.8351 15.2002
L63.1829 15.0755
L68.597 15.0755
L68.9251 15.2002
L69.3779 15.6497
L69.3779 15.8761
z

M80.3898 27.833
L80.1634 28.0594
L79.8352 28.1611
L79.3857 28.1611
L79.0346 28.0594
L78.9329 27.7116
L78.9329 23.6494
L79.0346 23.3213
L79.261 23.0948
L79.3857 22.747
L79.3857 21.8447
L79.261 21.5166
L79.0346 21.2902
L78.9329 20.9423
L78.9329 19.1377
L78.8115 18.8095
L78.3587 18.3567
L78.0305 18.2353
L77.6827 18.3567
L77.581 18.6848
L77.4563 19.0359
L77.2299 19.2591
L77.1282 19.5872
L77.0068 19.9383
L76.3276 20.6142
L76.2259 20.9423
L76.1045 21.2902
L75.4252 21.9661
L75.3235 22.2942
L75.2021 22.6453
L74.874 22.747
L74.5229 22.6453
L74.0734 22.1925
L73.9716 21.8447
L73.847 21.5166
L73.5188 21.3919
L73.171 21.5166
L73.0693 21.8447
L73.0693 28.1611
L72.9446 28.5089
L72.6165 28.6139
L72.167 28.6139
L71.8159 28.5089
L71.7141 28.1611
L71.7141 27.7116
L71.5927 27.3834
L71.3663 27.157
L71.2646 26.8059
L71.2646 20.9423
L71.1399 20.6142
L70.9135 20.3878
L70.8118 20.04
L70.8118 16.8802
L70.9135 16.552
L71.3663 16.1025
L71.7141 15.9778
L72.0423 16.1025
L73.847 17.9072
L73.9716 18.2353
L73.9716 18.6848
L74.0734 19.0359
L74.5229 19.4855
L74.874 19.5872
L75.2021 19.4855
L75.6516 19.0359
L75.7763 18.6848
L75.878 18.3567
L76.1045 18.1336
L76.2259 17.7825
L76.3276 17.4544
L77.0068 16.7784
L77.1282 16.4306
L77.2299 16.1025
L78.5851 14.7473
L78.9329 14.6259
L79.261 14.7473
L79.7138 15.2002
L79.8352 15.5283
L79.8352 15.9778
L79.937 16.3289
L80.1634 16.552
L80.288 16.8802
L80.288 17.333
L80.3898 17.6808
L80.6162 17.9072
L80.7376 18.2353
L80.7376 27.2588
L80.6162 27.6066
z

M91.9759 20.4895
L91.9759 19.5872
L91.8545 19.2591
L91.4016 18.8095
L91.0735 18.6848
L90.624 18.6848
L90.2729 18.5831
L90.0498 18.3567
L89.7216 18.2353
L89.3705 18.1336
L89.1474 17.9072
L88.8193 17.7825
L86.1123 17.7825
L85.7612 17.9072
L85.538 18.1336
L85.2099 18.2353
L84.8588 18.3567
L83.9565 19.2591
L83.8548 19.5872
L83.9565 19.9383
L84.1829 20.1614
L84.3076 20.4895
L84.4093 20.8406
L84.6357 21.0638
L84.7571 21.3919
L84.7571 21.8447
L84.8588 22.1925
L85.3116 22.6453
L85.538 22.6453
L86.6635 21.5166
L87.0146 21.3919
L87.917 21.3919
L88.2451 21.2902
L88.4682 21.0638
L88.8193 20.9423
L91.5263 20.9423
L91.8545 20.8406
z

M94.3351 21.0638
L94.2334 21.3919
L94.1087 21.743
L93.7805 21.8447
L93.4327 21.9661
L93.2063 22.1925
L92.8782 22.2942
L92.5304 22.4189
L92.304 22.6453
L91.9759 22.747
L90.1712 22.747
L89.8234 22.8684
L89.3705 23.3213
L89.2688 23.6494
L89.2688 24.5517
L89.3705 24.8995
L89.7216 25.0013
L90.0498 25.1259
L93.2063 28.2858
L93.331 28.6139
L93.4327 28.9617
L93.6591 29.1881
L93.7805 29.5163
L93.6591 29.8641
L93.2063 30.3136
L92.8782 30.4186
L92.5304 30.3136
L91.8545 29.6377
L91.5263 29.5163
L91.1752 29.4113
L86.4404 24.6731
L86.214 24.6731
L86.1123 25.0013
L86.1123 27.2588
L85.9876 27.6066
L85.7612 27.833
L85.6595 28.1611
L85.538 28.5089
L85.0852 28.9617
L84.7571 29.0634
L84.3076 29.0634
L83.9565 28.9617
L83.8548 28.6139
L83.8548 28.1611
L83.9565 27.833
L84.1829 27.6066
L84.3076 27.2588
L84.3076 25.9036
L84.1829 25.5755
L83.9565 25.3523
L83.8548 25.0013
L83.8548 24.5517
L83.7334 24.2236
L83.507 23.9972
L83.4052 23.6494
L83.4052 23.1966
L83.2805 22.8684
L83.0541 22.6453
L82.9524 22.2942
L82.9524 21.8447
L82.831 21.5166
L82.6046 21.2902
L82.5029 20.9423
L82.5029 20.4895
L82.3782 20.1614
L82.1518 19.9383
L82.0501 19.5872
L82.0501 18.2353
L82.1518 17.9072
L83.9565 16.1025
L84.3076 15.9778
L84.7571 15.9778
L85.0852 15.8761
L85.3116 15.6497
L85.6595 15.5283
L89.2688 15.5283
L89.597 15.6497
L89.8234 15.8761
L90.1712 15.9778
L90.4993 16.1025
L90.7257 16.3289
L91.0735 16.4306
L91.4016 16.552
L91.628 16.7784
L91.9759 16.8802
L92.304 17.0048
L94.1087 18.8095
L94.2334 19.1377
L94.3351 19.4855
L94.5615 19.7119
L94.6829 20.04
L94.6829 20.4895
L94.5615 20.8406
z

M107.378 16.1025
L106.702 16.7784
L106.374 16.8802
L102.312 16.8802
L101.964 17.0048
L101.738 17.2313
L101.409 17.333
L100.058 17.333
L99.7065 17.4544
L98.8041 18.3567
L98.7024 18.6848
L98.7024 19.5872
L98.8041 19.9383
L99.257 20.3878
L99.6048 20.4895
L104.116 20.4895
L104.445 20.6142
L104.897 21.0638
L104.897 21.2902
L103.995 22.1925
L103.667 22.2942
L103.214 22.2942
L102.866 22.4189
L102.64 22.6453
L102.312 22.747
L100.96 22.747
L100.609 22.6453
L100.386 22.4189
L100.058 22.2942
L99.1552 22.2942
L98.8041 22.4189
L98.7024 22.747
L98.581 23.0948
L98.3546 23.3213
L98.2529 23.6494
L98.2529 25.4541
L98.3546 25.8019
L98.7024 25.9036
L99.0305 26.0283
L99.257 26.2547
L99.6048 26.3564
L99.9329 26.2547
L100.159 26.0283
L100.507 25.9036
L105.472 25.9036
L105.8 26.0283
L105.921 26.3564
L105.8 26.7042
L104.897 27.6066
L104.569 27.7116
L102.765 27.7116
L102.414 27.833
L102.19 28.0594
L101.862 28.1611
L98.2529 28.1611
L97.9018 28.2858
L97.6787 28.5089
L97.3505 28.6139
L96.8977 28.6139
L96.5499 28.5089
L96.0971 28.0594
L95.9954 27.7116
L95.9954 25.9036
L96.0971 25.5755
L96.3235 25.3523
L96.4482 25.0013
L96.4482 22.747
L96.5499 22.4189
L96.7763 22.1925
L96.8977 21.8447
L96.8977 18.6848
L96.7763 18.3567
L96.5499 18.1336
L96.4482 17.7825
L96.4482 17.333
L96.5499 17.0048
L97.4523 16.1025
L97.8001 15.9778
L98.1282 15.8761
L98.3546 15.6497
L98.7024 15.5283
L100.507 15.5283
L100.835 15.4266
L101.062 15.2002
L101.409 15.0755
L106.824 15.0755
L107.152 15.2002
L107.604 15.6497
L107.604 15.8761
z

M116.71 21.3919
L116.71 20.9423
L116.585 20.6142
L115.909 19.9383
L115.808 19.5872
L115.808 19.1377
L115.683 18.8095
L115.456 18.5831
L115.355 18.2353
L115.233 17.9072
L114.331 17.0048
L114.003 16.8802
L113.652 17.0048
L113.429 17.2313
L113.101 17.333
L112.749 17.4544
L112.648 17.7825
L112.648 18.2353
L112.526 18.5831
L112.3 18.8095
L112.198 19.1377
L112.198 20.4895
L112.074 20.8406
L111.847 21.0638
L111.745 21.3919
L111.745 21.8447
L111.847 22.1925
L112.3 22.6453
L112.648 22.747
L113.55 22.747
L113.878 22.6453
L114.105 22.4189
L114.452 22.2942
L114.781 22.1925
L115.007 21.9661
L115.355 21.8447
L116.257 21.8447
L116.585 21.743
z

M119.066 29.1881
L118.843 29.4113
L118.616 29.4113
L118.164 28.9617
L118.062 28.6139
L117.94 28.2858
L117.714 28.0594
L117.612 27.7116
L117.612 27.2588
L117.488 26.9306
L117.261 26.7042
L117.159 26.3564
L117.159 25.4541
L117.038 25.1259
L116.812 24.8995
L116.71 24.5517
L116.585 24.2236
L116.257 24.0989
L115.355 24.0989
L115.007 24.2236
L114.781 24.45
L114.452 24.5517
L114.003 24.5517
L113.652 24.6731
L113.429 24.8995
L113.101 25.0013
L112.198 25.0013
L111.847 25.1259
L111.398 25.5755
L111.296 25.9036
L111.296 26.8059
L111.171 27.157
L110.945 27.3834
L110.843 27.7116
L110.843 29.5163
L110.722 29.8641
L110.394 29.9658
L109.941 29.9658
L109.593 29.8641
L109.14 29.4113
L109.038 29.0634
L109.038 28.1611
L109.14 27.833
L109.366 27.6066
L109.491 27.2588
L109.491 21.8447
L109.593 21.5166
L109.819 21.2902
L109.941 20.9423
L109.941 20.04
L110.042 19.7119
L110.269 19.4855
L110.394 19.1377
L110.394 18.2353
L110.495 17.9072
L110.722 17.6808
L110.843 17.333
L110.945 17.0048
L113.202 14.7473
L113.55 14.6259
L114.905 14.6259
L115.233 14.7473
L116.136 15.6497
L116.257 15.9778
L116.359 16.3289
L117.038 17.0048
L117.159 17.333
L117.261 17.6808
L117.488 17.9072
L117.612 18.2353
L117.714 18.5831
L117.94 18.8095
L118.062 19.1377
L118.062 19.5872
L118.164 19.9383
L118.39 20.1614
L118.515 20.4895
L118.515 22.2942
L118.616 22.6453
L118.843 22.8684
L118.964 23.1966
L118.964 24.5517
L119.066 24.8995
L119.292 25.1259
L119.417 25.4541
L119.417 28.6139
L119.292 28.9617
z

M131.208 26.9306
L131.106 27.2588
L130.982 27.6066
L130.079 28.5089
L129.751 28.6139
L129.403 28.7353
L129.177 28.9617
L128.849 29.0634
L125.692 29.0634
L125.341 28.9617
L125.118 28.7353
L124.79 28.6139
L124.439 28.5089
L124.216 28.2858
L123.888 28.1611
L123.537 28.0594
L121.732 26.2547
L121.63 25.9036
L121.509 25.5755
L121.282 25.3523
L121.181 25.0013
L121.056 24.6731
L120.83 24.45
L120.728 24.0989
L120.728 21.3919
L120.83 21.0638
L121.056 20.8406
L121.181 20.4895
L121.282 20.1614
L121.958 19.4855
L122.083 19.1377
L122.185 18.8095
L124.892 16.1025
L125.24 15.9778
L125.568 15.8761
L125.794 15.6497
L126.142 15.5283
L126.595 15.5283
L126.923 15.4266
L127.146 15.2002
L127.497 15.0755
L127.947 15.0755
L128.275 15.2002
L128.501 15.4266
L128.849 15.5283
L129.177 15.6497
L130.079 16.552
L130.204 16.8802
L130.204 17.333
L130.079 17.6808
L129.63 18.1336
L129.403 18.1336
L128.727 17.4544
L128.399 17.333
L127.497 17.333
L127.146 17.4544
L126.923 17.6808
L126.595 17.7825
L126.244 17.9072
L123.989 20.1614
L123.888 20.4895
L123.763 20.8406
L123.537 21.0638
L123.435 21.3919
L123.313 21.743
L123.087 21.9661
L122.985 22.2942
L122.861 22.6453
L122.634 22.8684
L122.634 23.0948
L122.861 23.3213
L122.985 23.6494
L122.985 24.0989
L123.087 24.45
L123.763 25.1259
L123.888 25.4541
L123.989 25.8019
L124.892 26.7042
L125.24 26.8059
L125.568 26.9306
L125.794 27.157
L126.142 27.2588
L126.595 27.2588
L126.923 27.3834
L127.146 27.6066
L127.497 27.7116
L127.825 27.6066
L128.048 27.3834
L128.399 27.2588
L128.727 27.157
L129.403 26.4778
L129.751 26.3564
L130.079 26.2547
L130.204 25.9036
L130.306 25.5755
L130.654 25.4541
L131.106 25.4541
L131.435 25.5755
L131.556 25.9036
L131.556 26.3564
L131.435 26.7042
z
" style="stroke:#ffffff;stroke-width:4;"/>
                <path d="
M43.5167 26.9306
L43.415 27.2588
L43.2903 27.6066
L42.388 28.5089
L42.0598 28.6139
L41.712 28.7353
L41.4856 28.9617
L41.1575 29.0634
L38.0009 29.0634
L37.6498 28.9617
L37.4267 28.7353
L37.0986 28.6139
L36.7475 28.5089
L36.5244 28.2858
L36.1962 28.1611
L35.8452 28.0594
L34.0405 26.2547
L33.9387 25.9036
L33.8173 25.5755
L33.5909 25.3523
L33.4892 25.0013
L33.3645 24.6731
L33.1381 24.45
L33.0364 24.0989
L33.0364 21.3919
L33.1381 21.0638
L33.3645 20.8406
L33.4892 20.4895
L33.5909 20.1614
L34.2669 19.4855
L34.3916 19.1377
L34.4933 18.8095
L37.2003 16.1025
L37.5481 15.9778
L37.8762 15.8761
L38.1027 15.6497
L38.4505 15.5283
L38.9033 15.5283
L39.2314 15.4266
L39.4545 15.2002
L39.8056 15.0755
L40.2552 15.0755
L40.5833 15.2002
L40.8097 15.4266
L41.1575 15.5283
L41.4856 15.6497
L42.388 16.552
L42.5127 16.8802
L42.5127 17.333
L42.388 17.6808
L41.9384 18.1336
L41.712 18.1336
L41.0361 17.4544
L40.708 17.333
L39.8056 17.333
L39.4545 17.4544
L39.2314 17.6808
L38.9033 17.7825
L38.5522 17.9072
L36.298 20.1614
L36.1962 20.4895
L36.0716 20.8406
L35.8452 21.0638
L35.7434 21.3919
L35.622 21.743
L35.3956 21.9661
L35.2939 22.2942
L35.1692 22.6453
L34.9428 22.8684
L34.9428 23.0948
L35.1692 23.3213
L35.2939 23.6494
L35.2939 24.0989
L35.3956 24.45
L36.0716 25.1259
L36.1962 25.4541
L36.298 25.8019
L37.2003 26.7042
L37.5481 26.8059
L37.8762 26.9306
L38.1027 27.157
L38.4505 27.2588
L38.9033 27.2588
L39.2314 27.3834
L39.4545 27.6066
L39.8056 27.7116
L40.1337 27.6066
L40.3569 27.3834
L40.708 27.2588
L41.0361 27.157
L41.712 26.4778
L42.0598 26.3564
L42.388 26.2547
L42.5127 25.9036
L42.6144 25.5755
L42.9622 25.4541
L43.415 25.4541
L43.7431 25.5755
L43.8645 25.9036
L43.8645 26.3564
L43.7431 26.7042
z

M56.1069 22.8684
L56.0052 23.1966
L56.0052 28.1611
L55.8837 28.5089
L55.5556 28.6139
L55.2045 28.7353
L54.9814 28.9617
L54.755 28.9617
L54.6533 28.6139
L54.5286 28.2858
L54.3022 28.0594
L54.2005 27.7116
L54.2005 25.0013
L54.0791 24.6731
L53.7509 24.5517
L51.9462 24.5517
L51.5952 24.6731
L51.372 24.8995
L51.0439 25.0013
L48.3369 25.0013
L47.9858 25.1259
L47.7627 25.3523
L47.4345 25.4541
L47.0834 25.5755
L46.6339 26.0283
L46.5322 26.3564
L46.5322 29.5163
L46.4075 29.8641
L46.0794 29.9658
L45.7316 30.0905
L45.5052 30.3136
L45.2787 30.3136
L45.177 29.9658
L45.177 20.4895
L45.2787 20.1614
L45.5052 19.9383
L45.6298 19.5872
L45.6298 16.8802
L45.7316 16.552
L46.0794 16.4306
L46.5322 16.4306
L46.8603 16.552
L46.9817 16.8802
L46.9817 20.4895
L46.8603 20.8406
L46.6339 21.0638
L46.5322 21.3919
L46.5322 22.747
L46.6339 23.0948
L47.0834 23.5477
L47.4345 23.6494
L49.2392 23.6494
L49.5673 23.5477
L49.7905 23.3213
L50.1416 23.1966
L52.8486 23.1966
L53.1767 23.0948
L53.3998 22.8684
L53.7509 22.747
L54.0791 22.6453
L54.5286 22.1925
L54.6533 21.8447
L54.6533 17.7825
L54.755 17.4544
L55.1028 17.333
L55.4309 17.4544
L55.8837 17.9072
L56.0052 18.2353
L56.0052 21.8447
L56.1069 22.1925
L56.3333 22.4189
L56.3333 22.6453
z

M69.1515 16.1025
L68.4755 16.7784
L68.1474 16.8802
L64.0852 16.8802
L63.7374 17.0048
L63.511 17.2313
L63.1829 17.333
L61.831 17.333
L61.4799 17.4544
L60.5776 18.3567
L60.4759 18.6848
L60.4759 19.5872
L60.5776 19.9383
L61.0304 20.3878
L61.3782 20.4895
L65.8899 20.4895
L66.218 20.6142
L66.6709 21.0638
L66.6709 21.2902
L65.7685 22.1925
L65.4404 22.2942
L64.9876 22.2942
L64.6398 22.4189
L64.4134 22.6453
L64.0852 22.747
L62.7334 22.747
L62.3823 22.6453
L62.1591 22.4189
L61.831 22.2942
L60.9287 22.2942
L60.5776 22.4189
L60.4759 22.747
L60.3545 23.0948
L60.128 23.3213
L60.0263 23.6494
L60.0263 25.4541
L60.128 25.8019
L60.4759 25.9036
L60.804 26.0283
L61.0304 26.2547
L61.3782 26.3564
L61.7063 26.2547
L61.9327 26.0283
L62.2805 25.9036
L67.2451 25.9036
L67.5732 26.0283
L67.6946 26.3564
L67.5732 26.7042
L66.6709 27.6066
L66.3427 27.7116
L64.538 27.7116
L64.187 27.833
L63.9638 28.0594
L63.6357 28.1611
L60.0263 28.1611
L59.6752 28.2858
L59.4521 28.5089
L59.124 28.6139
L58.6712 28.6139
L58.3234 28.5089
L57.8705 28.0594
L57.7688 27.7116
L57.7688 25.9036
L57.8705 25.5755
L58.097 25.3523
L58.2216 25.0013
L58.2216 22.747
L58.3234 22.4189
L58.5498 22.1925
L58.6712 21.8447
L58.6712 18.6848
L58.5498 18.3567
L58.3234 18.1336
L58.2216 17.7825
L58.2216 17.333
L58.3234 17.0048
L59.2257 16.1025
L59.5735 15.9778
L59.9016 15.8761
L60.128 15.6497
L60.4759 15.5283
L62.2805 15.5283
L62.6087 15.4266
L62.8351 15.2002
L63.1829 15.0755
L68.597 15.0755
L68.9251 15.2002
L69.3779 15.6497
L69.3779 15.8761
z

M80.3898 27.833
L80.1634 28.0594
L79.8352 28.1611
L79.3857 28.1611
L79.0346 28.0594
L78.9329 27.7116
L78.9329 23.6494
L79.0346 23.3213
L79.261 23.0948
L79.3857 22.747
L79.3857 21.8447
L79.261 21.5166
L79.0346 21.2902
L78.9329 20.9423
L78.9329 19.1377
L78.8115 18.8095
L78.3587 18.3567
L78.0305 18.2353
L77.6827 18.3567
L77.581 18.6848
L77.4563 19.0359
L77.2299 19.2591
L77.1282 19.5872
L77.0068 19.9383
L76.3276 20.6142
L76.2259 20.9423
L76.1045 21.2902
L75.4252 21.9661
L75.3235 22.2942
L75.2021 22.6453
L74.874 22.747
L74.5229 22.6453
L74.0734 22.1925
L73.9716 21.8447
L73.847 21.5166
L73.5188 21.3919
L73.171 21.5166
L73.0693 21.8447
L73.0693 28.1611
L72.9446 28.5089
L72.6165 28.6139
L72.167 28.6139
L71.8159 28.5089
L71.7141 28.1611
L71.7141 27.7116
L71.5927 27.3834
L71.3663 27.157
L71.2646 26.8059
L71.2646 20.9423
L71.1399 20.6142
L70.9135 20.3878
L70.8118 20.04
L70.8118 16.8802
L70.9135 16.552
L71.3663 16.1025
L71.7141 15.9778
L72.0423 16.1025
L73.847 17.9072
L73.9716 18.2353
L73.9716 18.6848
L74.0734 19.0359
L74.5229 19.4855
L74.874 19.5872
L75.2021 19.4855
L75.6516 19.0359
L75.7763 18.6848
L75.878 18.3567
L76.1045 18.1336
L76.2259 17.7825
L76.3276 17.4544
L77.0068 16.7784
L77.1282 16.4306
L77.2299 16.1025
L78.5851 14.7473
L78.9329 14.6259
L79.261 14.7473
L79.7138 15.2002
L79.8352 15.5283
L79.8352 15.9778
L79.937 16.3289
L80.1634 16.552
L80.288 16.8802
L80.288 17.333
L80.3898 17.6808
L80.6162 17.9072
L80.7376 18.2353
L80.7376 27.2588
L80.6162 27.6066
z

M91.9759 20.4895
L91.9759 19.5872
L91.8545 19.2591
L91.4016 18.8095
L91.0735 18.6848
L90.624 18.6848
L90.2729 18.5831
L90.0498 18.3567
L89.7216 18.2353
L89.3705 18.1336
L89.1474 17.9072
L88.8193 17.7825
L86.1123 17.7825
L85.7612 17.9072
L85.538 18.1336
L85.2099 18.2353
L84.8588 18.3567
L83.9565 19.2591
L83.8548 19.5872
L83.9565 19.9383
L84.1829 20.1614
L84.3076 20.4895
L84.4093 20.8406
L84.6357 21.0638
L84.7571 21.3919
L84.7571 21.8447
L84.8588 22.1925
L85.3116 22.6453
L85.538 22.6453
L86.6635 21.5166
L87.0146 21.3919
L87.917 21.3919
L88.2451 21.2902
L88.4682 21.0638
L88.8193 20.9423
L91.5263 20.9423
L91.8545 20.8406
z

M94.3351 21.0638
L94.2334 21.3919
L94.1087 21.743
L93.7805 21.8447
L93.4327 21.9661
L93.2063 22.1925
L92.8782 22.2942
L92.5304 22.4189
L92.304 22.6453
L91.9759 22.747
L90.1712 22.747
L89.8234 22.8684
L89.3705 23.3213
L89.2688 23.6494
L89.2688 24.5517
L89.3705 24.8995
L89.7216 25.0013
L90.0498 25.1259
L93.2063 28.2858
L93.331 28.6139
L93.4327 28.9617
L93.6591 29.1881
L93.7805 29.5163
L93.6591 29.8641
L93.2063 30.3136
L92.8782 30.4186
L92.5304 30.3136
L91.8545 29.6377
L91.5263 29.5163
L91.1752 29.4113
L86.4404 24.6731
L86.214 24.6731
L86.1123 25.0013
L86.1123 27.2588
L85.9876 27.6066
L85.7612 27.833
L85.6595 28.1611
L85.538 28.5089
L85.0852 28.9617
L84.7571 29.0634
L84.3076 29.0634
L83.9565 28.9617
L83.8548 28.6139
L83.8548 28.1611
L83.9565 27.833
L84.1829 27.6066
L84.3076 27.2588
L84.3076 25.9036
L84.1829 25.5755
L83.9565 25.3523
L83.8548 25.0013
L83.8548 24.5517
L83.7334 24.2236
L83.507 23.9972
L83.4052 23.6494
L83.4052 23.1966
L83.2805 22.8684
L83.0541 22.6453
L82.9524 22.2942
L82.9524 21.8447
L82.831 21.5166
L82.6046 21.2902
L82.5029 20.9423
L82.5029 20.4895
L82.3782 20.1614
L82.1518 19.9383
L82.0501 19.5872
L82.0501 18.2353
L82.1518 17.9072
L83.9565 16.1025
L84.3076 15.9778
L84.7571 15.9778
L85.0852 15.8761
L85.3116 15.6497
L85.6595 15.5283
L89.2688 15.5283
L89.597 15.6497
L89.8234 15.8761
L90.1712 15.9778
L90.4993 16.1025
L90.7257 16.3289
L91.0735 16.4306
L91.4016 16.552
L91.628 16.7784
L91.9759 16.8802
L92.304 17.0048
L94.1087 18.8095
L94.2334 19.1377
L94.3351 19.4855
L94.5615 19.7119
L94.6829 20.04
L94.6829 20.4895
L94.5615 20.8406
z

M107.378 16.1025
L106.702 16.7784
L106.374 16.8802
L102.312 16.8802
L101.964 17.0048
L101.738 17.2313
L101.409 17.333
L100.058 17.333
L99.7065 17.4544
L98.8041 18.3567
L98.7024 18.6848
L98.7024 19.5872
L98.8041 19.9383
L99.257 20.3878
L99.6048 20.4895
L104.116 20.4895
L104.445 20.6142
L104.897 21.0638
L104.897 21.2902
L103.995 22.1925
L103.667 22.2942
L103.214 22.2942
L102.866 22.4189
L102.64 22.6453
L102.312 22.747
L100.96 22.747
L100.609 22.6453
L100.386 22.4189
L100.058 22.2942
L99.1552 22.2942
L98.8041 22.4189
L98.7024 22.747
L98.581 23.0948
L98.3546 23.3213
L98.2529 23.6494
L98.2529 25.4541
L98.3546 25.8019
L98.7024 25.9036
L99.0305 26.0283
L99.257 26.2547
L99.6048 26.3564
L99.9329 26.2547
L100.159 26.0283
L100.507 25.9036
L105.472 25.9036
L105.8 26.0283
L105.921 26.3564
L105.8 26.7042
L104.897 27.6066
L104.569 27.7116
L102.765 27.7116
L102.414 27.833
L102.19 28.0594
L101.862 28.1611
L98.2529 28.1611
L97.9018 28.2858
L97.6787 28.5089
L97.3505 28.6139
L96.8977 28.6139
L96.5499 28.5089
L96.0971 28.0594
L95.9954 27.7116
L95.9954 25.9036
L96.0971 25.5755
L96.3235 25.3523
L96.4482 25.0013
L96.4482 22.747
L96.5499 22.4189
L96.7763 22.1925
L96.8977 21.8447
L96.8977 18.6848
L96.7763 18.3567
L96.5499 18.1336
L96.4482 17.7825
L96.4482 17.333
L96.5499 17.0048
L97.4523 16.1025
L97.8001 15.9778
L98.1282 15.8761
L98.3546 15.6497
L98.7024 15.5283
L100.507 15.5283
L100.835 15.4266
L101.062 15.2002
L101.409 15.0755
L106.824 15.0755
L107.152 15.2002
L107.604 15.6497
L107.604 15.8761
z

M116.71 21.3919
L116.71 20.9423
L116.585 20.6142
L115.909 19.9383
L115.808 19.5872
L115.808 19.1377
L115.683 18.8095
L115.456 18.5831
L115.355 18.2353
L115.233 17.9072
L114.331 17.0048
L114.003 16.8802
L113.652 17.0048
L113.429 17.2313
L113.101 17.333
L112.749 17.4544
L112.648 17.7825
L112.648 18.2353
L112.526 18.5831
L112.3 18.8095
L112.198 19.1377
L112.198 20.4895
L112.074 20.8406
L111.847 21.0638
L111.745 21.3919
L111.745 21.8447
L111.847 22.1925
L112.3 22.6453
L112.648 22.747
L113.55 22.747
L113.878 22.6453
L114.105 22.4189
L114.452 22.2942
L114.781 22.1925
L115.007 21.9661
L115.355 21.8447
L116.257 21.8447
L116.585 21.743
z

M119.066 29.1881
L118.843 29.4113
L118.616 29.4113
L118.164 28.9617
L118.062 28.6139
L117.94 28.2858
L117.714 28.0594
L117.612 27.7116
L117.612 27.2588
L117.488 26.9306
L117.261 26.7042
L117.159 26.3564
L117.159 25.4541
L117.038 25.1259
L116.812 24.8995
L116.71 24.5517
L116.585 24.2236
L116.257 24.0989
L115.355 24.0989
L115.007 24.2236
L114.781 24.45
L114.452 24.5517
L114.003 24.5517
L113.652 24.6731
L113.429 24.8995
L113.101 25.0013
L112.198 25.0013
L111.847 25.1259
L111.398 25.5755
L111.296 25.9036
L111.296 26.8059
L111.171 27.157
L110.945 27.3834
L110.843 27.7116
L110.843 29.5163
L110.722 29.8641
L110.394 29.9658
L109.941 29.9658
L109.593 29.8641
L109.14 29.4113
L109.038 29.0634
L109.038 28.1611
L109.14 27.833
L109.366 27.6066
L109.491 27.2588
L109.491 21.8447
L109.593 21.5166
L109.819 21.2902
L109.941 20.9423
L109.941 20.04
L110.042 19.7119
L110.269 19.4855
L110.394 19.1377
L110.394 18.2353
L110.495 17.9072
L110.722 17.6808
L110.843 17.333
L110.945 17.0048
L113.202 14.7473
L113.55 14.6259
L114.905 14.6259
L115.233 14.7473
L116.136 15.6497
L116.257 15.9778
L116.359 16.3289
L117.038 17.0048
L117.159 17.333
L117.261 17.6808
L117.488 17.9072
L117.612 18.2353
L117.714 18.5831
L117.94 18.8095
L118.062 19.1377
L118.062 19.5872
L118.164 19.9383
L118.39 20.1614
L118.515 20.4895
L118.515 22.2942
L118.616 22.6453
L118.843 22.8684
L118.964 23.1966
L118.964 24.5517
L119.066 24.8995
L119.292 25.1259
L119.417 25.4541
L119.417 28.6139
L119.292 28.9617
z

M131.208 26.9306
L131.106 27.2588
L130.982 27.6066
L130.079 28.5089
L129.751 28.6139
L129.403 28.7353
L129.177 28.9617
L128.849 29.0634
L125.692 29.0634
L125.341 28.9617
L125.118 28.7353
L124.79 28.6139
L124.439 28.5089
L124.216 28.2858
L123.888 28.1611
L123.537 28.0594
L121.732 26.2547
L121.63 25.9036
L121.509 25.5755
L121.282 25.3523
L121.181 25.0013
L121.056 24.6731
L120.83 24.45
L120.728 24.0989
L120.728 21.3919
L120.83 21.0638
L121.056 20.8406
L121.181 20.4895
L121.282 20.1614
L121.958 19.4855
L122.083 19.1377
L122.185 18.8095
L124.892 16.1025
L125.24 15.9778
L125.568 15.8761
L125.794 15.6497
L126.142 15.5283
L126.595 15.5283
L126.923 15.4266
L127.146 15.2002
L127.497 15.0755
L127.947 15.0755
L128.275 15.2002
L128.501 15.4266
L128.849 15.5283
L129.177 15.6497
L130.079 16.552
L130.204 16.8802
L130.204 17.333
L130.079 17.6808
L129.63 18.1336
L129.403 18.1336
L128.727 17.4544
L128.399 17.333
L127.497 17.333
L127.146 17.4544
L126.923 17.6808
L126.595 17.7825
L126.244 17.9072
L123.989 20.1614
L123.888 20.4895
L123.763 20.8406
L123.537 21.0638
L123.435 21.3919
L123.313 21.743
L123.087 21.9661
L122.985 22.2942
L122.861 22.6453
L122.634 22.8684
L122.634 23.0948
L122.861 23.3213
L122.985 23.6494
L122.985 24.0989
L123.087 24.45
L123.763 25.1259
L123.888 25.4541
L123.989 25.8019
L124.892 26.7042
L125.24 26.8059
L125.568 26.9306
L125.794 27.157
L126.142 27.2588
L126.595 27.2588
L126.923 27.3834
L127.146 27.6066
L127.497 27.7116
L127.825 27.6066
L128.048 27.3834
L128.399 27.2588
L128.727 27.157
L129.403 26.4778
L129.751 26.3564
L130.079 26.2547
L130.204 25.9036
L130.306 25.5755
L130.654 25.4541
L131.106 25.4541
L131.435 25.5755
L131.556 25.9036
L131.556 26.3564
L131.435 26.7042
z
"/>
                <g id="legend_1">
                 <g id="patch_7">
                  <path d="
M79.2053 95.7997
L121.163 95.7997
L121.163 51.4278
L79.2053 51.4278
z
" style="fill:#ffffff;stroke:#ffffff;stroke-linejoin:miter;stroke-width:4;"/>
                  <path d="
M79.2053 95.7997
L121.163 95.7997
L121.163 51.4278
L79.2053 51.4278
z
" style="fill:#ffffff;stroke:#000000;stroke-linejoin:miter;"/>
                  <path d="
M86.2053 58.9278
L100.205 58.9278" style="fill:none;stroke:#ffffff;stroke-linecap:square;stroke-width:4;"/>
                  <path d="
M86.2053 58.9278
L100.205 58.9278" style="fill:none;stroke:#ff0000;stroke-linecap:square;stroke-width:2.0;"/>
                  <g id="text_8">
                   <path d="
M115.385 60.9231
L115.385 59.8497
L115.327 59.6934
L115.219 59.5856
L115.171 59.42
L115.112 59.2638
L115.004 59.1559
L114.955 58.9903
L114.897 58.8341
L114.468 58.4044
L114.36 58.4044
L114.144 58.6184
L114.096 58.7747
L114.038 58.9419
L113.715 59.2638
L113.666 59.42
L113.666 59.6341
L113.608 59.8013
L113.501 59.9075
L113.452 60.0638
L113.393 60.2309
L113.285 60.3372
L113.237 60.4934
L113.237 61.1388
L113.285 61.3044
L113.452 61.3528
L114.955 61.3528
L115.112 61.3044
L115.327 61.0903
z

M116.293 63.3466
L116.187 63.4528
L116.03 63.5028
L115.815 63.5028
L115.649 63.4528
L115.601 63.2872
L115.601 62.4278
L115.541 62.2716
L115.327 62.0559
L115.171 61.9981
L114.741 61.9981
L114.574 62.0559
L114.468 62.1638
L114.312 62.2122
L114.144 62.1638
L114.038 62.0559
L113.882 61.9981
L113.237 61.9981
L113.071 62.0559
L112.641 62.4872
L112.593 62.6434
L112.593 63.5028
L112.533 63.6684
L112.426 63.7763
L112.377 63.9325
L112.319 64.0981
L112.163 64.1466
L111.947 64.1466
L111.782 64.0981
L111.566 63.8825
L111.518 63.7169
L111.566 63.5606
L111.674 63.4528
L111.733 63.2872
L111.733 62.8575
L111.782 62.7013
L111.89 62.5934
L111.947 62.4278
L111.947 61.9981
L111.996 61.8419
L112.104 61.7341
L112.163 61.5684
L112.163 61.3528
L112.212 61.1966
L112.319 61.0903
L112.377 60.9231
L112.377 60.4934
L112.426 60.3372
L112.533 60.2309
L112.593 60.0638
L112.641 59.9075
L112.749 59.8013
L112.807 59.6341
L112.807 59.42
L112.855 59.2638
L112.963 59.1559
L113.022 58.9903
L113.022 58.7747
L113.071 58.6184
L113.393 58.2966
L113.452 58.1309
L113.501 57.9747
L113.93 57.545
L114.096 57.4856
L114.252 57.4372
L114.36 57.3294
L114.468 57.3294
L114.574 57.4372
L114.741 57.4856
L114.897 57.545
L115.757 58.4044
L115.815 58.5606
L115.815 58.7747
L115.863 58.9419
L115.971 59.0481
L116.03 59.2044
L116.079 59.3716
L116.187 59.4778
L116.244 59.6341
L116.244 61.5684
L116.293 61.7341
L116.401 61.8419
L116.46 61.9981
L116.46 63.0731
L116.401 63.2388
z
" style="stroke:#ffffff;stroke-width:4;"/>
                   <path d="
M115.385 60.9231
L115.385 59.8497
L115.327 59.6934
L115.219 59.5856
L115.171 59.42
L115.112 59.2638
L115.004 59.1559
L114.955 58.9903
L114.897 58.8341
L114.468 58.4044
L114.36 58.4044
L114.144 58.6184
L114.096 58.7747
L114.038 58.9419
L113.715 59.2638
L113.666 59.42
L113.666 59.6341
L113.608 59.8013
L113.501 59.9075
L113.452 60.0638
L113.393 60.2309
L113.285 60.3372
L113.237 60.4934
L113.237 61.1388
L113.285 61.3044
L113.452 61.3528
L114.955 61.3528
L115.112 61.3044
L115.327 61.0903
z

M116.293 63.3466
L116.187 63.4528
L116.03 63.5028
L115.815 63.5028
L115.649 63.4528
L115.601 63.2872
L115.601 62.4278
L115.541 62.2716
L115.327 62.0559
L115.171 61.9981
L114.741 61.9981
L114.574 62.0559
L114.468 62.1638
L114.312 62.2122
L114.144 62.1638
L114.038 62.0559
L113.882 61.9981
L113.237 61.9981
L113.071 62.0559
L112.641 62.4872
L112.593 62.6434
L112.593 63.5028
L112.533 63.6684
L112.426 63.7763
L112.377 63.9325
L112.319 64.0981
L112.163 64.1466
L111.947 64.1466
L111.782 64.0981
L111.566 63.8825
L111.518 63.7169
L111.566 63.5606
L111.674 63.4528
L111.733 63.2872
L111.733 62.8575
L111.782 62.7013
L111.89 62.5934
L111.947 62.4278
L111.947 61.9981
L111.996 61.8419
L112.104 61.7341
L112.163 61.5684
L112.163 61.3528
L112.212 61.1966
L112.319 61.0903
L112.377 60.9231
L112.377 60.4934
L112.426 60.3372
L112.533 60.2309
L112.593 60.0638
L112.641 59.9075
L112.749 59.8013
L112.807 59.6341
L112.807 59.42
L112.855 59.2638
L112.963 59.1559
L113.022 58.9903
L113.022 58.7747
L113.071 58.6184
L113.393 58.2966
L113.452 58.1309
L113.501 57.9747
L113.93 57.545
L114.096 57.4856
L114.252 57.4372
L114.36 57.3294
L114.468 57.3294
L114.574 57.4372
L114.741 57.4856
L114.897 57.545
L115.757 58.4044
L115.815 58.5606
L115.815 58.7747
L115.863 58.9419
L115.971 59.0481
L116.03 59.2044
L116.079 59.3716
L116.187 59.4778
L116.244 59.6341
L116.244 61.5684
L116.293 61.7341
L116.401 61.8419
L116.46 61.9981
L116.46 63.0731
L116.401 63.2388
z
"/>
                   <path d="
M86.2053 72.6466
L100.205 72.6466" style="fill:none;stroke:#ffffff;stroke-linecap:square;stroke-width:4;"/>
                   <path d="
M86.2053 72.6466
L100.205 72.6466" style="fill:none;stroke:#0000ff;stroke-linecap:square;stroke-width:2.0;"/>
                   <g id="text_9">
                    <path d="
M115.601 72.9231
L115.601 72.0638
L115.541 71.9075
L115.385 71.8497
L113.237 71.8497
L113.071 71.9075
L112.641 72.3372
L112.593 72.4934
L112.641 72.6606
L112.749 72.7669
L112.807 72.9231
L112.807 73.5684
L112.855 73.7341
L113.022 73.7825
L113.179 73.7341
L113.285 73.6263
L113.452 73.5684
L114.741 73.5684
L114.897 73.52
L115.219 73.1966
L115.385 73.1388
L115.541 73.0903
z

M115.757 75.9903
L115.649 75.8825
L115.601 75.7169
L115.541 75.5606
L114.897 74.9153
L114.741 74.8575
L114.574 74.8091
L114.468 74.7013
L114.312 74.6419
L114.096 74.6419
L113.93 74.5934
L113.822 74.4856
L113.666 74.4278
L113.237 74.4278
L113.071 74.4856
L113.022 74.6419
L113.022 76.5763
L113.071 76.7419
L113.285 76.9575
L113.452 77.0059
L113.882 77.0059
L114.038 76.9575
L114.144 76.8497
L114.312 76.7919
L114.955 76.7919
L115.112 76.7419
L115.219 76.6356
L115.385 76.5763
L115.541 76.5278
L115.601 76.3622
L115.649 76.2059
L115.757 76.0981
z

M116.508 76.42
L116.46 76.5763
L116.401 76.7419
L116.244 76.7919
L116.079 76.8497
L115.757 77.1716
L115.601 77.2216
L115.433 77.2794
L115.327 77.3872
L115.171 77.4356
L114.955 77.4356
L114.79 77.495
L114.682 77.6013
L114.526 77.6513
L113.022 77.6513
L112.855 77.6013
L112.749 77.495
L112.593 77.4356
L112.426 77.3872
L112.212 77.1716
L112.163 77.0059
L112.163 73.9981
L112.104 73.8419
L111.996 73.7341
L111.947 73.5684
L111.947 73.1388
L111.89 72.9825
L111.782 72.8747
L111.733 72.7091
L111.733 72.4934
L111.674 72.3372
L111.566 72.2309
L111.518 72.0638
L111.566 71.9075
L111.733 71.8497
L111.89 71.8013
L112.426 71.2638
L112.593 71.2044
L113.237 71.2044
L113.393 71.1559
L113.501 71.0481
L113.666 70.9903
L115.171 70.9903
L115.327 71.0481
L115.433 71.1559
L115.601 71.2044
L115.815 71.2044
L115.971 71.2638
L116.401 71.6934
L116.46 71.8497
L116.508 72.0153
L116.616 72.1231
L116.674 72.2794
L116.616 72.445
L116.508 72.5528
L116.46 72.7091
L116.401 72.8747
L116.293 72.9825
L116.244 73.1388
L116.187 73.3044
L115.757 73.7341
L115.601 73.7825
L115.433 73.8419
L115.385 73.9981
L115.385 74.2122
L115.433 74.3794
L115.649 74.5934
L115.815 74.6419
L115.971 74.7013
L116.187 74.9153
L116.244 75.0716
L116.293 75.2388
L116.401 75.345
L116.46 75.5013
L116.508 75.6684
L116.616 75.7747
L116.674 75.9309
L116.674 76.1466
L116.616 76.3122
z
" style="stroke:#ffffff;stroke-width:4;"/>
                    <path d="
M115.601 72.9231
L115.601 72.0638
L115.541 71.9075
L115.385 71.8497
L113.237 71.8497
L113.071 71.9075
L112.641 72.3372
L112.593 72.4934
L112.641 72.6606
L112.749 72.7669
L112.807 72.9231
L112.807 73.5684
L112.855 73.7341
L113.022 73.7825
L113.179 73.7341
L113.285 73.6263
L113.452 73.5684
L114.741 73.5684
L114.897 73.52
L115.219 73.1966
L115.385 73.1388
L115.541 73.0903
z

M115.757 75.9903
L115.649 75.8825
L115.601 75.7169
L115.541 75.5606
L114.897 74.9153
L114.741 74.8575
L114.574 74.8091
L114.468 74.7013
L114.312 74.6419
L114.096 74.6419
L113.93 74.5934
L113.822 74.4856
L113.666 74.4278
L113.237 74.4278
L113.071 74.4856
L113.022 74.6419
L113.022 76.5763
L113.071 76.7419
L113.285 76.9575
L113.452 77.0059
L113.882 77.0059
L114.038 76.9575
L114.144 76.8497
L114.312 76.7919
L114.955 76.7919
L115.112 76.7419
L115.219 76.6356
L115.385 76.5763
L115.541 76.5278
L115.601 76.3622
L115.649 76.2059
L115.757 76.0981
z

M116.508 76.42
L116.46 76.5763
L116.401 76.7419
L116.244 76.7919
L116.079 76.8497
L115.757 77.1716
L115.601 77.2216
L115.433 77.2794
L115.327 77.3872
L115.171 77.4356
L114.955 77.4356
L114.79 77.495
L114.682 77.6013
L114.526 77.6513
L113.022 77.6513
L112.855 77.6013
L112.749 77.495
L112.593 77.4356
L112.426 77.3872
L112.212 77.1716
L112.163 77.0059
L112.163 73.9981
L112.104 73.8419
L111.996 73.7341
L111.947 73.5684
L111.947 73.1388
L111.89 72.9825
L111.782 72.8747
L111.733 72.7091
L111.733 72.4934
L111.674 72.3372
L111.566 72.2309
L111.518 72.0638
L111.566 71.9075
L111.733 71.8497
L111.89 71.8013
L112.426 71.2638
L112.593 71.2044
L113.237 71.2044
L113.393 71.1559
L113.501 71.0481
L113.666 70.9903
L115.171 70.9903
L115.327 71.0481
L115.433 71.1559
L115.601 71.2044
L115.815 71.2044
L115.971 71.2638
L116.401 71.6934
L116.46 71.8497
L116.508 72.0153
L116.616 72.1231
L116.674 72.2794
L116.616 72.445
L116.508 72.5528
L116.46 72.7091
L116.401 72.8747
L116.293 72.9825
L116.244 73.1388
L116.187 73.3044
L115.757 73.7341
L115.601 73.7825
L115.433 73.8419
L115.385 73.9981
L115.385 74.2122
L115.433 74.3794
L115.649 74.5934
L115.815 74.6419
L115.971 74.7013
L116.187 74.9153
L116.244 75.0716
L116.293 75.2388
L116.401 75.345
L116.46 75.5013
L116.508 75.6684
L116.616 75.7747
L116.674 75.9309
L116.674 76.1466
L116.616 76.3122
z
"/>
                    <path d="
M86.2053 86.3653
L100.205 86.3653" style="fill:none;stroke:#ffffff;stroke-linecap:square;stroke-width:4;"/>
                    <path d="
M86.2053 86.3653
L100.205 86.3653" style="fill:none;stroke:#008000;stroke-linecap:square;stroke-width:2.0;"/>
                    <g id="text_10">
                     <path d="
M117.368 90.3544
L117.26 90.4606
L117.104 90.5106
L116.938 90.5684
L116.508 90.9981
L116.46 91.1544
L116.401 91.32
L116.244 91.37
L116.079 91.4278
L115.757 91.7497
L115.601 91.7997
L113.666 91.7997
L113.501 91.7497
L113.393 91.6434
L113.237 91.5841
L113.071 91.5356
L112.963 91.4278
L112.807 91.37
L112.641 91.32
L112.212 90.8903
L112.163 90.7247
L112.104 90.5684
L111.996 90.4606
L111.947 90.295
L111.89 90.1388
L111.782 90.0309
L111.733 89.8653
L111.733 89.6497
L111.674 89.4934
L111.566 89.3872
L111.518 89.22
L111.518 88.1466
L111.566 87.9903
L111.674 87.8825
L111.733 87.7169
L111.733 87.0716
L111.782 86.9153
L111.89 86.8091
L111.947 86.6419
L111.996 86.4856
L112.104 86.3794
L112.163 86.2122
L112.212 86.0559
L112.533 85.7341
L112.593 85.5684
L112.641 85.4122
L113.285 84.7669
L113.452 84.7091
L113.608 84.6606
L113.715 84.5528
L113.882 84.4934
L114.038 84.445
L114.144 84.3372
L114.312 84.2794
L115.385 84.2794
L115.541 84.3372
L115.649 84.445
L115.815 84.4934
L115.971 84.5528
L116.03 84.7091
L116.079 84.8747
L116.187 84.9825
L116.244 85.1388
L116.244 85.3528
L116.187 85.52
L115.971 85.7341
L115.815 85.7825
L115.649 85.7341
L115.112 85.1966
L114.955 85.1388
L114.79 85.1966
L114.682 85.3044
L114.526 85.3528
L114.36 85.4122
L113.285 86.4856
L113.237 86.6419
L113.179 86.8091
L112.855 87.1309
L112.807 87.2872
L112.807 87.5013
L112.749 87.6684
L112.426 87.9903
L112.377 88.1466
L112.377 88.7903
L112.426 88.9575
L112.533 89.0638
L112.593 89.22
L112.593 89.4356
L112.641 89.6013
L112.963 89.9247
L113.022 90.0809
L113.071 90.2466
L113.285 90.4606
L113.452 90.5106
L113.608 90.5684
L113.93 90.8903
L114.096 90.9403
L114.312 90.9403
L114.468 90.9981
L114.574 91.1059
L114.741 91.1544
L114.955 91.1544
L115.112 91.1059
L115.649 90.5684
L115.815 90.5106
L115.971 90.4606
L116.03 90.295
L116.079 90.1388
L116.508 89.7091
L116.674 89.6497
L116.89 89.6497
L117.046 89.7091
L117.476 90.1388
L117.476 90.2466
z
" style="stroke:#ffffff;stroke-width:4;"/>
                     <path d="
M117.368 90.3544
L117.26 90.4606
L117.104 90.5106
L116.938 90.5684
L116.508 90.9981
L116.46 91.1544
L116.401 91.32
L116.244 91.37
L116.079 91.4278
L115.757 91.7497
L115.601 91.7997
L113.666 91.7997
L113.501 91.7497
L113.393 91.6434
L113.237 91.5841
L113.071 91.5356
L112.963 91.4278
L112.807 91.37
L112.641 91.32
L112.212 90.8903
L112.163 90.7247
L112.104 90.5684
L111.996 90.4606
L111.947 90.295
L111.89 90.1388
L111.782 90.0309
L111.733 89.8653
L111.733 89.6497
L111.674 89.4934
L111.566 89.3872
L111.518 89.22
L111.518 88.1466
L111.566 87.9903
L111.674 87.8825
L111.733 87.7169
L111.733 87.0716
L111.782 86.9153
L111.89 86.8091
L111.947 86.6419
L111.996 86.4856
L112.104 86.3794
L112.163 86.2122
L112.212 86.0559
L112.533 85.7341
L112.593 85.5684
L112.641 85.4122
L113.285 84.7669
L113.452 84.7091
L113.608 84.6606
L113.715 84.5528
L113.882 84.4934
L114.038 84.445
L114.144 84.3372
L114.312 84.2794
L115.385 84.2794
L115.541 84.3372
L115.649 84.445
L115.815 84.4934
L115.971 84.5528
L116.03 84.7091
L116.079 84.8747
L116.187 84.9825
L116.244 85.1388
L116.244 85.3528
L116.187 85.52
L115.971 85.7341
L115.815 85.7825
L115.649 85.7341
L115.112 85.1966
L114.955 85.1388
L114.79 85.1966
L114.682 85.3044
L114.526 85.3528
L114.36 85.4122
L113.285 86.4856
L113.237 86.6419
L113.179 86.8091
L112.855 87.1309
L112.807 87.2872
L112.807 87.5013
L112.749 87.6684
L112.426 87.9903
L112.377 88.1466
L112.377 88.7903
L112.426 88.9575
L112.533 89.0638
L112.593 89.22
L112.593 89.4356
L112.641 89.6013
L112.963 89.9247
L113.022 90.0809
L113.071 90.2466
L113.285 90.4606
L113.452 90.5106
L113.608 90.5684
L113.93 90.8903
L114.096 90.9403
L114.312 90.9403
L114.468 90.9981
L114.574 91.1059
L114.741 91.1544
L114.955 91.1544
L115.112 91.1059
L115.649 90.5684
L115.815 90.5106
L115.971 90.4606
L116.03 90.295
L116.079 90.1388
L116.508 89.7091
L116.674 89.6497
L116.89 89.6497
L117.046 89.7091
L117.476 90.1388
L117.476 90.2466
z
"/>
                    </g>
                   </g>
                  </g>
                  <defs>
                   <clipPath id="pcefeed6d72">
                    <rect height="82.71" width="89.043125" x="37.12" y="32.25875"/>
                   </clipPath>
                  </defs>
                 </g>
                </g>
               </g>
              </g>
             </g>
            </g>
           </g>
          </g>
         </g>
        </g>
       </g>
      </g>
     </g>
    </g>
   </g>
  </g>
 </g>
</svg>
