<?xml version="1.0" encoding="utf-8" standalone="no"?>
<!DOCTYPE svg PUBLIC "-//W3C//DTD SVG 1.1//EN"
  "http://www.w3.org/Graphics/SVG/1.1/DTD/svg11.dtd">
<!-- Created with matplotlib (http://matplotlib.org/) -->
<svg height="144pt" version="1.1" viewBox="0 0 144 144" width="144pt" xmlns="http://www.w3.org/2000/svg" xmlns:xlink="http://www.w3.org/1999/xlink">
 <defs>
  <style type="text/css">
*{stroke-linecap:butt;stroke-linejoin:round;}
  </style>
 </defs>
 <g id="figure_1">
  <g id="patch_1">
   <path d="
M0 144
L144 144
L144 0
L0 0
z
" style="fill:#ffffff;stroke:#ffffff;stroke-linejoin:miter;stroke-width:4;"/>
   <path d="
M0 144
L144 144
L144 0
L0 0
z
" style="fill:#ffffff;"/>
   <g id="axes_1">
    <g id="patch_2">
     <path d="
M37.12 114.969
L126.163 114.969
L126.163 30.56
L37.12 30.56
z
" style="fill:#ffffff;stroke:#ffffff;stroke-linejoin:miter;stroke-width:4;"/>
     <path d="
M37.12 114.969
L126.163 114.969
L126.163 30.56
L37.12 30.56
z
" style="fill:#ffffff;"/>
     <path clip-path="url(#p4e8784dd9a)" d="
M37.12 30.56
L38.4691 38.8401
L39.8183 46.308
L41.1674 53.0434
L42.5166 59.118
L43.8657 64.5967
L45.2148 69.538
L46.564 73.9946
L47.9131 78.014
L49.2622 81.6391
L50.6114 84.9086
L51.9605 87.8573
L53.3097 90.5169
L54.6588 92.9155
L56.0079 95.0788
L57.3571 97.0299
L58.7062 98.7897
L60.0554 100.377
L61.4045 101.808
L62.7536 103.099
L64.1028 104.264
L65.4519 105.314
L66.801 106.261
L68.1502 107.115
L69.4993 107.885
L70.8485 108.58
L72.1976 109.207
L73.5467 109.772
L74.8959 110.282
L76.245 110.742
L77.5941 111.156
L78.9433 111.53
L80.2924 111.868
L81.6416 112.172
L82.9907 112.446
L84.3398 112.694
L85.689 112.917
L87.0381 113.118
L88.3873 113.3
L89.7364 113.463
L91.0855 113.611
L92.4347 113.744
L93.7838 113.864
L95.1329 113.973
L96.4821 114.07
L97.8312 114.159
L99.1804 114.238
L100.529 114.31
L101.879 114.374
L103.228 114.433
L104.577 114.485
L105.926 114.533
L107.275 114.575
L108.624 114.614
L109.973 114.649
L111.323 114.68
L112.672 114.709
L114.021 114.734
L115.37 114.757
L116.719 114.778
L118.068 114.797
L119.417 114.813
L120.767 114.829
L122.116 114.842
L123.465 114.855
L124.814 114.866
L126.163 114.876" style="fill:none;stroke:#ffffff;stroke-linecap:square;stroke-width:4;"/>
     <path clip-path="url(#p4e8784dd9a)" d="
M37.12 30.56
L38.4691 38.8401
L39.8183 46.308
L41.1674 53.0434
L42.5166 59.118
L43.8657 64.5967
L45.2148 69.538
L46.564 73.9946
L47.9131 78.014
L49.2622 81.6391
L50.6114 84.9086
L51.9605 87.8573
L53.3097 90.5169
L54.6588 92.9155
L56.0079 95.0788
L57.3571 97.0299
L58.7062 98.7897
L60.0554 100.377
L61.4045 101.808
L62.7536 103.099
L64.1028 104.264
L65.4519 105.314
L66.801 106.261
L68.1502 107.115
L69.4993 107.885
L70.8485 108.58
L72.1976 109.207
L73.5467 109.772
L74.8959 110.282
L76.245 110.742
L77.5941 111.156
L78.9433 111.53
L80.2924 111.868
L81.6416 112.172
L82.9907 112.446
L84.3398 112.694
L85.689 112.917
L87.0381 113.118
L88.3873 113.3
L89.7364 113.463
L91.0855 113.611
L92.4347 113.744
L93.7838 113.864
L95.1329 113.973
L96.4821 114.07
L97.8312 114.159
L99.1804 114.238
L100.529 114.31
L101.879 114.374
L103.228 114.433
L104.577 114.485
L105.926 114.533
L107.275 114.575
L108.624 114.614
L109.973 114.649
L111.323 114.68
L112.672 114.709
L114.021 114.734
L115.37 114.757
L116.719 114.778
L118.068 114.797
L119.417 114.813
L120.767 114.829
L122.116 114.842
L123.465 114.855
L124.814 114.866
L126.163 114.876" style="fill:none;stroke:#ff0000;stroke-linecap:square;stroke-width:2.0;"/>
     <path clip-path="url(#p4e8784dd9a)" d="
M37.12 114.969
L38.4691 107.179
L39.8183 101.042
L41.1674 96.2956
L42.5166 92.7123
L43.8657 90.0987
L45.2148 88.289
L46.564 87.1419
L47.9131 86.537
L49.2622 86.3722
L50.6114 86.5607
L51.9605 87.0294
L53.3097 87.7167
L54.6588 88.5711
L56.0079 89.5492
L57.3571 90.6154
L58.7062 91.7399
L60.0554 92.8984
L61.4045 94.0712
L62.7536 95.2422
L64.1028 96.3986
L65.4519 97.5305
L66.801 98.6301
L68.1502 99.6916
L69.4993 100.711
L70.8485 101.685
L72.1976 102.612
L73.5467 103.49
L74.8959 104.321
L76.245 105.104
L77.5941 105.84
L78.9433 106.53
L80.2924 107.176
L81.6416 107.78
L82.9907 108.342
L84.3398 108.866
L85.689 109.353
L87.0381 109.804
L88.3873 110.223
L89.7364 110.611
L91.0855 110.969
L92.4347 111.301
L93.7838 111.606
L95.1329 111.888
L96.4821 112.148
L97.8312 112.387
L99.1804 112.607
L100.529 112.809
L101.879 112.995
L103.228 113.165
L104.577 113.322
L105.926 113.465
L107.275 113.597
L108.624 113.717
L109.973 113.827
L111.323 113.928
L112.672 114.02
L114.021 114.104
L115.37 114.181
L116.719 114.252
L118.068 114.316
L119.417 114.375
L120.767 114.428
L122.116 114.477
L123.465 114.521
L124.814 114.562
L126.163 114.599" style="fill:none;stroke:#ffffff;stroke-linecap:square;stroke-width:4;"/>
     <path clip-path="url(#p4e8784dd9a)" d="
M37.12 114.969
L38.4691 107.179
L39.8183 101.042
L41.1674 96.2956
L42.5166 92.7123
L43.8657 90.0987
L45.2148 88.289
L46.564 87.1419
L47.9131 86.537
L49.2622 86.3722
L50.6114 86.5607
L51.9605 87.0294
L53.3097 87.7167
L54.6588 88.5711
L56.0079 89.5492
L57.3571 90.6154
L58.7062 91.7399
L60.0554 92.8984
L61.4045 94.0712
L62.7536 95.2422
L64.1028 96.3986
L65.4519 97.5305
L66.801 98.6301
L68.1502 99.6916
L69.4993 100.711
L70.8485 101.685
L72.1976 102.612
L73.5467 103.49
L74.8959 104.321
L76.245 105.104
L77.5941 105.84
L78.9433 106.53
L80.2924 107.176
L81.6416 107.78
L82.9907 108.342
L84.3398 108.866
L85.689 109.353
L87.0381 109.804
L88.3873 110.223
L89.7364 110.611
L91.0855 110.969
L92.4347 111.301
L93.7838 111.606
L95.1329 111.888
L96.4821 112.148
L97.8312 112.387
L99.1804 112.607
L100.529 112.809
L101.879 112.995
L103.228 113.165
L104.577 113.322
L105.926 113.465
L107.275 113.597
L108.624 113.717
L109.973 113.827
L111.323 113.928
L112.672 114.02
L114.021 114.104
L115.37 114.181
L116.719 114.252
L118.068 114.316
L119.417 114.375
L120.767 114.428
L122.116 114.477
L123.465 114.521
L124.814 114.562
L126.163 114.599" style="fill:none;stroke:#0000ff;stroke-linecap:square;stroke-width:2.0;"/>
     <path clip-path="url(#p4e8784dd9a)" d="
M37.12 114.969
L38.4691 114.478
L39.8183 113.147
L41.1674 111.158
L42.5166 108.667
L43.8657 105.802
L45.2148 102.671
L46.564 99.3611
L47.9131 95.9465
L49.2622 92.4863
L50.6114 89.0283
L51.9605 85.6108
L53.3097 82.2639
L54.6588 79.011
L56.0079 75.8695
L57.3571 72.8522
L58.7062 69.968
L60.0554 67.2223
L61.4045 64.6181
L62.7536 62.1562
L64.1028 59.8354
L65.4519 57.6533
L66.801 55.6066
L68.1502 53.6909
L69.4993 51.9013
L70.8485 50.2326
L72.1976 48.679
L73.5467 47.2349
L74.8959 45.8945
L76.245 44.6518
L77.5941 43.5011
L78.9433 42.4369
L80.2924 41.4536
L81.6416 40.5461
L82.9907 39.7092
L84.3398 38.9381
L85.689 38.2282
L87.0381 37.5751
L88.3873 36.9748
L89.7364 36.4234
L91.0855 35.9172
L92.4347 35.4527
L93.7838 35.0269
L95.1329 34.6366
L96.4821 34.2792
L97.8312 33.952
L99.1804 33.6525
L100.529 33.3787
L101.879 33.1283
L103.228 32.8995
L104.577 32.6906
L105.926 32.4997
L107.275 32.3256
L108.624 32.1666
L109.973 32.0216
L111.323 31.8895
L112.672 31.769
L114.021 31.6591
L115.37 31.5591
L116.719 31.468
L118.068 31.385
L119.417 31.3095
L120.767 31.2408
L122.116 31.1782
L123.465 31.1213
L124.814 31.0696
L126.163 31.0226" style="fill:none;stroke:#ffffff;stroke-linecap:square;stroke-width:4;"/>
     <path clip-path="url(#p4e8784dd9a)" d="
M37.12 114.969
L38.4691 114.478
L39.8183 113.147
L41.1674 111.158
L42.5166 108.667
L43.8657 105.802
L45.2148 102.671
L46.564 99.3611
L47.9131 95.9465
L49.2622 92.4863
L50.6114 89.0283
L51.9605 85.6108
L53.3097 82.2639
L54.6588 79.011
L56.0079 75.8695
L57.3571 72.8522
L58.7062 69.968
L60.0554 67.2223
L61.4045 64.6181
L62.7536 62.1562
L64.1028 59.8354
L65.4519 57.6533
L66.801 55.6066
L68.1502 53.6909
L69.4993 51.9013
L70.8485 50.2326
L72.1976 48.679
L73.5467 47.2349
L74.8959 45.8945
L76.245 44.6518
L77.5941 43.5011
L78.9433 42.4369
L80.2924 41.4536
L81.6416 40.5461
L82.9907 39.7092
L84.3398 38.9381
L85.689 38.2282
L87.0381 37.5751
L88.3873 36.9748
L89.7364 36.4234
L91.0855 35.9172
L92.4347 35.4527
L93.7838 35.0269
L95.1329 34.6366
L96.4821 34.2792
L97.8312 33.952
L99.1804 33.6525
L100.529 33.3787
L101.879 33.1283
L103.228 32.8995
L104.577 32.6906
L105.926 32.4997
L107.275 32.3256
L108.624 32.1666
L109.973 32.0216
L111.323 31.8895
L112.672 31.769
L114.021 31.6591
L115.37 31.5591
L116.719 31.468
L118.068 31.385
L119.417 31.3095
L120.767 31.2408
L122.116 31.1782
L123.465 31.1213
L124.814 31.0696
L126.163 31.0226" style="fill:none;stroke:#008000;stroke-linecap:square;stroke-width:2.0;"/>
     <g id="patch_3">
      <path d="
M37.12 30.56
L126.163 30.56" style="fill:none;stroke:#ffffff;stroke-linecap:square;stroke-linejoin:miter;stroke-width:4;"/>
      <path d="
M37.12 30.56
L126.163 30.56" style="fill:none;stroke:#000000;stroke-linecap:square;stroke-linejoin:miter;stroke-width:1.5;"/>
      <g id="patch_4">
       <path d="
M126.163 114.969
L126.163 30.56" style="fill:none;stroke:#ffffff;stroke-linecap:square;stroke-linejoin:miter;stroke-width:4;"/>
       <path d="
M126.163 114.969
L126.163 30.56" style="fill:none;stroke:#000000;stroke-linecap:square;stroke-linejoin:miter;stroke-width:1.5;"/>
       <g id="patch_5">
        <path d="
M37.12 114.969
L126.163 114.969" style="fill:none;stroke:#ffffff;stroke-linecap:square;stroke-linejoin:miter;stroke-width:4;"/>
        <path d="
M37.12 114.969
L126.163 114.969" style="fill:none;stroke:#000000;stroke-linecap:square;stroke-linejoin:miter;stroke-width:1.5;"/>
        <g id="patch_6">
         <path d="
M37.12 114.969
L37.12 30.56" style="fill:none;stroke:#ffffff;stroke-linecap:square;stroke-linejoin:miter;stroke-width:4;"/>
         <path d="
M37.12 114.969
L37.12 30.56" style="fill:none;stroke:#000000;stroke-linecap:square;stroke-linejoin:miter;stroke-width:1.5;"/>
         <g id="matplotlib.axis_1">
          <g id="xtick_1">
           <path d="
M37.12 114.969
L37.12 106.969" style="stroke:#ffffff;stroke-width:4;"/>
           <path d="
M37.12 114.969
L37.12 106.969" style="stroke:#000000;"/>
           <path d="
M37.12 30.56
L37.12 38.56" style="stroke:#ffffff;stroke-width:4;"/>
           <path d="
M37.12 30.56
L37.12 38.56" style="stroke:#000000;"/>
           <g id="text_1">
            <path d="
M39.8139 123.781
L39.8139 122.578
L39.7308 122.359
L38.5277 121.156
L38.3089 121.073
L38.077 121.156
L37.7752 121.456
L37.7073 121.675
L37.6264 121.909
L37.4755 121.909
L37.3245 121.758
L37.1058 121.675
L36.5042 121.675
L36.2723 121.758
L35.9705 122.058
L35.9027 122.276
L35.9027 122.578
L35.8217 122.81
L35.6708 122.961
L35.603 123.18
L35.5198 123.412
L35.3689 123.562
L35.3011 123.781
L35.3011 125.586
L35.3689 125.818
L35.9705 126.419
L36.2045 126.487
L37.1058 126.487
L37.3245 126.419
L37.4755 126.268
L37.7073 126.188
L37.9261 126.12
L39.1292 124.917
L39.2123 124.683
L39.2802 124.464
L39.7308 124.013
z

M40.783 123.862
L40.7152 124.081
L40.7152 124.383
L40.6342 124.615
L40.1814 125.065
L40.1136 125.284
L40.0327 125.518
L39.1292 126.419
L38.9105 126.487
L38.6786 126.57
L37.9261 127.323
L37.7073 127.391
L37.4755 127.474
L37.3245 127.623
L37.1058 127.692
L36.8739 127.773
L36.723 127.924
L36.5042 127.992
L36.2723 127.924
L36.1214 127.773
L35.9027 127.692
L35.6708 127.623
L35.5198 127.474
L35.3011 127.391
L35.0692 127.323
L34.4677 126.721
L34.3998 126.487
L34.3167 126.268
L34.1658 126.12
L34.098 125.886
L34.098 123.781
L34.1658 123.562
L34.3167 123.412
L34.3998 123.18
L34.3998 122.878
L34.4677 122.659
L34.6186 122.51
L34.6995 122.276
L34.7673 122.058
L34.9183 121.909
L35.0014 121.675
L35.0014 121.375
L35.0692 121.156
L35.9705 120.253
L36.2045 120.172
L36.4233 120.104
L36.572 119.953
L36.8061 119.87
L37.0248 119.802
L37.1736 119.651
L37.4077 119.57
L38.0092 119.57
L38.228 119.651
L38.3767 119.802
L38.6108 119.87
L38.8295 119.953
L39.5798 120.706
L39.8139 120.773
L40.0327 120.854
L40.1136 121.073
L40.1814 121.307
L40.9339 122.058
L41.017 122.276
L41.017 123.479
L40.9339 123.713
z
" style="stroke:#ffffff;stroke-width:4;"/>
            <path d="
M39.8139 123.781
L39.8139 122.578
L39.7308 122.359
L38.5277 121.156
L38.3089 121.073
L38.077 121.156
L37.7752 121.456
L37.7073 121.675
L37.6264 121.909
L37.4755 121.909
L37.3245 121.758
L37.1058 121.675
L36.5042 121.675
L36.2723 121.758
L35.9705 122.058
L35.9027 122.276
L35.9027 122.578
L35.8217 122.81
L35.6708 122.961
L35.603 123.18
L35.5198 123.412
L35.3689 123.562
L35.3011 123.781
L35.3011 125.586
L35.3689 125.818
L35.9705 126.419
L36.2045 126.487
L37.1058 126.487
L37.3245 126.419
L37.4755 126.268
L37.7073 126.188
L37.9261 126.12
L39.1292 124.917
L39.2123 124.683
L39.2802 124.464
L39.7308 124.013
z

M40.783 123.862
L40.7152 124.081
L40.7152 124.383
L40.6342 124.615
L40.1814 125.065
L40.1136 125.284
L40.0327 125.518
L39.1292 126.419
L38.9105 126.487
L38.6786 126.57
L37.9261 127.323
L37.7073 127.391
L37.4755 127.474
L37.3245 127.623
L37.1058 127.692
L36.8739 127.773
L36.723 127.924
L36.5042 127.992
L36.2723 127.924
L36.1214 127.773
L35.9027 127.692
L35.6708 127.623
L35.5198 127.474
L35.3011 127.391
L35.0692 127.323
L34.4677 126.721
L34.3998 126.487
L34.3167 126.268
L34.1658 126.12
L34.098 125.886
L34.098 123.781
L34.1658 123.562
L34.3167 123.412
L34.3998 123.18
L34.3998 122.878
L34.4677 122.659
L34.6186 122.51
L34.6995 122.276
L34.7673 122.058
L34.9183 121.909
L35.0014 121.675
L35.0014 121.375
L35.0692 121.156
L35.9705 120.253
L36.2045 120.172
L36.4233 120.104
L36.572 119.953
L36.8061 119.87
L37.0248 119.802
L37.1736 119.651
L37.4077 119.57
L38.0092 119.57
L38.228 119.651
L38.3767 119.802
L38.6108 119.87
L38.8295 119.953
L39.5798 120.706
L39.8139 120.773
L40.0327 120.854
L40.1136 121.073
L40.1814 121.307
L40.9339 122.058
L41.017 122.276
L41.017 123.479
L40.9339 123.713
z
"/>
           </g>
           <g id="xtick_2">
            <path d="
M81.6416 114.969
L81.6416 106.969" style="stroke:#ffffff;stroke-width:4;"/>
            <path d="
M81.6416 114.969
L81.6416 106.969" style="stroke:#000000;"/>
            <path d="
M81.6416 30.56
L81.6416 38.56" style="stroke:#ffffff;stroke-width:4;"/>
            <path d="
M81.6416 30.56
L81.6416 38.56" style="stroke:#000000;"/>
            <g id="text_2">
             <path d="
M83.4998 128.075
L83.3511 128.224
L83.1323 128.294
L81.9292 128.294
L81.6952 128.224
L81.6273 127.992
L81.6273 123.479
L81.5464 123.261
L81.3955 123.112
L81.3277 122.878
L81.3277 122.578
L81.2445 122.359
L81.0936 122.208
L81.0258 121.977
L81.0258 121.675
L80.9448 121.456
L80.7939 121.307
L80.7261 121.073
L80.643 120.854
L80.492 120.706
L80.4242 120.472
L80.4242 119.87
L80.492 119.651
L80.7939 119.352
L81.0258 119.268
L81.6273 119.268
L81.8461 119.352
L81.997 119.502
L82.2289 119.57
L82.4477 119.651
L82.5308 119.87
L82.5986 120.104
L83.0492 120.555
L83.1323 120.773
L83.2002 121.005
L83.3511 121.156
L83.432 121.375
L83.432 122.878
L83.4998 123.112
L83.6508 123.261
L83.7339 123.479
L83.7339 127.692
L83.6508 127.924
z
" style="stroke:#ffffff;stroke-width:4;"/>
             <path d="
M83.4998 128.075
L83.3511 128.224
L83.1323 128.294
L81.9292 128.294
L81.6952 128.224
L81.6273 127.992
L81.6273 123.479
L81.5464 123.261
L81.3955 123.112
L81.3277 122.878
L81.3277 122.578
L81.2445 122.359
L81.0936 122.208
L81.0258 121.977
L81.0258 121.675
L80.9448 121.456
L80.7939 121.307
L80.7261 121.073
L80.643 120.854
L80.492 120.706
L80.4242 120.472
L80.4242 119.87
L80.492 119.651
L80.7939 119.352
L81.0258 119.268
L81.6273 119.268
L81.8461 119.352
L81.997 119.502
L82.2289 119.57
L82.4477 119.651
L82.5308 119.87
L82.5986 120.104
L83.0492 120.555
L83.1323 120.773
L83.2002 121.005
L83.3511 121.156
L83.432 121.375
L83.432 122.878
L83.4998 123.112
L83.6508 123.261
L83.7339 123.479
L83.7339 127.692
L83.6508 127.924
z
"/>
            </g>
            <g id="xtick_3">
             <path d="
M126.163 114.969
L126.163 106.969" style="stroke:#ffffff;stroke-width:4;"/>
             <path d="
M126.163 114.969
L126.163 106.969" style="stroke:#000000;"/>
             <path d="
M126.163 30.56
L126.163 38.56" style="stroke:#ffffff;stroke-width:4;"/>
             <path d="
M126.163 30.56
L126.163 38.56" style="stroke:#000000;"/>
             <g id="text_3">
              <path d="
M129.076 128.375
L128.925 128.526
L128.706 128.594
L128.105 128.594
L127.873 128.526
L127.722 128.375
L127.503 128.294
L126.3 128.294
L126.068 128.375
L125.917 128.526
L125.698 128.594
L124.797 128.594
L124.563 128.526
L124.263 128.224
L124.195 127.992
L124.195 127.391
L124.263 127.172
L125.016 126.419
L125.097 126.188
L125.097 125.886
L125.165 125.667
L125.917 124.917
L126 124.683
L126 124.383
L126.068 124.164
L126.219 124.013
L126.3 123.781
L126.368 123.562
L126.602 123.479
L126.82 123.412
L126.901 123.18
L126.901 122.878
L126.969 122.659
L127.12 122.51
L127.203 122.276
L127.203 121.977
L127.12 121.758
L126.969 121.607
L126.901 121.375
L126.82 121.156
L126.67 121.156
L126.219 121.607
L126 121.675
L125.766 121.758
L125.165 122.359
L125.097 122.578
L125.016 122.81
L124.797 122.878
L124.495 122.878
L124.263 122.81
L123.961 122.51
L123.894 122.276
L123.894 121.977
L123.961 121.758
L125.165 120.555
L125.399 120.472
L125.617 120.404
L126.368 119.651
L126.602 119.57
L127.503 119.57
L127.722 119.651
L128.024 119.953
L128.105 120.172
L128.172 120.404
L128.323 120.555
L128.406 120.773
L128.406 122.578
L128.323 122.81
L128.172 122.961
L128.105 123.18
L128.024 123.412
L127.571 123.862
L127.503 124.081
L127.422 124.315
L127.271 124.464
L127.203 124.683
L127.203 124.984
L127.12 125.216
L126.368 125.969
L126.3 126.188
L126.3 126.789
L126.368 127.021
L126.602 127.089
L128.706 127.089
L128.925 127.172
L129.227 127.474
L129.308 127.692
L129.308 127.992
L129.227 128.224
z
" style="stroke:#ffffff;stroke-width:4;"/>
              <path d="
M129.076 128.375
L128.925 128.526
L128.706 128.594
L128.105 128.594
L127.873 128.526
L127.722 128.375
L127.503 128.294
L126.3 128.294
L126.068 128.375
L125.917 128.526
L125.698 128.594
L124.797 128.594
L124.563 128.526
L124.263 128.224
L124.195 127.992
L124.195 127.391
L124.263 127.172
L125.016 126.419
L125.097 126.188
L125.097 125.886
L125.165 125.667
L125.917 124.917
L126 124.683
L126 124.383
L126.068 124.164
L126.219 124.013
L126.3 123.781
L126.368 123.562
L126.602 123.479
L126.82 123.412
L126.901 123.18
L126.901 122.878
L126.969 122.659
L127.12 122.51
L127.203 122.276
L127.203 121.977
L127.12 121.758
L126.969 121.607
L126.901 121.375
L126.82 121.156
L126.67 121.156
L126.219 121.607
L126 121.675
L125.766 121.758
L125.165 122.359
L125.097 122.578
L125.016 122.81
L124.797 122.878
L124.495 122.878
L124.263 122.81
L123.961 122.51
L123.894 122.276
L123.894 121.977
L123.961 121.758
L125.165 120.555
L125.399 120.472
L125.617 120.404
L126.368 119.651
L126.602 119.57
L127.503 119.57
L127.722 119.651
L128.024 119.953
L128.105 120.172
L128.172 120.404
L128.323 120.555
L128.406 120.773
L128.406 122.578
L128.323 122.81
L128.172 122.961
L128.105 123.18
L128.024 123.412
L127.571 123.862
L127.503 124.081
L127.422 124.315
L127.271 124.464
L127.203 124.683
L127.203 124.984
L127.12 125.216
L126.368 125.969
L126.3 126.188
L126.3 126.789
L126.368 127.021
L126.602 127.089
L128.706 127.089
L128.925 127.172
L129.227 127.474
L129.308 127.692
L129.308 127.992
L129.227 128.224
z
"/>
             </g>
            </g>
            <g id="matplotlib.axis_2">
             <g id="ytick_1">
              <path d="
M37.12 114.969
L45.12 114.969" style="stroke:#ffffff;stroke-width:4;"/>
              <path d="
M37.12 114.969
L45.12 114.969" style="stroke:#000000;"/>
              <path d="
M126.163 114.969
L118.163 114.969" style="stroke:#ffffff;stroke-width:4;"/>
              <path d="
M126.163 114.969
L118.163 114.969" style="stroke:#000000;"/>
              <g id="text_4">
               <path d="
M22.1803 114.367
L22.1803 113.164
L22.0972 112.945
L20.8941 111.742
L20.6753 111.659
L20.4434 111.742
L20.1416 112.042
L20.0737 112.261
L19.9928 112.495
L19.8419 112.495
L19.6909 112.344
L19.4722 112.261
L18.8706 112.261
L18.6387 112.344
L18.3369 112.643
L18.2691 112.862
L18.2691 113.164
L18.1881 113.396
L18.0372 113.547
L17.9694 113.766
L17.8862 113.998
L17.7353 114.148
L17.6675 114.367
L17.6675 116.172
L17.7353 116.404
L18.3369 117.005
L18.5709 117.073
L19.4722 117.073
L19.6909 117.005
L19.8419 116.854
L20.0737 116.773
L20.2925 116.706
L21.4956 115.502
L21.5787 115.268
L21.6466 115.05
L22.0972 114.599
z

M23.1494 114.448
L23.0816 114.667
L23.0816 114.969
L23.0006 115.201
L22.5478 115.651
L22.48 115.87
L22.3991 116.104
L21.4956 117.005
L21.2769 117.073
L21.045 117.156
L20.2925 117.909
L20.0737 117.977
L19.8419 118.06
L19.6909 118.208
L19.4722 118.278
L19.2403 118.359
L19.0894 118.51
L18.8706 118.578
L18.6387 118.51
L18.4878 118.359
L18.2691 118.278
L18.0372 118.208
L17.8862 118.06
L17.6675 117.977
L17.4356 117.909
L16.8341 117.307
L16.7662 117.073
L16.6831 116.854
L16.5322 116.706
L16.4644 116.472
L16.4644 114.367
L16.5322 114.148
L16.6831 113.998
L16.7662 113.766
L16.7662 113.464
L16.8341 113.245
L16.985 113.096
L17.0659 112.862
L17.1337 112.643
L17.2847 112.495
L17.3678 112.261
L17.3678 111.961
L17.4356 111.742
L18.3369 110.839
L18.5709 110.758
L18.7897 110.69
L18.9384 110.539
L19.1725 110.456
L19.3912 110.388
L19.54 110.237
L19.7741 110.156
L20.3756 110.156
L20.5944 110.237
L20.7431 110.388
L20.9772 110.456
L21.1959 110.539
L21.9462 111.292
L22.1803 111.359
L22.3991 111.44
L22.48 111.659
L22.5478 111.893
L23.3003 112.643
L23.3834 112.862
L23.3834 114.065
L23.3003 114.299
z

M25.5283 117.456
L25.0777 117.909
L24.8589 117.977
L24.627 117.909
L24.3252 117.607
L24.2573 117.375
L24.2573 117.073
L24.3252 116.854
L24.4761 116.706
L24.5592 116.472
L24.627 116.253
L24.8589 116.172
L25.1608 116.172
L25.3795 116.253
L25.6792 116.555
L25.7623 116.773
L25.7623 117.073
L25.6792 117.307
z

M32.3522 114.367
L32.3522 113.164
L32.2691 112.945
L31.0659 111.742
L30.8472 111.659
L30.6153 111.742
L30.3134 112.042
L30.2456 112.261
L30.1647 112.495
L30.0137 112.495
L29.8628 112.344
L29.6441 112.261
L29.0425 112.261
L28.8106 112.344
L28.5087 112.643
L28.4409 112.862
L28.4409 113.164
L28.36 113.396
L28.2091 113.547
L28.1412 113.766
L28.0581 113.998
L27.9072 114.148
L27.8394 114.367
L27.8394 116.172
L27.9072 116.404
L28.5087 117.005
L28.7428 117.073
L29.6441 117.073
L29.8628 117.005
L30.0137 116.854
L30.2456 116.773
L30.4644 116.706
L31.6675 115.502
L31.7506 115.268
L31.8184 115.05
L32.2691 114.599
z

M33.3212 114.448
L33.2534 114.667
L33.2534 114.969
L33.1725 115.201
L32.7197 115.651
L32.6519 115.87
L32.5709 116.104
L31.6675 117.005
L31.4487 117.073
L31.2169 117.156
L30.4644 117.909
L30.2456 117.977
L30.0137 118.06
L29.8628 118.208
L29.6441 118.278
L29.4122 118.359
L29.2612 118.51
L29.0425 118.578
L28.8106 118.51
L28.6597 118.359
L28.4409 118.278
L28.2091 118.208
L28.0581 118.06
L27.8394 117.977
L27.6075 117.909
L27.0059 117.307
L26.9381 117.073
L26.855 116.854
L26.7041 116.706
L26.6362 116.472
L26.6362 114.367
L26.7041 114.148
L26.855 113.998
L26.9381 113.766
L26.9381 113.464
L27.0059 113.245
L27.1569 113.096
L27.2378 112.862
L27.3056 112.643
L27.4566 112.495
L27.5397 112.261
L27.5397 111.961
L27.6075 111.742
L28.5087 110.839
L28.7428 110.758
L28.9616 110.69
L29.1103 110.539
L29.3444 110.456
L29.5631 110.388
L29.7119 110.237
L29.9459 110.156
L30.5475 110.156
L30.7662 110.237
L30.915 110.388
L31.1491 110.456
L31.3678 110.539
L32.1181 111.292
L32.3522 111.359
L32.5709 111.44
L32.6519 111.659
L32.7197 111.893
L33.4722 112.643
L33.5553 112.862
L33.5553 114.065
L33.4722 114.299
z
" style="stroke:#ffffff;stroke-width:4;"/>
               <path d="
M22.1803 114.367
L22.1803 113.164
L22.0972 112.945
L20.8941 111.742
L20.6753 111.659
L20.4434 111.742
L20.1416 112.042
L20.0737 112.261
L19.9928 112.495
L19.8419 112.495
L19.6909 112.344
L19.4722 112.261
L18.8706 112.261
L18.6387 112.344
L18.3369 112.643
L18.2691 112.862
L18.2691 113.164
L18.1881 113.396
L18.0372 113.547
L17.9694 113.766
L17.8862 113.998
L17.7353 114.148
L17.6675 114.367
L17.6675 116.172
L17.7353 116.404
L18.3369 117.005
L18.5709 117.073
L19.4722 117.073
L19.6909 117.005
L19.8419 116.854
L20.0737 116.773
L20.2925 116.706
L21.4956 115.502
L21.5787 115.268
L21.6466 115.05
L22.0972 114.599
z

M23.1494 114.448
L23.0816 114.667
L23.0816 114.969
L23.0006 115.201
L22.5478 115.651
L22.48 115.87
L22.3991 116.104
L21.4956 117.005
L21.2769 117.073
L21.045 117.156
L20.2925 117.909
L20.0737 117.977
L19.8419 118.06
L19.6909 118.208
L19.4722 118.278
L19.2403 118.359
L19.0894 118.51
L18.8706 118.578
L18.6387 118.51
L18.4878 118.359
L18.2691 118.278
L18.0372 118.208
L17.8862 118.06
L17.6675 117.977
L17.4356 117.909
L16.8341 117.307
L16.7662 117.073
L16.6831 116.854
L16.5322 116.706
L16.4644 116.472
L16.4644 114.367
L16.5322 114.148
L16.6831 113.998
L16.7662 113.766
L16.7662 113.464
L16.8341 113.245
L16.985 113.096
L17.0659 112.862
L17.1337 112.643
L17.2847 112.495
L17.3678 112.261
L17.3678 111.961
L17.4356 111.742
L18.3369 110.839
L18.5709 110.758
L18.7897 110.69
L18.9384 110.539
L19.1725 110.456
L19.3912 110.388
L19.54 110.237
L19.7741 110.156
L20.3756 110.156
L20.5944 110.237
L20.7431 110.388
L20.9772 110.456
L21.1959 110.539
L21.9462 111.292
L22.1803 111.359
L22.3991 111.44
L22.48 111.659
L22.5478 111.893
L23.3003 112.643
L23.3834 112.862
L23.3834 114.065
L23.3003 114.299
z

M25.5283 117.456
L25.0777 117.909
L24.8589 117.977
L24.627 117.909
L24.3252 117.607
L24.2573 117.375
L24.2573 117.073
L24.3252 116.854
L24.4761 116.706
L24.5592 116.472
L24.627 116.253
L24.8589 116.172
L25.1608 116.172
L25.3795 116.253
L25.6792 116.555
L25.7623 116.773
L25.7623 117.073
L25.6792 117.307
z

M32.3522 114.367
L32.3522 113.164
L32.2691 112.945
L31.0659 111.742
L30.8472 111.659
L30.6153 111.742
L30.3134 112.042
L30.2456 112.261
L30.1647 112.495
L30.0137 112.495
L29.8628 112.344
L29.6441 112.261
L29.0425 112.261
L28.8106 112.344
L28.5087 112.643
L28.4409 112.862
L28.4409 113.164
L28.36 113.396
L28.2091 113.547
L28.1412 113.766
L28.0581 113.998
L27.9072 114.148
L27.8394 114.367
L27.8394 116.172
L27.9072 116.404
L28.5087 117.005
L28.7428 117.073
L29.6441 117.073
L29.8628 117.005
L30.0137 116.854
L30.2456 116.773
L30.4644 116.706
L31.6675 115.502
L31.7506 115.268
L31.8184 115.05
L32.2691 114.599
z

M33.3212 114.448
L33.2534 114.667
L33.2534 114.969
L33.1725 115.201
L32.7197 115.651
L32.6519 115.87
L32.5709 116.104
L31.6675 117.005
L31.4487 117.073
L31.2169 117.156
L30.4644 117.909
L30.2456 117.977
L30.0137 118.06
L29.8628 118.208
L29.6441 118.278
L29.4122 118.359
L29.2612 118.51
L29.0425 118.578
L28.8106 118.51
L28.6597 118.359
L28.4409 118.278
L28.2091 118.208
L28.0581 118.06
L27.8394 117.977
L27.6075 117.909
L27.0059 117.307
L26.9381 117.073
L26.855 116.854
L26.7041 116.706
L26.6362 116.472
L26.6362 114.367
L26.7041 114.148
L26.855 113.998
L26.9381 113.766
L26.9381 113.464
L27.0059 113.245
L27.1569 113.096
L27.2378 112.862
L27.3056 112.643
L27.4566 112.495
L27.5397 112.261
L27.5397 111.961
L27.6075 111.742
L28.5087 110.839
L28.7428 110.758
L28.9616 110.69
L29.1103 110.539
L29.3444 110.456
L29.5631 110.388
L29.7119 110.237
L29.9459 110.156
L30.5475 110.156
L30.7662 110.237
L30.915 110.388
L31.1491 110.456
L31.3678 110.539
L32.1181 111.292
L32.3522 111.359
L32.5709 111.44
L32.6519 111.659
L32.7197 111.893
L33.4722 112.643
L33.5553 112.862
L33.5553 114.065
L33.4722 114.299
z
"/>
              </g>
              <g id="ytick_2">
               <path d="
M37.12 72.7644
L45.12 72.7644" style="stroke:#ffffff;stroke-width:4;"/>
               <path d="
M37.12 72.7644
L45.12 72.7644" style="stroke:#000000;"/>
               <path d="
M126.163 72.7644
L118.163 72.7644" style="stroke:#ffffff;stroke-width:4;"/>
               <path d="
M126.163 72.7644
L118.163 72.7644" style="stroke:#000000;"/>
               <g id="text_5">
                <path d="
M21.2791 72.1628
L21.2791 70.9597
L21.1959 70.7409
L19.9928 69.5378
L19.7741 69.4547
L19.5422 69.5378
L19.2403 69.8375
L19.1725 70.0563
L19.0916 70.2903
L18.9406 70.2903
L18.7897 70.1394
L18.5709 70.0563
L17.9694 70.0563
L17.7375 70.1394
L17.4356 70.4391
L17.3678 70.6578
L17.3678 70.9597
L17.2869 71.1916
L17.1359 71.3425
L17.0681 71.5613
L16.985 71.7931
L16.8341 71.9441
L16.7662 72.1628
L16.7662 73.9675
L16.8341 74.1994
L17.4356 74.8009
L17.6697 74.8688
L18.5709 74.8688
L18.7897 74.8009
L18.9406 74.65
L19.1725 74.5691
L19.3912 74.5012
L20.5944 73.2981
L20.6775 73.0641
L20.7453 72.8453
L21.1959 72.3947
z

M22.2481 72.2438
L22.1803 72.4625
L22.1803 72.7644
L22.0994 72.9963
L21.6466 73.4469
L21.5787 73.6656
L21.4978 73.8997
L20.5944 74.8009
L20.3756 74.8688
L20.1437 74.9519
L19.3912 75.7044
L19.1725 75.7722
L18.9406 75.8553
L18.7897 76.0041
L18.5709 76.0741
L18.3391 76.155
L18.1881 76.3059
L17.9694 76.3738
L17.7375 76.3059
L17.5866 76.155
L17.3678 76.0741
L17.1359 76.0041
L16.985 75.8553
L16.7662 75.7722
L16.5344 75.7044
L15.9328 75.1028
L15.865 74.8688
L15.7819 74.65
L15.6309 74.5012
L15.5631 74.2672
L15.5631 72.1628
L15.6309 71.9441
L15.7819 71.7931
L15.865 71.5613
L15.865 71.2594
L15.9328 71.0406
L16.0837 70.8919
L16.1647 70.6578
L16.2325 70.4391
L16.3834 70.2903
L16.4666 70.0563
L16.4666 69.7566
L16.5344 69.5378
L17.4356 68.6344
L17.6697 68.5534
L17.8884 68.4856
L18.0372 68.3347
L18.2712 68.2516
L18.49 68.1838
L18.6387 68.0328
L18.8728 67.9519
L19.4744 67.9519
L19.6931 68.0328
L19.8419 68.1838
L20.0759 68.2516
L20.2947 68.3347
L21.045 69.0872
L21.2791 69.155
L21.4978 69.2359
L21.5787 69.4547
L21.6466 69.6887
L22.3991 70.4391
L22.4822 70.6578
L22.4822 71.8609
L22.3991 72.095
z

M24.627 75.2516
L24.1764 75.7044
L23.9577 75.7722
L23.7258 75.7044
L23.4239 75.4025
L23.3561 75.1706
L23.3561 74.8688
L23.4239 74.65
L23.5748 74.5012
L23.658 74.2672
L23.7258 74.0484
L23.9577 73.9675
L24.2595 73.9675
L24.4783 74.0484
L24.778 74.3503
L24.8611 74.5691
L24.8611 74.8688
L24.778 75.1028
z

M33.3234 69.8375
L33.1725 69.9884
L32.9537 70.0563
L30.2478 70.0563
L30.0137 70.1394
L29.865 70.2903
L29.6462 70.3581
L28.4431 70.3581
L28.2091 70.4391
L27.6075 71.0406
L27.5397 71.2594
L27.6075 71.4934
L27.9094 71.7931
L28.1412 71.8609
L29.0447 71.8609
L29.2634 71.9441
L29.4122 72.095
L29.6462 72.1628
L29.865 72.2438
L30.3156 72.6966
L30.5475 72.7644
L30.7662 72.8453
L31.6697 73.7488
L31.7506 73.9675
L31.7506 75.7722
L31.6697 76.0041
L31.5187 76.155
L31.4509 76.3738
L31.3678 76.6056
L30.1647 77.8088
L29.9459 77.8787
L29.7141 77.9597
L29.5631 78.1106
L29.3444 78.1784
L28.4431 78.1784
L28.2091 78.1106
L28.0603 77.9597
L27.8416 77.8787
L27.24 77.8787
L27.0059 77.8088
L26.8572 77.66
L26.6384 77.5769
L26.3366 77.5769
L26.1047 77.5091
L25.8028 77.2072
L25.735 76.9753
L25.735 76.6756
L25.8028 76.4569
L26.0369 76.3738
L28.1412 76.3738
L28.36 76.4569
L28.5109 76.6056
L28.7428 76.6756
L28.9616 76.6056
L29.1125 76.4569
L29.3444 76.3738
L29.5631 76.3059
L30.1647 75.7044
L30.2478 75.4703
L30.2478 74.2672
L30.1647 74.0484
L29.9459 73.9675
L29.7141 73.8997
L29.5631 73.7488
L29.3444 73.6656
L27.5397 73.6656
L27.3078 73.5978
L27.1569 73.4469
L26.9381 73.3659
L26.7062 73.2981
L26.4044 72.9963
L26.3366 72.7644
L26.3366 72.4625
L26.2556 72.2438
L26.1047 72.095
L26.0369 71.8609
L26.0369 70.9597
L26.1047 70.7409
L26.2556 70.59
L26.3366 70.3581
L26.3366 69.4547
L26.4044 69.2359
L26.7062 68.9363
L26.9381 68.8531
L29.6462 68.8531
L29.865 68.7853
L30.0137 68.6344
L30.2478 68.5534
L30.8494 68.5534
L31.0681 68.4856
L31.2169 68.3347
L31.4509 68.2516
L32.0525 68.2516
L32.2712 68.3347
L32.7219 68.7853
L32.9537 68.8531
L33.1725 68.9363
L33.4744 69.2359
L33.5553 69.4547
L33.4744 69.6887
z
" style="stroke:#ffffff;stroke-width:4;"/>
                <path d="
M21.2791 72.1628
L21.2791 70.9597
L21.1959 70.7409
L19.9928 69.5378
L19.7741 69.4547
L19.5422 69.5378
L19.2403 69.8375
L19.1725 70.0563
L19.0916 70.2903
L18.9406 70.2903
L18.7897 70.1394
L18.5709 70.0563
L17.9694 70.0563
L17.7375 70.1394
L17.4356 70.4391
L17.3678 70.6578
L17.3678 70.9597
L17.2869 71.1916
L17.1359 71.3425
L17.0681 71.5613
L16.985 71.7931
L16.8341 71.9441
L16.7662 72.1628
L16.7662 73.9675
L16.8341 74.1994
L17.4356 74.8009
L17.6697 74.8688
L18.5709 74.8688
L18.7897 74.8009
L18.9406 74.65
L19.1725 74.5691
L19.3912 74.5012
L20.5944 73.2981
L20.6775 73.0641
L20.7453 72.8453
L21.1959 72.3947
z

M22.2481 72.2438
L22.1803 72.4625
L22.1803 72.7644
L22.0994 72.9963
L21.6466 73.4469
L21.5787 73.6656
L21.4978 73.8997
L20.5944 74.8009
L20.3756 74.8688
L20.1437 74.9519
L19.3912 75.7044
L19.1725 75.7722
L18.9406 75.8553
L18.7897 76.0041
L18.5709 76.0741
L18.3391 76.155
L18.1881 76.3059
L17.9694 76.3738
L17.7375 76.3059
L17.5866 76.155
L17.3678 76.0741
L17.1359 76.0041
L16.985 75.8553
L16.7662 75.7722
L16.5344 75.7044
L15.9328 75.1028
L15.865 74.8688
L15.7819 74.65
L15.6309 74.5012
L15.5631 74.2672
L15.5631 72.1628
L15.6309 71.9441
L15.7819 71.7931
L15.865 71.5613
L15.865 71.2594
L15.9328 71.0406
L16.0837 70.8919
L16.1647 70.6578
L16.2325 70.4391
L16.3834 70.2903
L16.4666 70.0563
L16.4666 69.7566
L16.5344 69.5378
L17.4356 68.6344
L17.6697 68.5534
L17.8884 68.4856
L18.0372 68.3347
L18.2712 68.2516
L18.49 68.1838
L18.6387 68.0328
L18.8728 67.9519
L19.4744 67.9519
L19.6931 68.0328
L19.8419 68.1838
L20.0759 68.2516
L20.2947 68.3347
L21.045 69.0872
L21.2791 69.155
L21.4978 69.2359
L21.5787 69.4547
L21.6466 69.6887
L22.3991 70.4391
L22.4822 70.6578
L22.4822 71.8609
L22.3991 72.095
z

M24.627 75.2516
L24.1764 75.7044
L23.9577 75.7722
L23.7258 75.7044
L23.4239 75.4025
L23.3561 75.1706
L23.3561 74.8688
L23.4239 74.65
L23.5748 74.5012
L23.658 74.2672
L23.7258 74.0484
L23.9577 73.9675
L24.2595 73.9675
L24.4783 74.0484
L24.778 74.3503
L24.8611 74.5691
L24.8611 74.8688
L24.778 75.1028
z

M33.3234 69.8375
L33.1725 69.9884
L32.9537 70.0563
L30.2478 70.0563
L30.0137 70.1394
L29.865 70.2903
L29.6462 70.3581
L28.4431 70.3581
L28.2091 70.4391
L27.6075 71.0406
L27.5397 71.2594
L27.6075 71.4934
L27.9094 71.7931
L28.1412 71.8609
L29.0447 71.8609
L29.2634 71.9441
L29.4122 72.095
L29.6462 72.1628
L29.865 72.2438
L30.3156 72.6966
L30.5475 72.7644
L30.7662 72.8453
L31.6697 73.7488
L31.7506 73.9675
L31.7506 75.7722
L31.6697 76.0041
L31.5187 76.155
L31.4509 76.3738
L31.3678 76.6056
L30.1647 77.8088
L29.9459 77.8787
L29.7141 77.9597
L29.5631 78.1106
L29.3444 78.1784
L28.4431 78.1784
L28.2091 78.1106
L28.0603 77.9597
L27.8416 77.8787
L27.24 77.8787
L27.0059 77.8088
L26.8572 77.66
L26.6384 77.5769
L26.3366 77.5769
L26.1047 77.5091
L25.8028 77.2072
L25.735 76.9753
L25.735 76.6756
L25.8028 76.4569
L26.0369 76.3738
L28.1412 76.3738
L28.36 76.4569
L28.5109 76.6056
L28.7428 76.6756
L28.9616 76.6056
L29.1125 76.4569
L29.3444 76.3738
L29.5631 76.3059
L30.1647 75.7044
L30.2478 75.4703
L30.2478 74.2672
L30.1647 74.0484
L29.9459 73.9675
L29.7141 73.8997
L29.5631 73.7488
L29.3444 73.6656
L27.5397 73.6656
L27.3078 73.5978
L27.1569 73.4469
L26.9381 73.3659
L26.7062 73.2981
L26.4044 72.9963
L26.3366 72.7644
L26.3366 72.4625
L26.2556 72.2438
L26.1047 72.095
L26.0369 71.8609
L26.0369 70.9597
L26.1047 70.7409
L26.2556 70.59
L26.3366 70.3581
L26.3366 69.4547
L26.4044 69.2359
L26.7062 68.9363
L26.9381 68.8531
L29.6462 68.8531
L29.865 68.7853
L30.0137 68.6344
L30.2478 68.5534
L30.8494 68.5534
L31.0681 68.4856
L31.2169 68.3347
L31.4509 68.2516
L32.0525 68.2516
L32.2712 68.3347
L32.7219 68.7853
L32.9537 68.8531
L33.1725 68.9363
L33.4744 69.2359
L33.5553 69.4547
L33.4744 69.6887
z
"/>
               </g>
               <g id="ytick_3">
                <path d="
M37.12 30.56
L45.12 30.56" style="stroke:#ffffff;stroke-width:4;"/>
                <path d="
M37.12 30.56
L45.12 30.56" style="stroke:#000000;"/>
                <path d="
M126.163 30.56
L118.163 30.56" style="stroke:#ffffff;stroke-width:4;"/>
                <path d="
M126.163 30.56
L118.163 30.56" style="stroke:#000000;"/>
                <g id="text_6">
                 <path d="
M23.1494 34.2525
L23.0006 34.4013
L22.7819 34.4713
L21.5787 34.4713
L21.3447 34.4013
L21.2769 34.1694
L21.2769 29.6566
L21.1959 29.4378
L21.045 29.2891
L20.9772 29.055
L20.9772 28.7553
L20.8941 28.5366
L20.7431 28.3856
L20.6753 28.1538
L20.6753 27.8519
L20.5944 27.6331
L20.4434 27.4844
L20.3756 27.2503
L20.2925 27.0316
L20.1416 26.8828
L20.0737 26.6487
L20.0737 26.0472
L20.1416 25.8284
L20.4434 25.5288
L20.6753 25.4456
L21.2769 25.4456
L21.4956 25.5288
L21.6466 25.6797
L21.8784 25.7475
L22.0972 25.8284
L22.1803 26.0472
L22.2481 26.2812
L22.6987 26.7319
L22.7819 26.9506
L22.8497 27.1825
L23.0006 27.3334
L23.0816 27.5522
L23.0816 29.055
L23.1494 29.2891
L23.3003 29.4378
L23.3834 29.6566
L23.3834 33.8697
L23.3003 34.1016
z

M25.5283 33.0472
L25.0777 33.5
L24.8589 33.5678
L24.627 33.5
L24.3252 33.1981
L24.2573 32.9663
L24.2573 32.6644
L24.3252 32.4456
L24.4761 32.2969
L24.5592 32.0628
L24.627 31.8441
L24.8589 31.7631
L25.1608 31.7631
L25.3795 31.8441
L25.6792 32.1459
L25.7623 32.3647
L25.7623 32.6644
L25.6792 32.8984
z

M32.3522 29.9584
L32.3522 28.7553
L32.2691 28.5366
L31.0659 27.3334
L30.8472 27.2503
L30.6153 27.3334
L30.3134 27.6331
L30.2456 27.8519
L30.1647 28.0859
L30.0137 28.0859
L29.8628 27.935
L29.6441 27.8519
L29.0425 27.8519
L28.8106 27.935
L28.5087 28.2347
L28.4409 28.4534
L28.4409 28.7553
L28.36 28.9872
L28.2091 29.1381
L28.1412 29.3569
L28.0581 29.5888
L27.9072 29.7397
L27.8394 29.9584
L27.8394 31.7631
L27.9072 31.995
L28.5087 32.5966
L28.7428 32.6644
L29.6441 32.6644
L29.8628 32.5966
L30.0137 32.4456
L30.2456 32.3647
L30.4644 32.2969
L31.6675 31.0938
L31.7506 30.8597
L31.8184 30.6409
L32.2691 30.1903
z

M33.3212 30.0394
L33.2534 30.2581
L33.2534 30.56
L33.1725 30.7919
L32.7197 31.2425
L32.6519 31.4613
L32.5709 31.6953
L31.6675 32.5966
L31.4487 32.6644
L31.2169 32.7475
L30.4644 33.5
L30.2456 33.5678
L30.0137 33.6509
L29.8628 33.7997
L29.6441 33.8697
L29.4122 33.9506
L29.2612 34.1016
L29.0425 34.1694
L28.8106 34.1016
L28.6597 33.9506
L28.4409 33.8697
L28.2091 33.7997
L28.0581 33.6509
L27.8394 33.5678
L27.6075 33.5
L27.0059 32.8984
L26.9381 32.6644
L26.855 32.4456
L26.7041 32.2969
L26.6362 32.0628
L26.6362 29.9584
L26.7041 29.7397
L26.855 29.5888
L26.9381 29.3569
L26.9381 29.055
L27.0059 28.8362
L27.1569 28.6875
L27.2378 28.4534
L27.3056 28.2347
L27.4566 28.0859
L27.5397 27.8519
L27.5397 27.5522
L27.6075 27.3334
L28.5087 26.43
L28.7428 26.3491
L28.9616 26.2812
L29.1103 26.1303
L29.3444 26.0472
L29.5631 25.9794
L29.7119 25.8284
L29.9459 25.7475
L30.5475 25.7475
L30.7662 25.8284
L30.915 25.9794
L31.1491 26.0472
L31.3678 26.1303
L32.1181 26.8828
L32.3522 26.9506
L32.5709 27.0316
L32.6519 27.2503
L32.7197 27.4844
L33.4722 28.2347
L33.5553 28.4534
L33.5553 29.6566
L33.4722 29.8906
z
" style="stroke:#ffffff;stroke-width:4;"/>
                 <path d="
M23.1494 34.2525
L23.0006 34.4013
L22.7819 34.4713
L21.5787 34.4713
L21.3447 34.4013
L21.2769 34.1694
L21.2769 29.6566
L21.1959 29.4378
L21.045 29.2891
L20.9772 29.055
L20.9772 28.7553
L20.8941 28.5366
L20.7431 28.3856
L20.6753 28.1538
L20.6753 27.8519
L20.5944 27.6331
L20.4434 27.4844
L20.3756 27.2503
L20.2925 27.0316
L20.1416 26.8828
L20.0737 26.6487
L20.0737 26.0472
L20.1416 25.8284
L20.4434 25.5288
L20.6753 25.4456
L21.2769 25.4456
L21.4956 25.5288
L21.6466 25.6797
L21.8784 25.7475
L22.0972 25.8284
L22.1803 26.0472
L22.2481 26.2812
L22.6987 26.7319
L22.7819 26.9506
L22.8497 27.1825
L23.0006 27.3334
L23.0816 27.5522
L23.0816 29.055
L23.1494 29.2891
L23.3003 29.4378
L23.3834 29.6566
L23.3834 33.8697
L23.3003 34.1016
z

M25.5283 33.0472
L25.0777 33.5
L24.8589 33.5678
L24.627 33.5
L24.3252 33.1981
L24.2573 32.9663
L24.2573 32.6644
L24.3252 32.4456
L24.4761 32.2969
L24.5592 32.0628
L24.627 31.8441
L24.8589 31.7631
L25.1608 31.7631
L25.3795 31.8441
L25.6792 32.1459
L25.7623 32.3647
L25.7623 32.6644
L25.6792 32.8984
z

M32.3522 29.9584
L32.3522 28.7553
L32.2691 28.5366
L31.0659 27.3334
L30.8472 27.2503
L30.6153 27.3334
L30.3134 27.6331
L30.2456 27.8519
L30.1647 28.0859
L30.0137 28.0859
L29.8628 27.935
L29.6441 27.8519
L29.0425 27.8519
L28.8106 27.935
L28.5087 28.2347
L28.4409 28.4534
L28.4409 28.7553
L28.36 28.9872
L28.2091 29.1381
L28.1412 29.3569
L28.0581 29.5888
L27.9072 29.7397
L27.8394 29.9584
L27.8394 31.7631
L27.9072 31.995
L28.5087 32.5966
L28.7428 32.6644
L29.6441 32.6644
L29.8628 32.5966
L30.0137 32.4456
L30.2456 32.3647
L30.4644 32.2969
L31.6675 31.0938
L31.7506 30.8597
L31.8184 30.6409
L32.2691 30.1903
z

M33.3212 30.0394
L33.2534 30.2581
L33.2534 30.56
L33.1725 30.7919
L32.7197 31.2425
L32.6519 31.4613
L32.5709 31.6953
L31.6675 32.5966
L31.4487 32.6644
L31.2169 32.7475
L30.4644 33.5
L30.2456 33.5678
L30.0137 33.6509
L29.8628 33.7997
L29.6441 33.8697
L29.4122 33.9506
L29.2612 34.1016
L29.0425 34.1694
L28.8106 34.1016
L28.6597 33.9506
L28.4409 33.8697
L28.2091 33.7997
L28.0581 33.6509
L27.8394 33.5678
L27.6075 33.5
L27.0059 32.8984
L26.9381 32.6644
L26.855 32.4456
L26.7041 32.2969
L26.6362 32.0628
L26.6362 29.9584
L26.7041 29.7397
L26.855 29.5888
L26.9381 29.3569
L26.9381 29.055
L27.0059 28.8362
L27.1569 28.6875
L27.2378 28.4534
L27.3056 28.2347
L27.4566 28.0859
L27.5397 27.8519
L27.5397 27.5522
L27.6075 27.3334
L28.5087 26.43
L28.7428 26.3491
L28.9616 26.2812
L29.1103 26.1303
L29.3444 26.0472
L29.5631 25.9794
L29.7119 25.8284
L29.9459 25.7475
L30.5475 25.7475
L30.7662 25.8284
L30.915 25.9794
L31.1491 26.0472
L31.3678 26.1303
L32.1181 26.8828
L32.3522 26.9506
L32.5709 27.0316
L32.6519 27.2503
L32.7197 27.4844
L33.4722 28.2347
L33.5553 28.4534
L33.5553 29.6566
L33.4722 29.8906
z
"/>
                </g>
               </g>
               <g id="text_7">
                <path d="
M56.4643 71.3975
L56.4643 70.4314
L56.4122 70.2908
L56.3152 70.1937
L56.2716 70.0447
L56.2182 69.9041
L56.1211 69.807
L56.0775 69.658
L56.0255 69.5173
L55.6388 69.1306
L55.5418 69.1306
L55.3477 69.3233
L55.3041 69.4639
L55.2521 69.6144
L54.961 69.9041
L54.9174 70.0447
L54.9174 70.2373
L54.8654 70.3878
L54.7683 70.4834
L54.7247 70.6241
L54.6713 70.7745
L54.5743 70.8702
L54.5307 71.0108
L54.5307 71.5916
L54.5743 71.7406
L54.7247 71.7842
L56.0775 71.7842
L56.2182 71.7406
L56.4122 71.548
z

M57.2813 73.5786
L57.1857 73.6742
L57.045 73.7192
L56.851 73.7192
L56.7019 73.6742
L56.6583 73.5252
L56.6583 72.7517
L56.6049 72.6111
L56.4122 72.417
L56.2716 72.365
L55.8849 72.365
L55.7344 72.417
L55.6388 72.5141
L55.4982 72.5577
L55.3477 72.5141
L55.2521 72.417
L55.1115 72.365
L54.5307 72.365
L54.3816 72.417
L53.9949 72.8052
L53.9513 72.9458
L53.9513 73.7192
L53.8979 73.8683
L53.8008 73.9653
L53.7572 74.1059
L53.7052 74.255
L53.5646 74.2986
L53.3705 74.2986
L53.2215 74.255
L53.0274 74.0609
L52.9838 73.9119
L53.0274 73.7712
L53.1244 73.6742
L53.1779 73.5252
L53.1779 73.1384
L53.2215 72.9978
L53.3185 72.9008
L53.3705 72.7517
L53.3705 72.365
L53.4141 72.2244
L53.5111 72.1273
L53.5646 71.9783
L53.5646 71.7842
L53.6082 71.6436
L53.7052 71.548
L53.7572 71.3975
L53.7572 71.0108
L53.8008 70.8702
L53.8979 70.7745
L53.9513 70.6241
L53.9949 70.4834
L54.0919 70.3878
L54.144 70.2373
L54.144 70.0447
L54.1875 69.9041
L54.2846 69.807
L54.338 69.658
L54.338 69.4639
L54.3816 69.3233
L54.6713 69.0336
L54.7247 68.8845
L54.7683 68.7439
L55.155 68.3572
L55.3041 68.3038
L55.4447 68.2602
L55.5418 68.1631
L55.6388 68.1631
L55.7344 68.2602
L55.8849 68.3038
L56.0255 68.3572
L56.799 69.1306
L56.851 69.2712
L56.851 69.4639
L56.8946 69.6144
L56.9916 69.71
L57.045 69.8506
L57.0886 70.0011
L57.1857 70.0967
L57.2377 70.2373
L57.2377 71.9783
L57.2813 72.1273
L57.3783 72.2244
L57.4318 72.365
L57.4318 73.3325
L57.3783 73.4816
z

M64.302 70.6817
Q64.2275 70.6817 64.1782 70.6255
Q64.1304 70.5678 64.1304 70.5017
Q64.1304 70.4356 64.1782 70.3794
Q64.2275 70.3217 64.302 70.3217
L71.1322 70.3217
Q70.789 70.0756 70.5247 69.7522
Q70.2617 69.4288 70.0859 69.0575
Q69.9101 68.6863 69.8356 68.2686
Q69.8356 68.1505 69.927 68.1505
L70.107 68.1505
Q70.1379 68.1505 70.1618 68.1772
Q70.1872 68.2039 70.1956 68.2334
Q70.2701 68.6202 70.4304 68.952
Q70.5907 69.2839 70.8326 69.5708
Q71.0745 69.8563 71.3726 70.063
Q71.6722 70.2683 72.0504 70.4005
Q72.1109 70.4398 72.1109 70.5017
Q72.1109 70.572 72.0504 70.5889
Q71.5793 70.752 71.1884 71.0755
Q70.7975 71.3975 70.5429 71.8348
Q70.2884 72.2722 70.1956 72.77
Q70.1872 72.7995 70.1604 72.8263
Q70.1337 72.853 70.107 72.853
L69.927 72.853
Q69.8356 72.853 69.8356 72.7334
Q69.9495 72.1189 70.2912 71.5761
Q70.6343 71.0333 71.1322 70.6817
z

M81.4751 69.8506
L81.4751 69.0772
L81.4217 68.9366
L81.2811 68.8845
L79.3475 68.8845
L79.1984 68.9366
L78.8117 69.3233
L78.7681 69.4639
L78.8117 69.6144
L78.9087 69.71
L78.9607 69.8506
L78.9607 70.4314
L79.0043 70.5805
L79.1548 70.6241
L79.2954 70.5805
L79.3911 70.4834
L79.5415 70.4314
L80.7017 70.4314
L80.8423 70.3878
L81.132 70.0967
L81.2811 70.0447
L81.4217 70.0011
z

M81.6157 72.6111
L81.5187 72.5141
L81.4751 72.365
L81.4217 72.2244
L80.8423 71.6436
L80.7017 71.5916
L80.5512 71.548
L80.4556 71.4509
L80.315 71.3975
L80.1209 71.3975
L79.9718 71.3539
L79.8748 71.2569
L79.7342 71.2048
L79.3475 71.2048
L79.1984 71.2569
L79.1548 71.3975
L79.1548 73.1384
L79.1984 73.2875
L79.3911 73.4816
L79.5415 73.5252
L79.9282 73.5252
L80.0689 73.4816
L80.1645 73.3845
L80.315 73.3325
L80.8943 73.3325
L81.035 73.2875
L81.132 73.1919
L81.2811 73.1384
L81.4217 73.0948
L81.4751 72.9458
L81.5187 72.8052
L81.6157 72.7081
z

M82.2922 72.9978
L82.2486 73.1384
L82.1951 73.2875
L82.0545 73.3325
L81.9054 73.3845
L81.6157 73.6742
L81.4751 73.7192
L81.3247 73.7712
L81.229 73.8683
L81.0884 73.9119
L80.8943 73.9119
L80.7453 73.9653
L80.6482 74.0609
L80.5076 74.1059
L79.1548 74.1059
L79.0043 74.0609
L78.9087 73.9653
L78.7681 73.9119
L78.6176 73.8683
L78.425 73.6742
L78.3814 73.5252
L78.3814 70.8181
L78.3279 70.6775
L78.2309 70.5805
L78.1873 70.4314
L78.1873 70.0447
L78.1353 69.9041
L78.0382 69.807
L77.9947 69.658
L77.9947 69.4639
L77.9412 69.3233
L77.8442 69.2277
L77.8006 69.0772
L77.8442 68.9366
L77.9947 68.8845
L78.1353 68.8409
L78.6176 68.3572
L78.7681 68.3038
L79.3475 68.3038
L79.4881 68.2602
L79.5851 68.1631
L79.7342 68.1111
L81.0884 68.1111
L81.229 68.1631
L81.3247 68.2602
L81.4751 68.3038
L81.6678 68.3038
L81.8084 68.3572
L82.1951 68.7439
L82.2486 68.8845
L82.2922 69.0336
L82.3892 69.1306
L82.4412 69.2712
L82.3892 69.4203
L82.2922 69.5173
L82.2486 69.658
L82.1951 69.807
L82.0981 69.9041
L82.0545 70.0447
L82.0025 70.1937
L81.6157 70.5805
L81.4751 70.6241
L81.3247 70.6775
L81.2811 70.8181
L81.2811 71.0108
L81.3247 71.1612
L81.5187 71.3539
L81.6678 71.3975
L81.8084 71.4509
L82.0025 71.6436
L82.0545 71.7842
L82.0981 71.9347
L82.1951 72.0303
L82.2486 72.1709
L82.2922 72.3214
L82.3892 72.417
L82.4412 72.5577
L82.4412 72.7517
L82.3892 72.9008
z

M89.3122 70.6817
Q89.2376 70.6817 89.1884 70.6255
Q89.1406 70.5678 89.1406 70.5017
Q89.1406 70.4356 89.1884 70.3794
Q89.2376 70.3217 89.3122 70.3217
L96.1423 70.3217
Q95.7992 70.0756 95.5348 69.7522
Q95.2718 69.4288 95.0961 69.0575
Q94.9203 68.6863 94.8457 68.2686
Q94.8457 68.1505 94.9372 68.1505
L95.1172 68.1505
Q95.1481 68.1505 95.172 68.1772
Q95.1973 68.2039 95.2057 68.2334
Q95.2803 68.6202 95.4406 68.952
Q95.6009 69.2839 95.8428 69.5708
Q96.0847 69.8563 96.3828 70.063
Q96.6823 70.2683 97.0606 70.4005
Q97.1211 70.4398 97.1211 70.5017
Q97.1211 70.572 97.0606 70.5889
Q96.5895 70.752 96.1986 71.0755
Q95.8076 71.3975 95.5531 71.8348
Q95.2986 72.2722 95.2057 72.77
Q95.1973 72.7995 95.1706 72.8263
Q95.1439 72.853 95.1172 72.853
L94.9372 72.853
Q94.8457 72.853 94.8457 72.7334
Q94.9597 72.1189 95.3014 71.5761
Q95.6445 71.0333 96.1423 70.6817
z

M108.076 73.1919
L107.979 73.2875
L107.838 73.3325
L107.689 73.3845
L107.302 73.7712
L107.259 73.9119
L107.205 74.0609
L107.065 74.1059
L106.916 74.158
L106.626 74.4477
L106.485 74.4927
L104.744 74.4927
L104.595 74.4477
L104.498 74.352
L104.358 74.2986
L104.209 74.255
L104.112 74.158
L103.971 74.1059
L103.822 74.0609
L103.435 73.6742
L103.392 73.5252
L103.338 73.3845
L103.241 73.2875
L103.197 73.1384
L103.145 72.9978
L103.048 72.9008
L103.005 72.7517
L103.005 72.5577
L102.951 72.417
L102.854 72.3214
L102.811 72.1709
L102.811 71.2048
L102.854 71.0642
L102.951 70.9672
L103.005 70.8181
L103.005 70.2373
L103.048 70.0967
L103.145 70.0011
L103.197 69.8506
L103.241 69.71
L103.338 69.6144
L103.392 69.4639
L103.435 69.3233
L103.725 69.0336
L103.778 68.8845
L103.822 68.7439
L104.401 68.1631
L104.552 68.1111
L104.692 68.0675
L104.788 67.9705
L104.938 67.917
L105.079 67.8734
L105.175 67.7764
L105.325 67.7244
L106.291 67.7244
L106.432 67.7764
L106.529 67.8734
L106.678 67.917
L106.819 67.9705
L106.872 68.1111
L106.916 68.2602
L107.013 68.3572
L107.065 68.4978
L107.065 68.6905
L107.013 68.8409
L106.819 69.0336
L106.678 69.0772
L106.529 69.0336
L106.045 68.5498
L105.904 68.4978
L105.755 68.5498
L105.658 68.6469
L105.518 68.6905
L105.369 68.7439
L104.401 69.71
L104.358 69.8506
L104.306 70.0011
L104.014 70.2908
L103.971 70.4314
L103.971 70.6241
L103.919 70.7745
L103.628 71.0642
L103.584 71.2048
L103.584 71.7842
L103.628 71.9347
L103.725 72.0303
L103.778 72.1709
L103.778 72.365
L103.822 72.5141
L104.112 72.8052
L104.165 72.9458
L104.209 73.0948
L104.401 73.2875
L104.552 73.3325
L104.692 73.3845
L104.982 73.6742
L105.131 73.7192
L105.325 73.7192
L105.466 73.7712
L105.561 73.8683
L105.712 73.9119
L105.904 73.9119
L106.045 73.8683
L106.529 73.3845
L106.678 73.3325
L106.819 73.2875
L106.872 73.1384
L106.916 72.9978
L107.302 72.6111
L107.451 72.5577
L107.645 72.5577
L107.786 72.6111
L108.173 72.9978
L108.173 73.0948
z
" style="stroke:#ffffff;stroke-width:4;"/>
                <path d="
M56.4643 71.3975
L56.4643 70.4314
L56.4122 70.2908
L56.3152 70.1937
L56.2716 70.0447
L56.2182 69.9041
L56.1211 69.807
L56.0775 69.658
L56.0255 69.5173
L55.6388 69.1306
L55.5418 69.1306
L55.3477 69.3233
L55.3041 69.4639
L55.2521 69.6144
L54.961 69.9041
L54.9174 70.0447
L54.9174 70.2373
L54.8654 70.3878
L54.7683 70.4834
L54.7247 70.6241
L54.6713 70.7745
L54.5743 70.8702
L54.5307 71.0108
L54.5307 71.5916
L54.5743 71.7406
L54.7247 71.7842
L56.0775 71.7842
L56.2182 71.7406
L56.4122 71.548
z

M57.2813 73.5786
L57.1857 73.6742
L57.045 73.7192
L56.851 73.7192
L56.7019 73.6742
L56.6583 73.5252
L56.6583 72.7517
L56.6049 72.6111
L56.4122 72.417
L56.2716 72.365
L55.8849 72.365
L55.7344 72.417
L55.6388 72.5141
L55.4982 72.5577
L55.3477 72.5141
L55.2521 72.417
L55.1115 72.365
L54.5307 72.365
L54.3816 72.417
L53.9949 72.8052
L53.9513 72.9458
L53.9513 73.7192
L53.8979 73.8683
L53.8008 73.9653
L53.7572 74.1059
L53.7052 74.255
L53.5646 74.2986
L53.3705 74.2986
L53.2215 74.255
L53.0274 74.0609
L52.9838 73.9119
L53.0274 73.7712
L53.1244 73.6742
L53.1779 73.5252
L53.1779 73.1384
L53.2215 72.9978
L53.3185 72.9008
L53.3705 72.7517
L53.3705 72.365
L53.4141 72.2244
L53.5111 72.1273
L53.5646 71.9783
L53.5646 71.7842
L53.6082 71.6436
L53.7052 71.548
L53.7572 71.3975
L53.7572 71.0108
L53.8008 70.8702
L53.8979 70.7745
L53.9513 70.6241
L53.9949 70.4834
L54.0919 70.3878
L54.144 70.2373
L54.144 70.0447
L54.1875 69.9041
L54.2846 69.807
L54.338 69.658
L54.338 69.4639
L54.3816 69.3233
L54.6713 69.0336
L54.7247 68.8845
L54.7683 68.7439
L55.155 68.3572
L55.3041 68.3038
L55.4447 68.2602
L55.5418 68.1631
L55.6388 68.1631
L55.7344 68.2602
L55.8849 68.3038
L56.0255 68.3572
L56.799 69.1306
L56.851 69.2712
L56.851 69.4639
L56.8946 69.6144
L56.9916 69.71
L57.045 69.8506
L57.0886 70.0011
L57.1857 70.0967
L57.2377 70.2373
L57.2377 71.9783
L57.2813 72.1273
L57.3783 72.2244
L57.4318 72.365
L57.4318 73.3325
L57.3783 73.4816
z

M64.302 70.6817
Q64.2275 70.6817 64.1782 70.6255
Q64.1304 70.5678 64.1304 70.5017
Q64.1304 70.4356 64.1782 70.3794
Q64.2275 70.3217 64.302 70.3217
L71.1322 70.3217
Q70.789 70.0756 70.5247 69.7522
Q70.2617 69.4288 70.0859 69.0575
Q69.9101 68.6863 69.8356 68.2686
Q69.8356 68.1505 69.927 68.1505
L70.107 68.1505
Q70.1379 68.1505 70.1618 68.1772
Q70.1872 68.2039 70.1956 68.2334
Q70.2701 68.6202 70.4304 68.952
Q70.5907 69.2839 70.8326 69.5708
Q71.0745 69.8563 71.3726 70.063
Q71.6722 70.2683 72.0504 70.4005
Q72.1109 70.4398 72.1109 70.5017
Q72.1109 70.572 72.0504 70.5889
Q71.5793 70.752 71.1884 71.0755
Q70.7975 71.3975 70.5429 71.8348
Q70.2884 72.2722 70.1956 72.77
Q70.1872 72.7995 70.1604 72.8263
Q70.1337 72.853 70.107 72.853
L69.927 72.853
Q69.8356 72.853 69.8356 72.7334
Q69.9495 72.1189 70.2912 71.5761
Q70.6343 71.0333 71.1322 70.6817
z

M81.4751 69.8506
L81.4751 69.0772
L81.4217 68.9366
L81.2811 68.8845
L79.3475 68.8845
L79.1984 68.9366
L78.8117 69.3233
L78.7681 69.4639
L78.8117 69.6144
L78.9087 69.71
L78.9607 69.8506
L78.9607 70.4314
L79.0043 70.5805
L79.1548 70.6241
L79.2954 70.5805
L79.3911 70.4834
L79.5415 70.4314
L80.7017 70.4314
L80.8423 70.3878
L81.132 70.0967
L81.2811 70.0447
L81.4217 70.0011
z

M81.6157 72.6111
L81.5187 72.5141
L81.4751 72.365
L81.4217 72.2244
L80.8423 71.6436
L80.7017 71.5916
L80.5512 71.548
L80.4556 71.4509
L80.315 71.3975
L80.1209 71.3975
L79.9718 71.3539
L79.8748 71.2569
L79.7342 71.2048
L79.3475 71.2048
L79.1984 71.2569
L79.1548 71.3975
L79.1548 73.1384
L79.1984 73.2875
L79.3911 73.4816
L79.5415 73.5252
L79.9282 73.5252
L80.0689 73.4816
L80.1645 73.3845
L80.315 73.3325
L80.8943 73.3325
L81.035 73.2875
L81.132 73.1919
L81.2811 73.1384
L81.4217 73.0948
L81.4751 72.9458
L81.5187 72.8052
L81.6157 72.7081
z

M82.2922 72.9978
L82.2486 73.1384
L82.1951 73.2875
L82.0545 73.3325
L81.9054 73.3845
L81.6157 73.6742
L81.4751 73.7192
L81.3247 73.7712
L81.229 73.8683
L81.0884 73.9119
L80.8943 73.9119
L80.7453 73.9653
L80.6482 74.0609
L80.5076 74.1059
L79.1548 74.1059
L79.0043 74.0609
L78.9087 73.9653
L78.7681 73.9119
L78.6176 73.8683
L78.425 73.6742
L78.3814 73.5252
L78.3814 70.8181
L78.3279 70.6775
L78.2309 70.5805
L78.1873 70.4314
L78.1873 70.0447
L78.1353 69.9041
L78.0382 69.807
L77.9947 69.658
L77.9947 69.4639
L77.9412 69.3233
L77.8442 69.2277
L77.8006 69.0772
L77.8442 68.9366
L77.9947 68.8845
L78.1353 68.8409
L78.6176 68.3572
L78.7681 68.3038
L79.3475 68.3038
L79.4881 68.2602
L79.5851 68.1631
L79.7342 68.1111
L81.0884 68.1111
L81.229 68.1631
L81.3247 68.2602
L81.4751 68.3038
L81.6678 68.3038
L81.8084 68.3572
L82.1951 68.7439
L82.2486 68.8845
L82.2922 69.0336
L82.3892 69.1306
L82.4412 69.2712
L82.3892 69.4203
L82.2922 69.5173
L82.2486 69.658
L82.1951 69.807
L82.0981 69.9041
L82.0545 70.0447
L82.0025 70.1937
L81.6157 70.5805
L81.4751 70.6241
L81.3247 70.6775
L81.2811 70.8181
L81.2811 71.0108
L81.3247 71.1612
L81.5187 71.3539
L81.6678 71.3975
L81.8084 71.4509
L82.0025 71.6436
L82.0545 71.7842
L82.0981 71.9347
L82.1951 72.0303
L82.2486 72.1709
L82.2922 72.3214
L82.3892 72.417
L82.4412 72.5577
L82.4412 72.7517
L82.3892 72.9008
z

M89.3122 70.6817
Q89.2376 70.6817 89.1884 70.6255
Q89.1406 70.5678 89.1406 70.5017
Q89.1406 70.4356 89.1884 70.3794
Q89.2376 70.3217 89.3122 70.3217
L96.1423 70.3217
Q95.7992 70.0756 95.5348 69.7522
Q95.2718 69.4288 95.0961 69.0575
Q94.9203 68.6863 94.8457 68.2686
Q94.8457 68.1505 94.9372 68.1505
L95.1172 68.1505
Q95.1481 68.1505 95.172 68.1772
Q95.1973 68.2039 95.2057 68.2334
Q95.2803 68.6202 95.4406 68.952
Q95.6009 69.2839 95.8428 69.5708
Q96.0847 69.8563 96.3828 70.063
Q96.6823 70.2683 97.0606 70.4005
Q97.1211 70.4398 97.1211 70.5017
Q97.1211 70.572 97.0606 70.5889
Q96.5895 70.752 96.1986 71.0755
Q95.8076 71.3975 95.5531 71.8348
Q95.2986 72.2722 95.2057 72.77
Q95.1973 72.7995 95.1706 72.8263
Q95.1439 72.853 95.1172 72.853
L94.9372 72.853
Q94.8457 72.853 94.8457 72.7334
Q94.9597 72.1189 95.3014 71.5761
Q95.6445 71.0333 96.1423 70.6817
z

M108.076 73.1919
L107.979 73.2875
L107.838 73.3325
L107.689 73.3845
L107.302 73.7712
L107.259 73.9119
L107.205 74.0609
L107.065 74.1059
L106.916 74.158
L106.626 74.4477
L106.485 74.4927
L104.744 74.4927
L104.595 74.4477
L104.498 74.352
L104.358 74.2986
L104.209 74.255
L104.112 74.158
L103.971 74.1059
L103.822 74.0609
L103.435 73.6742
L103.392 73.5252
L103.338 73.3845
L103.241 73.2875
L103.197 73.1384
L103.145 72.9978
L103.048 72.9008
L103.005 72.7517
L103.005 72.5577
L102.951 72.417
L102.854 72.3214
L102.811 72.1709
L102.811 71.2048
L102.854 71.0642
L102.951 70.9672
L103.005 70.8181
L103.005 70.2373
L103.048 70.0967
L103.145 70.0011
L103.197 69.8506
L103.241 69.71
L103.338 69.6144
L103.392 69.4639
L103.435 69.3233
L103.725 69.0336
L103.778 68.8845
L103.822 68.7439
L104.401 68.1631
L104.552 68.1111
L104.692 68.0675
L104.788 67.9705
L104.938 67.917
L105.079 67.8734
L105.175 67.7764
L105.325 67.7244
L106.291 67.7244
L106.432 67.7764
L106.529 67.8734
L106.678 67.917
L106.819 67.9705
L106.872 68.1111
L106.916 68.2602
L107.013 68.3572
L107.065 68.4978
L107.065 68.6905
L107.013 68.8409
L106.819 69.0336
L106.678 69.0772
L106.529 69.0336
L106.045 68.5498
L105.904 68.4978
L105.755 68.5498
L105.658 68.6469
L105.518 68.6905
L105.369 68.7439
L104.401 69.71
L104.358 69.8506
L104.306 70.0011
L104.014 70.2908
L103.971 70.4314
L103.971 70.6241
L103.919 70.7745
L103.628 71.0642
L103.584 71.2048
L103.584 71.7842
L103.628 71.9347
L103.725 72.0303
L103.778 72.1709
L103.778 72.365
L103.822 72.5141
L104.112 72.8052
L104.165 72.9458
L104.209 73.0948
L104.401 73.2875
L104.552 73.3325
L104.692 73.3845
L104.982 73.6742
L105.131 73.7192
L105.325 73.7192
L105.466 73.7712
L105.561 73.8683
L105.712 73.9119
L105.904 73.9119
L106.045 73.8683
L106.529 73.3845
L106.678 73.3325
L106.819 73.2875
L106.872 73.1384
L106.916 72.9978
L107.302 72.6111
L107.451 72.5577
L107.645 72.5577
L107.786 72.6111
L108.173 72.9978
L108.173 73.0948
z
"/>
                <g id="text_8">
                 <path d="
M51.1417 25.2975
L51.0603 25.56
L50.9606 25.8383
L50.2387 26.5601
L49.9762 26.6441
L49.6979 26.7413
L49.5168 26.9224
L49.2543 27.0038
L46.7291 27.0038
L46.4482 26.9224
L46.2697 26.7413
L46.0072 26.6441
L45.7263 26.5601
L45.5478 26.3816
L45.2853 26.2819
L45.0044 26.2005
L43.5607 24.7568
L43.4793 24.4759
L43.3822 24.2134
L43.2011 24.0349
L43.1197 23.754
L43.0199 23.4915
L42.8388 23.313
L42.7574 23.0321
L42.7574 20.8665
L42.8388 20.604
L43.0199 20.4255
L43.1197 20.1446
L43.2011 19.8821
L43.7418 19.3414
L43.8416 19.0631
L43.9229 18.8006
L46.0886 16.635
L46.3668 16.5353
L46.6293 16.4539
L46.8104 16.2728
L47.0887 16.1756
L47.4509 16.1756
L47.7134 16.0943
L47.8919 15.9131
L48.1728 15.8134
L48.5324 15.8134
L48.7949 15.9131
L48.9761 16.0943
L49.2543 16.1756
L49.5168 16.2728
L50.2387 16.9946
L50.3384 17.2571
L50.3384 17.6194
L50.2387 17.8976
L49.8791 18.2599
L49.6979 18.2599
L49.1572 17.7165
L48.8947 17.6194
L48.1728 17.6194
L47.8919 17.7165
L47.7134 17.8976
L47.4509 17.979
L47.1701 18.0788
L45.3667 19.8821
L45.2853 20.1446
L45.1856 20.4255
L45.0044 20.604
L44.9231 20.8665
L44.8259 21.1474
L44.6448 21.3259
L44.5634 21.5884
L44.4637 21.8693
L44.2826 22.0478
L44.2826 22.2289
L44.4637 22.41
L44.5634 22.6725
L44.5634 23.0321
L44.6448 23.313
L45.1856 23.8538
L45.2853 24.1163
L45.3667 24.3945
L46.0886 25.1164
L46.3668 25.1978
L46.6293 25.2975
L46.8104 25.4786
L47.0887 25.56
L47.4509 25.56
L47.7134 25.6598
L47.8919 25.8383
L48.1728 25.9223
L48.4353 25.8383
L48.6138 25.6598
L48.8947 25.56
L49.1572 25.4786
L49.6979 24.9353
L49.9762 24.8381
L50.2387 24.7568
L50.3384 24.4759
L50.4198 24.2134
L50.6981 24.1163
L51.0603 24.1163
L51.3228 24.2134
L51.4199 24.4759
L51.4199 24.8381
L51.3228 25.1164
z

M61.2138 22.0478
L61.1324 22.3103
L61.1324 26.2819
L61.0353 26.5601
L60.7728 26.6441
L60.4919 26.7413
L60.3134 26.9224
L60.1323 26.9224
L60.0509 26.6441
L59.9512 26.3816
L59.7701 26.2005
L59.6887 25.9223
L59.6887 23.754
L59.5916 23.4915
L59.3291 23.3944
L57.8853 23.3944
L57.6044 23.4915
L57.4259 23.6726
L57.1634 23.754
L54.9978 23.754
L54.7169 23.8538
L54.5384 24.0349
L54.2759 24.1163
L53.9951 24.2134
L53.6354 24.5756
L53.5541 24.8381
L53.5541 27.366
L53.4543 27.6443
L53.1918 27.7256
L52.9136 27.8254
L52.7324 28.0039
L52.5513 28.0039
L52.4699 27.7256
L52.4699 20.1446
L52.5513 19.8821
L52.7324 19.7036
L52.8322 19.4228
L52.8322 17.2571
L52.9136 16.9946
L53.1918 16.8975
L53.5541 16.8975
L53.8166 16.9946
L53.9137 17.2571
L53.9137 20.1446
L53.8166 20.4255
L53.6354 20.604
L53.5541 20.8665
L53.5541 21.9506
L53.6354 22.2289
L53.9951 22.5911
L54.2759 22.6725
L55.7197 22.6725
L55.9822 22.5911
L56.1607 22.41
L56.4416 22.3103
L58.6072 22.3103
L58.8697 22.2289
L59.0482 22.0478
L59.3291 21.9506
L59.5916 21.8693
L59.9512 21.507
L60.0509 21.2288
L60.0509 17.979
L60.1323 17.7165
L60.4106 17.6194
L60.6731 17.7165
L61.0353 18.0788
L61.1324 18.3413
L61.1324 21.2288
L61.2138 21.507
L61.3949 21.6881
L61.3949 21.8693
z

M71.6495 16.635
L71.1087 17.1758
L70.8462 17.2571
L67.5965 17.2571
L67.3182 17.3569
L67.1371 17.538
L66.8746 17.6194
L65.7931 17.6194
L65.5122 17.7165
L64.7904 18.4384
L64.709 18.7009
L64.709 19.4228
L64.7904 19.7036
L65.1526 20.0633
L65.4309 20.1446
L69.0402 20.1446
L69.3027 20.2444
L69.665 20.604
L69.665 20.7851
L68.9431 21.507
L68.6806 21.5884
L68.3184 21.5884
L68.0401 21.6881
L67.859 21.8693
L67.5965 21.9506
L66.515 21.9506
L66.2341 21.8693
L66.0556 21.6881
L65.7931 21.5884
L65.0712 21.5884
L64.7904 21.6881
L64.709 21.9506
L64.6119 22.2289
L64.4307 22.41
L64.3494 22.6725
L64.3494 24.1163
L64.4307 24.3945
L64.709 24.4759
L64.9715 24.5756
L65.1526 24.7568
L65.4309 24.8381
L65.6934 24.7568
L65.8745 24.5756
L66.1527 24.4759
L70.1244 24.4759
L70.3869 24.5756
L70.484 24.8381
L70.3869 25.1164
L69.665 25.8383
L69.4025 25.9223
L67.9587 25.9223
L67.6779 26.0194
L67.4994 26.2005
L67.2369 26.2819
L64.3494 26.2819
L64.0685 26.3816
L63.89 26.5601
L63.6275 26.6441
L63.2652 26.6441
L62.987 26.5601
L62.6247 26.2005
L62.5434 25.9223
L62.5434 24.4759
L62.6247 24.2134
L62.8059 24.0349
L62.9056 23.754
L62.9056 21.9506
L62.987 21.6881
L63.1681 21.507
L63.2652 21.2288
L63.2652 18.7009
L63.1681 18.4384
L62.987 18.2599
L62.9056 17.979
L62.9056 17.6194
L62.987 17.3569
L63.7089 16.635
L63.9871 16.5353
L64.2496 16.4539
L64.4307 16.2728
L64.709 16.1756
L66.1527 16.1756
L66.4152 16.0943
L66.5964 15.9131
L66.8746 15.8134
L71.2059 15.8134
L71.4684 15.9131
L71.8306 16.2728
L71.8306 16.4539
z

M80.6401 26.0194
L80.459 26.2005
L80.1965 26.2819
L79.8369 26.2819
L79.556 26.2005
L79.4746 25.9223
L79.4746 22.6725
L79.556 22.41
L79.7371 22.2289
L79.8369 21.9506
L79.8369 21.2288
L79.7371 20.9663
L79.556 20.7851
L79.4746 20.5069
L79.4746 19.0631
L79.3775 18.8006
L79.0152 18.4384
L78.7527 18.3413
L78.4745 18.4384
L78.3931 18.7009
L78.2934 18.9818
L78.1122 19.1603
L78.0309 19.4228
L77.9337 19.7036
L77.3904 20.2444
L77.309 20.5069
L77.2119 20.7851
L76.6685 21.3259
L76.5871 21.5884
L76.49 21.8693
L76.2275 21.9506
L75.9466 21.8693
L75.587 21.507
L75.5056 21.2288
L75.4059 20.9663
L75.1434 20.8665
L74.8651 20.9663
L74.7837 21.2288
L74.7837 26.2819
L74.684 26.5601
L74.4215 26.6441
L74.0619 26.6441
L73.781 26.5601
L73.6996 26.2819
L73.6996 25.9223
L73.6025 25.6598
L73.4214 25.4786
L73.34 25.1978
L73.34 20.5069
L73.2402 20.2444
L73.0591 20.0633
L72.9777 19.785
L72.9777 17.2571
L73.0591 16.9946
L73.4214 16.635
L73.6996 16.5353
L73.9621 16.635
L75.4059 18.0788
L75.5056 18.3413
L75.5056 18.7009
L75.587 18.9818
L75.9466 19.3414
L76.2275 19.4228
L76.49 19.3414
L76.8496 18.9818
L76.9494 18.7009
L77.0307 18.4384
L77.2119 18.2599
L77.309 17.979
L77.3904 17.7165
L77.9337 17.1758
L78.0309 16.8975
L78.1122 16.635
L79.1964 15.5509
L79.4746 15.4538
L79.7371 15.5509
L80.0994 15.9131
L80.1965 16.1756
L80.1965 16.5353
L80.2779 16.8161
L80.459 16.9946
L80.5587 17.2571
L80.5587 17.6194
L80.6401 17.8976
L80.8212 18.0788
L80.9184 18.3413
L80.9184 25.56
L80.8212 25.8383
z

M89.909 20.1446
L89.909 19.4228
L89.8119 19.1603
L89.4496 18.8006
L89.1871 18.7009
L88.8275 18.7009
L88.5466 18.6195
L88.3681 18.4384
L88.1056 18.3413
L87.8247 18.2599
L87.6462 18.0788
L87.3837 17.979
L85.2181 17.979
L84.9372 18.0788
L84.7587 18.2599
L84.4962 18.3413
L84.2154 18.4384
L83.4935 19.1603
L83.4121 19.4228
L83.4935 19.7036
L83.6746 19.8821
L83.7744 20.1446
L83.8558 20.4255
L84.0369 20.604
L84.134 20.8665
L84.134 21.2288
L84.2154 21.507
L84.5776 21.8693
L84.7587 21.8693
L85.6591 20.9663
L85.94 20.8665
L86.6619 20.8665
L86.9244 20.7851
L87.1029 20.604
L87.3837 20.5069
L89.5494 20.5069
L89.8119 20.4255
z

M91.7964 20.604
L91.715 20.8665
L91.6152 21.1474
L91.3527 21.2288
L91.0745 21.3259
L90.8934 21.507
L90.6309 21.5884
L90.3526 21.6881
L90.1715 21.8693
L89.909 21.9506
L88.4652 21.9506
L88.187 22.0478
L87.8247 22.41
L87.7434 22.6725
L87.7434 23.3944
L87.8247 23.6726
L88.1056 23.754
L88.3681 23.8538
L90.8934 26.3816
L90.9931 26.6441
L91.0745 26.9224
L91.2556 27.1035
L91.3527 27.366
L91.2556 27.6443
L90.8934 28.0039
L90.6309 28.0879
L90.3526 28.0039
L89.8119 27.4631
L89.5494 27.366
L89.2685 27.282
L85.4806 23.4915
L85.2995 23.4915
L85.2181 23.754
L85.2181 25.56
L85.1184 25.8383
L84.9372 26.0194
L84.8559 26.2819
L84.7587 26.5601
L84.3965 26.9224
L84.134 27.0038
L83.7744 27.0038
L83.4935 26.9224
L83.4121 26.6441
L83.4121 26.2819
L83.4935 26.0194
L83.6746 25.8383
L83.7744 25.56
L83.7744 24.4759
L83.6746 24.2134
L83.4935 24.0349
L83.4121 23.754
L83.4121 23.3944
L83.315 23.1319
L83.1339 22.9508
L83.0525 22.6725
L83.0525 22.3103
L82.9527 22.0478
L82.7716 21.8693
L82.6902 21.5884
L82.6902 21.2288
L82.5931 20.9663
L82.412 20.7851
L82.3306 20.5069
L82.3306 20.1446
L82.2309 19.8821
L82.0497 19.7036
L81.9684 19.4228
L81.9684 18.3413
L82.0497 18.0788
L83.4935 16.635
L83.7744 16.5353
L84.134 16.5353
L84.3965 16.4539
L84.5776 16.2728
L84.8559 16.1756
L87.7434 16.1756
L88.0059 16.2728
L88.187 16.4539
L88.4652 16.5353
L88.7277 16.635
L88.9089 16.8161
L89.1871 16.8975
L89.4496 16.9946
L89.6307 17.1758
L89.909 17.2571
L90.1715 17.3569
L91.6152 18.8006
L91.715 19.0631
L91.7964 19.3414
L91.9775 19.5225
L92.0746 19.785
L92.0746 20.1446
L91.9775 20.4255
z

M102.231 16.635
L101.69 17.1758
L101.427 17.2571
L98.1777 17.2571
L97.8995 17.3569
L97.7184 17.538
L97.4559 17.6194
L96.3744 17.6194
L96.0935 17.7165
L95.3716 18.4384
L95.2902 18.7009
L95.2902 19.4228
L95.3716 19.7036
L95.7339 20.0633
L96.0121 20.1446
L99.6215 20.1446
L99.884 20.2444
L100.246 20.604
L100.246 20.7851
L99.5244 21.507
L99.2619 21.5884
L98.8996 21.5884
L98.6214 21.6881
L98.4402 21.8693
L98.1777 21.9506
L97.0962 21.9506
L96.8154 21.8693
L96.6369 21.6881
L96.3744 21.5884
L95.6525 21.5884
L95.3716 21.6881
L95.2902 21.9506
L95.1931 22.2289
L95.012 22.41
L94.9306 22.6725
L94.9306 24.1163
L95.012 24.3945
L95.2902 24.4759
L95.5527 24.5756
L95.7339 24.7568
L96.0121 24.8381
L96.2746 24.7568
L96.4557 24.5756
L96.734 24.4759
L100.706 24.4759
L100.968 24.5756
L101.065 24.8381
L100.968 25.1164
L100.246 25.8383
L99.9837 25.9223
L98.54 25.9223
L98.2591 26.0194
L98.0806 26.2005
L97.8181 26.2819
L94.9306 26.2819
L94.6497 26.3816
L94.4712 26.5601
L94.2087 26.6441
L93.8465 26.6441
L93.5682 26.5601
L93.206 26.2005
L93.1246 25.9223
L93.1246 24.4759
L93.206 24.2134
L93.3871 24.0349
L93.4869 23.754
L93.4869 21.9506
L93.5682 21.6881
L93.7494 21.507
L93.8465 21.2288
L93.8465 18.7009
L93.7494 18.4384
L93.5682 18.2599
L93.4869 17.979
L93.4869 17.6194
L93.5682 17.3569
L94.2901 16.635
L94.5684 16.5353
L94.8309 16.4539
L95.012 16.2728
L95.2902 16.1756
L96.734 16.1756
L96.9965 16.0943
L97.1776 15.9131
L97.4559 15.8134
L101.787 15.8134
L102.05 15.9131
L102.412 16.2728
L102.412 16.4539
z

M109.696 20.8665
L109.696 20.5069
L109.596 20.2444
L109.056 19.7036
L108.974 19.4228
L108.974 19.0631
L108.875 18.8006
L108.693 18.6195
L108.612 18.3413
L108.515 18.0788
L107.793 17.3569
L107.531 17.2571
L107.25 17.3569
L107.071 17.538
L106.809 17.6194
L106.528 17.7165
L106.446 17.979
L106.446 18.3413
L106.349 18.6195
L106.168 18.8006
L106.087 19.0631
L106.087 20.1446
L105.987 20.4255
L105.806 20.604
L105.725 20.8665
L105.725 21.2288
L105.806 21.507
L106.168 21.8693
L106.446 21.9506
L107.168 21.9506
L107.431 21.8693
L107.612 21.6881
L107.89 21.5884
L108.153 21.507
L108.334 21.3259
L108.612 21.2288
L109.334 21.2288
L109.596 21.1474
z

M111.581 27.1035
L111.402 27.282
L111.221 27.282
L110.859 26.9224
L110.778 26.6441
L110.681 26.3816
L110.499 26.2005
L110.418 25.9223
L110.418 25.56
L110.318 25.2975
L110.137 25.1164
L110.056 24.8381
L110.056 24.1163
L109.959 23.8538
L109.778 23.6726
L109.696 23.3944
L109.596 23.1319
L109.334 23.0321
L108.612 23.0321
L108.334 23.1319
L108.153 23.313
L107.89 23.3944
L107.531 23.3944
L107.25 23.4915
L107.071 23.6726
L106.809 23.754
L106.087 23.754
L105.806 23.8538
L105.446 24.2134
L105.365 24.4759
L105.365 25.1978
L105.265 25.4786
L105.084 25.6598
L105.003 25.9223
L105.003 27.366
L104.906 27.6443
L104.643 27.7256
L104.281 27.7256
L104.003 27.6443
L103.64 27.282
L103.559 27.0038
L103.559 26.2819
L103.64 26.0194
L103.821 25.8383
L103.921 25.56
L103.921 21.2288
L104.003 20.9663
L104.184 20.7851
L104.281 20.5069
L104.281 19.785
L104.362 19.5225
L104.543 19.3414
L104.643 19.0631
L104.643 18.3413
L104.724 18.0788
L104.906 17.8976
L105.003 17.6194
L105.084 17.3569
L106.89 15.5509
L107.168 15.4538
L108.252 15.4538
L108.515 15.5509
L109.237 16.2728
L109.334 16.5353
L109.415 16.8161
L109.959 17.3569
L110.056 17.6194
L110.137 17.8976
L110.318 18.0788
L110.418 18.3413
L110.499 18.6195
L110.681 18.8006
L110.778 19.0631
L110.778 19.4228
L110.859 19.7036
L111.04 19.8821
L111.14 20.1446
L111.14 21.5884
L111.221 21.8693
L111.402 22.0478
L111.5 22.3103
L111.5 23.3944
L111.581 23.6726
L111.762 23.8538
L111.862 24.1163
L111.862 26.6441
L111.762 26.9224
z

M121.295 25.2975
L121.213 25.56
L121.114 25.8383
L120.392 26.5601
L120.129 26.6441
L119.851 26.7413
L119.67 26.9224
L119.407 27.0038
L116.882 27.0038
L116.601 26.9224
L116.423 26.7413
L116.16 26.6441
L115.879 26.5601
L115.701 26.3816
L115.438 26.2819
L115.158 26.2005
L113.714 24.7568
L113.632 24.4759
L113.535 24.2134
L113.354 24.0349
L113.273 23.754
L113.173 23.4915
L112.992 23.313
L112.911 23.0321
L112.911 20.8665
L112.992 20.604
L113.173 20.4255
L113.273 20.1446
L113.354 19.8821
L113.895 19.3414
L113.995 19.0631
L114.076 18.8006
L116.242 16.635
L116.52 16.5353
L116.782 16.4539
L116.964 16.2728
L117.242 16.1756
L117.604 16.1756
L117.867 16.0943
L118.045 15.9131
L118.326 15.8134
L118.686 15.8134
L118.948 15.9131
L119.129 16.0943
L119.407 16.1756
L119.67 16.2728
L120.392 16.9946
L120.492 17.2571
L120.492 17.6194
L120.392 17.8976
L120.032 18.2599
L119.851 18.2599
L119.31 17.7165
L119.048 17.6194
L118.326 17.6194
L118.045 17.7165
L117.867 17.8976
L117.604 17.979
L117.323 18.0788
L115.52 19.8821
L115.438 20.1446
L115.339 20.4255
L115.158 20.604
L115.076 20.8665
L114.979 21.1474
L114.798 21.3259
L114.717 21.5884
L114.617 21.8693
L114.436 22.0478
L114.436 22.2289
L114.617 22.41
L114.717 22.6725
L114.717 23.0321
L114.798 23.313
L115.339 23.8538
L115.438 24.1163
L115.52 24.3945
L116.242 25.1164
L116.52 25.1978
L116.782 25.2975
L116.964 25.4786
L117.242 25.56
L117.604 25.56
L117.867 25.6598
L118.045 25.8383
L118.326 25.9223
L118.588 25.8383
L118.767 25.6598
L119.048 25.56
L119.31 25.4786
L119.851 24.9353
L120.129 24.8381
L120.392 24.7568
L120.492 24.4759
L120.573 24.2134
L120.851 24.1163
L121.213 24.1163
L121.476 24.2134
L121.573 24.4759
L121.573 24.8381
L121.476 25.1164
z
" style="stroke:#ffffff;stroke-width:4;"/>
                 <path d="
M51.1417 25.2975
L51.0603 25.56
L50.9606 25.8383
L50.2387 26.5601
L49.9762 26.6441
L49.6979 26.7413
L49.5168 26.9224
L49.2543 27.0038
L46.7291 27.0038
L46.4482 26.9224
L46.2697 26.7413
L46.0072 26.6441
L45.7263 26.5601
L45.5478 26.3816
L45.2853 26.2819
L45.0044 26.2005
L43.5607 24.7568
L43.4793 24.4759
L43.3822 24.2134
L43.2011 24.0349
L43.1197 23.754
L43.0199 23.4915
L42.8388 23.313
L42.7574 23.0321
L42.7574 20.8665
L42.8388 20.604
L43.0199 20.4255
L43.1197 20.1446
L43.2011 19.8821
L43.7418 19.3414
L43.8416 19.0631
L43.9229 18.8006
L46.0886 16.635
L46.3668 16.5353
L46.6293 16.4539
L46.8104 16.2728
L47.0887 16.1756
L47.4509 16.1756
L47.7134 16.0943
L47.8919 15.9131
L48.1728 15.8134
L48.5324 15.8134
L48.7949 15.9131
L48.9761 16.0943
L49.2543 16.1756
L49.5168 16.2728
L50.2387 16.9946
L50.3384 17.2571
L50.3384 17.6194
L50.2387 17.8976
L49.8791 18.2599
L49.6979 18.2599
L49.1572 17.7165
L48.8947 17.6194
L48.1728 17.6194
L47.8919 17.7165
L47.7134 17.8976
L47.4509 17.979
L47.1701 18.0788
L45.3667 19.8821
L45.2853 20.1446
L45.1856 20.4255
L45.0044 20.604
L44.9231 20.8665
L44.8259 21.1474
L44.6448 21.3259
L44.5634 21.5884
L44.4637 21.8693
L44.2826 22.0478
L44.2826 22.2289
L44.4637 22.41
L44.5634 22.6725
L44.5634 23.0321
L44.6448 23.313
L45.1856 23.8538
L45.2853 24.1163
L45.3667 24.3945
L46.0886 25.1164
L46.3668 25.1978
L46.6293 25.2975
L46.8104 25.4786
L47.0887 25.56
L47.4509 25.56
L47.7134 25.6598
L47.8919 25.8383
L48.1728 25.9223
L48.4353 25.8383
L48.6138 25.6598
L48.8947 25.56
L49.1572 25.4786
L49.6979 24.9353
L49.9762 24.8381
L50.2387 24.7568
L50.3384 24.4759
L50.4198 24.2134
L50.6981 24.1163
L51.0603 24.1163
L51.3228 24.2134
L51.4199 24.4759
L51.4199 24.8381
L51.3228 25.1164
z

M61.2138 22.0478
L61.1324 22.3103
L61.1324 26.2819
L61.0353 26.5601
L60.7728 26.6441
L60.4919 26.7413
L60.3134 26.9224
L60.1323 26.9224
L60.0509 26.6441
L59.9512 26.3816
L59.7701 26.2005
L59.6887 25.9223
L59.6887 23.754
L59.5916 23.4915
L59.3291 23.3944
L57.8853 23.3944
L57.6044 23.4915
L57.4259 23.6726
L57.1634 23.754
L54.9978 23.754
L54.7169 23.8538
L54.5384 24.0349
L54.2759 24.1163
L53.9951 24.2134
L53.6354 24.5756
L53.5541 24.8381
L53.5541 27.366
L53.4543 27.6443
L53.1918 27.7256
L52.9136 27.8254
L52.7324 28.0039
L52.5513 28.0039
L52.4699 27.7256
L52.4699 20.1446
L52.5513 19.8821
L52.7324 19.7036
L52.8322 19.4228
L52.8322 17.2571
L52.9136 16.9946
L53.1918 16.8975
L53.5541 16.8975
L53.8166 16.9946
L53.9137 17.2571
L53.9137 20.1446
L53.8166 20.4255
L53.6354 20.604
L53.5541 20.8665
L53.5541 21.9506
L53.6354 22.2289
L53.9951 22.5911
L54.2759 22.6725
L55.7197 22.6725
L55.9822 22.5911
L56.1607 22.41
L56.4416 22.3103
L58.6072 22.3103
L58.8697 22.2289
L59.0482 22.0478
L59.3291 21.9506
L59.5916 21.8693
L59.9512 21.507
L60.0509 21.2288
L60.0509 17.979
L60.1323 17.7165
L60.4106 17.6194
L60.6731 17.7165
L61.0353 18.0788
L61.1324 18.3413
L61.1324 21.2288
L61.2138 21.507
L61.3949 21.6881
L61.3949 21.8693
z

M71.6495 16.635
L71.1087 17.1758
L70.8462 17.2571
L67.5965 17.2571
L67.3182 17.3569
L67.1371 17.538
L66.8746 17.6194
L65.7931 17.6194
L65.5122 17.7165
L64.7904 18.4384
L64.709 18.7009
L64.709 19.4228
L64.7904 19.7036
L65.1526 20.0633
L65.4309 20.1446
L69.0402 20.1446
L69.3027 20.2444
L69.665 20.604
L69.665 20.7851
L68.9431 21.507
L68.6806 21.5884
L68.3184 21.5884
L68.0401 21.6881
L67.859 21.8693
L67.5965 21.9506
L66.515 21.9506
L66.2341 21.8693
L66.0556 21.6881
L65.7931 21.5884
L65.0712 21.5884
L64.7904 21.6881
L64.709 21.9506
L64.6119 22.2289
L64.4307 22.41
L64.3494 22.6725
L64.3494 24.1163
L64.4307 24.3945
L64.709 24.4759
L64.9715 24.5756
L65.1526 24.7568
L65.4309 24.8381
L65.6934 24.7568
L65.8745 24.5756
L66.1527 24.4759
L70.1244 24.4759
L70.3869 24.5756
L70.484 24.8381
L70.3869 25.1164
L69.665 25.8383
L69.4025 25.9223
L67.9587 25.9223
L67.6779 26.0194
L67.4994 26.2005
L67.2369 26.2819
L64.3494 26.2819
L64.0685 26.3816
L63.89 26.5601
L63.6275 26.6441
L63.2652 26.6441
L62.987 26.5601
L62.6247 26.2005
L62.5434 25.9223
L62.5434 24.4759
L62.6247 24.2134
L62.8059 24.0349
L62.9056 23.754
L62.9056 21.9506
L62.987 21.6881
L63.1681 21.507
L63.2652 21.2288
L63.2652 18.7009
L63.1681 18.4384
L62.987 18.2599
L62.9056 17.979
L62.9056 17.6194
L62.987 17.3569
L63.7089 16.635
L63.9871 16.5353
L64.2496 16.4539
L64.4307 16.2728
L64.709 16.1756
L66.1527 16.1756
L66.4152 16.0943
L66.5964 15.9131
L66.8746 15.8134
L71.2059 15.8134
L71.4684 15.9131
L71.8306 16.2728
L71.8306 16.4539
z

M80.6401 26.0194
L80.459 26.2005
L80.1965 26.2819
L79.8369 26.2819
L79.556 26.2005
L79.4746 25.9223
L79.4746 22.6725
L79.556 22.41
L79.7371 22.2289
L79.8369 21.9506
L79.8369 21.2288
L79.7371 20.9663
L79.556 20.7851
L79.4746 20.5069
L79.4746 19.0631
L79.3775 18.8006
L79.0152 18.4384
L78.7527 18.3413
L78.4745 18.4384
L78.3931 18.7009
L78.2934 18.9818
L78.1122 19.1603
L78.0309 19.4228
L77.9337 19.7036
L77.3904 20.2444
L77.309 20.5069
L77.2119 20.7851
L76.6685 21.3259
L76.5871 21.5884
L76.49 21.8693
L76.2275 21.9506
L75.9466 21.8693
L75.587 21.507
L75.5056 21.2288
L75.4059 20.9663
L75.1434 20.8665
L74.8651 20.9663
L74.7837 21.2288
L74.7837 26.2819
L74.684 26.5601
L74.4215 26.6441
L74.0619 26.6441
L73.781 26.5601
L73.6996 26.2819
L73.6996 25.9223
L73.6025 25.6598
L73.4214 25.4786
L73.34 25.1978
L73.34 20.5069
L73.2402 20.2444
L73.0591 20.0633
L72.9777 19.785
L72.9777 17.2571
L73.0591 16.9946
L73.4214 16.635
L73.6996 16.5353
L73.9621 16.635
L75.4059 18.0788
L75.5056 18.3413
L75.5056 18.7009
L75.587 18.9818
L75.9466 19.3414
L76.2275 19.4228
L76.49 19.3414
L76.8496 18.9818
L76.9494 18.7009
L77.0307 18.4384
L77.2119 18.2599
L77.309 17.979
L77.3904 17.7165
L77.9337 17.1758
L78.0309 16.8975
L78.1122 16.635
L79.1964 15.5509
L79.4746 15.4538
L79.7371 15.5509
L80.0994 15.9131
L80.1965 16.1756
L80.1965 16.5353
L80.2779 16.8161
L80.459 16.9946
L80.5587 17.2571
L80.5587 17.6194
L80.6401 17.8976
L80.8212 18.0788
L80.9184 18.3413
L80.9184 25.56
L80.8212 25.8383
z

M89.909 20.1446
L89.909 19.4228
L89.8119 19.1603
L89.4496 18.8006
L89.1871 18.7009
L88.8275 18.7009
L88.5466 18.6195
L88.3681 18.4384
L88.1056 18.3413
L87.8247 18.2599
L87.6462 18.0788
L87.3837 17.979
L85.2181 17.979
L84.9372 18.0788
L84.7587 18.2599
L84.4962 18.3413
L84.2154 18.4384
L83.4935 19.1603
L83.4121 19.4228
L83.4935 19.7036
L83.6746 19.8821
L83.7744 20.1446
L83.8558 20.4255
L84.0369 20.604
L84.134 20.8665
L84.134 21.2288
L84.2154 21.507
L84.5776 21.8693
L84.7587 21.8693
L85.6591 20.9663
L85.94 20.8665
L86.6619 20.8665
L86.9244 20.7851
L87.1029 20.604
L87.3837 20.5069
L89.5494 20.5069
L89.8119 20.4255
z

M91.7964 20.604
L91.715 20.8665
L91.6152 21.1474
L91.3527 21.2288
L91.0745 21.3259
L90.8934 21.507
L90.6309 21.5884
L90.3526 21.6881
L90.1715 21.8693
L89.909 21.9506
L88.4652 21.9506
L88.187 22.0478
L87.8247 22.41
L87.7434 22.6725
L87.7434 23.3944
L87.8247 23.6726
L88.1056 23.754
L88.3681 23.8538
L90.8934 26.3816
L90.9931 26.6441
L91.0745 26.9224
L91.2556 27.1035
L91.3527 27.366
L91.2556 27.6443
L90.8934 28.0039
L90.6309 28.0879
L90.3526 28.0039
L89.8119 27.4631
L89.5494 27.366
L89.2685 27.282
L85.4806 23.4915
L85.2995 23.4915
L85.2181 23.754
L85.2181 25.56
L85.1184 25.8383
L84.9372 26.0194
L84.8559 26.2819
L84.7587 26.5601
L84.3965 26.9224
L84.134 27.0038
L83.7744 27.0038
L83.4935 26.9224
L83.4121 26.6441
L83.4121 26.2819
L83.4935 26.0194
L83.6746 25.8383
L83.7744 25.56
L83.7744 24.4759
L83.6746 24.2134
L83.4935 24.0349
L83.4121 23.754
L83.4121 23.3944
L83.315 23.1319
L83.1339 22.9508
L83.0525 22.6725
L83.0525 22.3103
L82.9527 22.0478
L82.7716 21.8693
L82.6902 21.5884
L82.6902 21.2288
L82.5931 20.9663
L82.412 20.7851
L82.3306 20.5069
L82.3306 20.1446
L82.2309 19.8821
L82.0497 19.7036
L81.9684 19.4228
L81.9684 18.3413
L82.0497 18.0788
L83.4935 16.635
L83.7744 16.5353
L84.134 16.5353
L84.3965 16.4539
L84.5776 16.2728
L84.8559 16.1756
L87.7434 16.1756
L88.0059 16.2728
L88.187 16.4539
L88.4652 16.5353
L88.7277 16.635
L88.9089 16.8161
L89.1871 16.8975
L89.4496 16.9946
L89.6307 17.1758
L89.909 17.2571
L90.1715 17.3569
L91.6152 18.8006
L91.715 19.0631
L91.7964 19.3414
L91.9775 19.5225
L92.0746 19.785
L92.0746 20.1446
L91.9775 20.4255
z

M102.231 16.635
L101.69 17.1758
L101.427 17.2571
L98.1777 17.2571
L97.8995 17.3569
L97.7184 17.538
L97.4559 17.6194
L96.3744 17.6194
L96.0935 17.7165
L95.3716 18.4384
L95.2902 18.7009
L95.2902 19.4228
L95.3716 19.7036
L95.7339 20.0633
L96.0121 20.1446
L99.6215 20.1446
L99.884 20.2444
L100.246 20.604
L100.246 20.7851
L99.5244 21.507
L99.2619 21.5884
L98.8996 21.5884
L98.6214 21.6881
L98.4402 21.8693
L98.1777 21.9506
L97.0962 21.9506
L96.8154 21.8693
L96.6369 21.6881
L96.3744 21.5884
L95.6525 21.5884
L95.3716 21.6881
L95.2902 21.9506
L95.1931 22.2289
L95.012 22.41
L94.9306 22.6725
L94.9306 24.1163
L95.012 24.3945
L95.2902 24.4759
L95.5527 24.5756
L95.7339 24.7568
L96.0121 24.8381
L96.2746 24.7568
L96.4557 24.5756
L96.734 24.4759
L100.706 24.4759
L100.968 24.5756
L101.065 24.8381
L100.968 25.1164
L100.246 25.8383
L99.9837 25.9223
L98.54 25.9223
L98.2591 26.0194
L98.0806 26.2005
L97.8181 26.2819
L94.9306 26.2819
L94.6497 26.3816
L94.4712 26.5601
L94.2087 26.6441
L93.8465 26.6441
L93.5682 26.5601
L93.206 26.2005
L93.1246 25.9223
L93.1246 24.4759
L93.206 24.2134
L93.3871 24.0349
L93.4869 23.754
L93.4869 21.9506
L93.5682 21.6881
L93.7494 21.507
L93.8465 21.2288
L93.8465 18.7009
L93.7494 18.4384
L93.5682 18.2599
L93.4869 17.979
L93.4869 17.6194
L93.5682 17.3569
L94.2901 16.635
L94.5684 16.5353
L94.8309 16.4539
L95.012 16.2728
L95.2902 16.1756
L96.734 16.1756
L96.9965 16.0943
L97.1776 15.9131
L97.4559 15.8134
L101.787 15.8134
L102.05 15.9131
L102.412 16.2728
L102.412 16.4539
z

M109.696 20.8665
L109.696 20.5069
L109.596 20.2444
L109.056 19.7036
L108.974 19.4228
L108.974 19.0631
L108.875 18.8006
L108.693 18.6195
L108.612 18.3413
L108.515 18.0788
L107.793 17.3569
L107.531 17.2571
L107.25 17.3569
L107.071 17.538
L106.809 17.6194
L106.528 17.7165
L106.446 17.979
L106.446 18.3413
L106.349 18.6195
L106.168 18.8006
L106.087 19.0631
L106.087 20.1446
L105.987 20.4255
L105.806 20.604
L105.725 20.8665
L105.725 21.2288
L105.806 21.507
L106.168 21.8693
L106.446 21.9506
L107.168 21.9506
L107.431 21.8693
L107.612 21.6881
L107.89 21.5884
L108.153 21.507
L108.334 21.3259
L108.612 21.2288
L109.334 21.2288
L109.596 21.1474
z

M111.581 27.1035
L111.402 27.282
L111.221 27.282
L110.859 26.9224
L110.778 26.6441
L110.681 26.3816
L110.499 26.2005
L110.418 25.9223
L110.418 25.56
L110.318 25.2975
L110.137 25.1164
L110.056 24.8381
L110.056 24.1163
L109.959 23.8538
L109.778 23.6726
L109.696 23.3944
L109.596 23.1319
L109.334 23.0321
L108.612 23.0321
L108.334 23.1319
L108.153 23.313
L107.89 23.3944
L107.531 23.3944
L107.25 23.4915
L107.071 23.6726
L106.809 23.754
L106.087 23.754
L105.806 23.8538
L105.446 24.2134
L105.365 24.4759
L105.365 25.1978
L105.265 25.4786
L105.084 25.6598
L105.003 25.9223
L105.003 27.366
L104.906 27.6443
L104.643 27.7256
L104.281 27.7256
L104.003 27.6443
L103.64 27.282
L103.559 27.0038
L103.559 26.2819
L103.64 26.0194
L103.821 25.8383
L103.921 25.56
L103.921 21.2288
L104.003 20.9663
L104.184 20.7851
L104.281 20.5069
L104.281 19.785
L104.362 19.5225
L104.543 19.3414
L104.643 19.0631
L104.643 18.3413
L104.724 18.0788
L104.906 17.8976
L105.003 17.6194
L105.084 17.3569
L106.89 15.5509
L107.168 15.4538
L108.252 15.4538
L108.515 15.5509
L109.237 16.2728
L109.334 16.5353
L109.415 16.8161
L109.959 17.3569
L110.056 17.6194
L110.137 17.8976
L110.318 18.0788
L110.418 18.3413
L110.499 18.6195
L110.681 18.8006
L110.778 19.0631
L110.778 19.4228
L110.859 19.7036
L111.04 19.8821
L111.14 20.1446
L111.14 21.5884
L111.221 21.8693
L111.402 22.0478
L111.5 22.3103
L111.5 23.3944
L111.581 23.6726
L111.762 23.8538
L111.862 24.1163
L111.862 26.6441
L111.762 26.9224
z

M121.295 25.2975
L121.213 25.56
L121.114 25.8383
L120.392 26.5601
L120.129 26.6441
L119.851 26.7413
L119.67 26.9224
L119.407 27.0038
L116.882 27.0038
L116.601 26.9224
L116.423 26.7413
L116.16 26.6441
L115.879 26.5601
L115.701 26.3816
L115.438 26.2819
L115.158 26.2005
L113.714 24.7568
L113.632 24.4759
L113.535 24.2134
L113.354 24.0349
L113.273 23.754
L113.173 23.4915
L112.992 23.313
L112.911 23.0321
L112.911 20.8665
L112.992 20.604
L113.173 20.4255
L113.273 20.1446
L113.354 19.8821
L113.895 19.3414
L113.995 19.0631
L114.076 18.8006
L116.242 16.635
L116.52 16.5353
L116.782 16.4539
L116.964 16.2728
L117.242 16.1756
L117.604 16.1756
L117.867 16.0943
L118.045 15.9131
L118.326 15.8134
L118.686 15.8134
L118.948 15.9131
L119.129 16.0943
L119.407 16.1756
L119.67 16.2728
L120.392 16.9946
L120.492 17.2571
L120.492 17.6194
L120.392 17.8976
L120.032 18.2599
L119.851 18.2599
L119.31 17.7165
L119.048 17.6194
L118.326 17.6194
L118.045 17.7165
L117.867 17.8976
L117.604 17.979
L117.323 18.0788
L115.52 19.8821
L115.438 20.1446
L115.339 20.4255
L115.158 20.604
L115.076 20.8665
L114.979 21.1474
L114.798 21.3259
L114.717 21.5884
L114.617 21.8693
L114.436 22.0478
L114.436 22.2289
L114.617 22.41
L114.717 22.6725
L114.717 23.0321
L114.798 23.313
L115.339 23.8538
L115.438 24.1163
L115.52 24.3945
L116.242 25.1164
L116.52 25.1978
L116.782 25.2975
L116.964 25.4786
L117.242 25.56
L117.604 25.56
L117.867 25.6598
L118.045 25.8383
L118.326 25.9223
L118.588 25.8383
L118.767 25.6598
L119.048 25.56
L119.31 25.4786
L119.851 24.9353
L120.129 24.8381
L120.392 24.7568
L120.492 24.4759
L120.573 24.2134
L120.851 24.1163
L121.213 24.1163
L121.476 24.2134
L121.573 24.4759
L121.573 24.8381
L121.476 25.1164
z
"/>
                 <g id="legend_1">
                  <g id="patch_7">
                   <path d="
M97.9884 111.969
L123.163 111.969
L123.163 85.3456
L97.9884 85.3456
z
" style="fill:#ffffff;stroke:#ffffff;stroke-linejoin:miter;stroke-width:4;"/>
                   <path d="
M97.9884 111.969
L123.163 111.969
L123.163 85.3456
L97.9884 85.3456
z
" style="fill:#ffffff;stroke:#000000;stroke-linejoin:miter;"/>
                   <path d="
M102.188 89.8456
L110.588 89.8456" style="fill:none;stroke:#ffffff;stroke-linecap:square;stroke-width:4;"/>
                   <path d="
M102.188 89.8456
L110.588 89.8456" style="fill:none;stroke:#ff0000;stroke-linecap:square;stroke-width:2.0;"/>
                   <g id="text_9">
                    <path d="
M119.696 91.0428
L119.696 90.3988
L119.662 90.305
L119.597 90.2403
L119.568 90.1409
L119.532 90.0472
L119.468 89.9825
L119.438 89.8831
L119.404 89.7894
L119.146 89.5316
L119.081 89.5316
L118.952 89.66
L118.923 89.7538
L118.888 89.8541
L118.694 90.0472
L118.665 90.1409
L118.665 90.2694
L118.63 90.3697
L118.566 90.4334
L118.537 90.5272
L118.501 90.6275
L118.436 90.6913
L118.407 90.785
L118.407 91.1722
L118.436 91.2716
L118.537 91.3006
L119.438 91.3006
L119.532 91.2716
L119.662 91.1431
z

M120.241 92.4969
L120.177 92.5606
L120.083 92.5906
L119.954 92.5906
L119.855 92.5606
L119.826 92.4613
L119.826 91.9456
L119.79 91.8519
L119.662 91.7225
L119.568 91.6878
L119.31 91.6878
L119.21 91.7225
L119.146 91.7872
L119.052 91.8163
L118.952 91.7872
L118.888 91.7225
L118.794 91.6878
L118.407 91.6878
L118.308 91.7225
L118.05 91.9813
L118.021 92.075
L118.021 92.5906
L117.985 92.69
L117.921 92.7547
L117.892 92.8484
L117.857 92.9478
L117.763 92.9769
L117.634 92.9769
L117.534 92.9478
L117.405 92.8184
L117.376 92.7191
L117.405 92.6253
L117.47 92.5606
L117.505 92.4613
L117.505 92.2034
L117.534 92.1097
L117.599 92.045
L117.634 91.9456
L117.634 91.6878
L117.663 91.5941
L117.728 91.5294
L117.763 91.43
L117.763 91.3006
L117.792 91.2069
L117.857 91.1431
L117.892 91.0428
L117.892 90.785
L117.921 90.6913
L117.985 90.6275
L118.021 90.5272
L118.05 90.4334
L118.115 90.3697
L118.149 90.2694
L118.149 90.1409
L118.178 90.0472
L118.243 89.9825
L118.279 89.8831
L118.279 89.7538
L118.308 89.66
L118.501 89.4669
L118.537 89.3675
L118.566 89.2738
L118.823 89.0159
L118.923 88.9803
L119.017 88.9513
L119.081 88.8866
L119.146 88.8866
L119.21 88.9513
L119.31 88.9803
L119.404 89.0159
L119.919 89.5316
L119.954 89.6253
L119.954 89.7538
L119.983 89.8541
L120.048 89.9178
L120.083 90.0116
L120.113 90.1119
L120.177 90.1756
L120.212 90.2694
L120.212 91.43
L120.241 91.5294
L120.306 91.5941
L120.341 91.6878
L120.341 92.3328
L120.306 92.4322
z
" style="stroke:#ffffff;stroke-width:4;"/>
                    <path d="
M119.696 91.0428
L119.696 90.3988
L119.662 90.305
L119.597 90.2403
L119.568 90.1409
L119.532 90.0472
L119.468 89.9825
L119.438 89.8831
L119.404 89.7894
L119.146 89.5316
L119.081 89.5316
L118.952 89.66
L118.923 89.7538
L118.888 89.8541
L118.694 90.0472
L118.665 90.1409
L118.665 90.2694
L118.63 90.3697
L118.566 90.4334
L118.537 90.5272
L118.501 90.6275
L118.436 90.6913
L118.407 90.785
L118.407 91.1722
L118.436 91.2716
L118.537 91.3006
L119.438 91.3006
L119.532 91.2716
L119.662 91.1431
z

M120.241 92.4969
L120.177 92.5606
L120.083 92.5906
L119.954 92.5906
L119.855 92.5606
L119.826 92.4613
L119.826 91.9456
L119.79 91.8519
L119.662 91.7225
L119.568 91.6878
L119.31 91.6878
L119.21 91.7225
L119.146 91.7872
L119.052 91.8163
L118.952 91.7872
L118.888 91.7225
L118.794 91.6878
L118.407 91.6878
L118.308 91.7225
L118.05 91.9813
L118.021 92.075
L118.021 92.5906
L117.985 92.69
L117.921 92.7547
L117.892 92.8484
L117.857 92.9478
L117.763 92.9769
L117.634 92.9769
L117.534 92.9478
L117.405 92.8184
L117.376 92.7191
L117.405 92.6253
L117.47 92.5606
L117.505 92.4613
L117.505 92.2034
L117.534 92.1097
L117.599 92.045
L117.634 91.9456
L117.634 91.6878
L117.663 91.5941
L117.728 91.5294
L117.763 91.43
L117.763 91.3006
L117.792 91.2069
L117.857 91.1431
L117.892 91.0428
L117.892 90.785
L117.921 90.6913
L117.985 90.6275
L118.021 90.5272
L118.05 90.4334
L118.115 90.3697
L118.149 90.2694
L118.149 90.1409
L118.178 90.0472
L118.243 89.9825
L118.279 89.8831
L118.279 89.7538
L118.308 89.66
L118.501 89.4669
L118.537 89.3675
L118.566 89.2738
L118.823 89.0159
L118.923 88.9803
L119.017 88.9513
L119.081 88.8866
L119.146 88.8866
L119.21 88.9513
L119.31 88.9803
L119.404 89.0159
L119.919 89.5316
L119.954 89.6253
L119.954 89.7538
L119.983 89.8541
L120.048 89.9178
L120.083 90.0116
L120.113 90.1119
L120.177 90.1756
L120.212 90.2694
L120.212 91.43
L120.241 91.5294
L120.306 91.5941
L120.341 91.6878
L120.341 92.3328
L120.306 92.4322
z
"/>
                    <path d="
M102.188 98.0769
L110.588 98.0769" style="fill:none;stroke:#ffffff;stroke-linecap:square;stroke-width:4;"/>
                    <path d="
M102.188 98.0769
L110.588 98.0769" style="fill:none;stroke:#0000ff;stroke-linecap:square;stroke-width:2.0;"/>
                    <g id="text_10">
                     <path d="
M119.826 98.2428
L119.826 97.7272
L119.79 97.6334
L119.696 97.5987
L118.407 97.5987
L118.308 97.6334
L118.05 97.8912
L118.021 97.985
L118.05 98.0853
L118.115 98.1491
L118.149 98.2428
L118.149 98.63
L118.178 98.7294
L118.279 98.7584
L118.373 98.7294
L118.436 98.6647
L118.537 98.63
L119.31 98.63
L119.404 98.6009
L119.597 98.4069
L119.696 98.3722
L119.79 98.3431
z

M119.919 100.083
L119.855 100.018
L119.826 99.9191
L119.79 99.8253
L119.404 99.4381
L119.31 99.4034
L119.21 99.3744
L119.146 99.3097
L119.052 99.2741
L118.923 99.2741
L118.823 99.245
L118.759 99.1803
L118.665 99.1456
L118.407 99.1456
L118.308 99.1803
L118.279 99.2741
L118.279 100.435
L118.308 100.534
L118.436 100.663
L118.537 100.692
L118.794 100.692
L118.888 100.663
L118.952 100.599
L119.052 100.564
L119.438 100.564
L119.532 100.534
L119.597 100.47
L119.696 100.435
L119.79 100.406
L119.826 100.306
L119.855 100.212
L119.919 100.148
z

M120.37 100.341
L120.341 100.435
L120.306 100.534
L120.212 100.564
L120.113 100.599
L119.919 100.792
L119.826 100.822
L119.725 100.857
L119.662 100.921
L119.568 100.95
L119.438 100.95
L119.339 100.986
L119.274 101.05
L119.181 101.08
L118.279 101.08
L118.178 101.05
L118.115 100.986
L118.021 100.95
L117.921 100.921
L117.792 100.792
L117.763 100.692
L117.763 98.8878
L117.728 98.7941
L117.663 98.7294
L117.634 98.63
L117.634 98.3722
L117.599 98.2784
L117.534 98.2137
L117.505 98.1144
L117.505 97.985
L117.47 97.8912
L117.405 97.8275
L117.376 97.7272
L117.405 97.6334
L117.505 97.5987
L117.599 97.5697
L117.921 97.2472
L118.021 97.2116
L118.407 97.2116
L118.501 97.1825
L118.566 97.1178
L118.665 97.0831
L119.568 97.0831
L119.662 97.1178
L119.725 97.1825
L119.826 97.2116
L119.954 97.2116
L120.048 97.2472
L120.306 97.505
L120.341 97.5987
L120.37 97.6981
L120.435 97.7628
L120.47 97.8566
L120.435 97.9559
L120.37 98.0206
L120.341 98.1144
L120.306 98.2137
L120.241 98.2784
L120.212 98.3722
L120.177 98.4716
L119.919 98.7294
L119.826 98.7584
L119.725 98.7941
L119.696 98.8878
L119.696 99.0162
L119.725 99.1166
L119.855 99.245
L119.954 99.2741
L120.048 99.3097
L120.177 99.4381
L120.212 99.5319
L120.241 99.6322
L120.306 99.6959
L120.341 99.7897
L120.37 99.89
L120.435 99.9537
L120.47 100.047
L120.47 100.177
L120.435 100.276
z
" style="stroke:#ffffff;stroke-width:4;"/>
                     <path d="
M119.826 98.2428
L119.826 97.7272
L119.79 97.6334
L119.696 97.5987
L118.407 97.5987
L118.308 97.6334
L118.05 97.8912
L118.021 97.985
L118.05 98.0853
L118.115 98.1491
L118.149 98.2428
L118.149 98.63
L118.178 98.7294
L118.279 98.7584
L118.373 98.7294
L118.436 98.6647
L118.537 98.63
L119.31 98.63
L119.404 98.6009
L119.597 98.4069
L119.696 98.3722
L119.79 98.3431
z

M119.919 100.083
L119.855 100.018
L119.826 99.9191
L119.79 99.8253
L119.404 99.4381
L119.31 99.4034
L119.21 99.3744
L119.146 99.3097
L119.052 99.2741
L118.923 99.2741
L118.823 99.245
L118.759 99.1803
L118.665 99.1456
L118.407 99.1456
L118.308 99.1803
L118.279 99.2741
L118.279 100.435
L118.308 100.534
L118.436 100.663
L118.537 100.692
L118.794 100.692
L118.888 100.663
L118.952 100.599
L119.052 100.564
L119.438 100.564
L119.532 100.534
L119.597 100.47
L119.696 100.435
L119.79 100.406
L119.826 100.306
L119.855 100.212
L119.919 100.148
z

M120.37 100.341
L120.341 100.435
L120.306 100.534
L120.212 100.564
L120.113 100.599
L119.919 100.792
L119.826 100.822
L119.725 100.857
L119.662 100.921
L119.568 100.95
L119.438 100.95
L119.339 100.986
L119.274 101.05
L119.181 101.08
L118.279 101.08
L118.178 101.05
L118.115 100.986
L118.021 100.95
L117.921 100.921
L117.792 100.792
L117.763 100.692
L117.763 98.8878
L117.728 98.7941
L117.663 98.7294
L117.634 98.63
L117.634 98.3722
L117.599 98.2784
L117.534 98.2137
L117.505 98.1144
L117.505 97.985
L117.47 97.8912
L117.405 97.8275
L117.376 97.7272
L117.405 97.6334
L117.505 97.5987
L117.599 97.5697
L117.921 97.2472
L118.021 97.2116
L118.407 97.2116
L118.501 97.1825
L118.566 97.1178
L118.665 97.0831
L119.568 97.0831
L119.662 97.1178
L119.725 97.1825
L119.826 97.2116
L119.954 97.2116
L120.048 97.2472
L120.306 97.505
L120.341 97.5987
L120.37 97.6981
L120.435 97.7628
L120.47 97.8566
L120.435 97.9559
L120.37 98.0206
L120.341 98.1144
L120.306 98.2137
L120.241 98.2784
L120.212 98.3722
L120.177 98.4716
L119.919 98.7294
L119.826 98.7584
L119.725 98.7941
L119.696 98.8878
L119.696 99.0162
L119.725 99.1166
L119.855 99.245
L119.954 99.2741
L120.048 99.3097
L120.177 99.4381
L120.212 99.5319
L120.241 99.6322
L120.306 99.6959
L120.341 99.7897
L120.37 99.89
L120.435 99.9537
L120.47 100.047
L120.47 100.177
L120.435 100.276
z
"/>
                     <path d="
M102.188 106.308
L110.588 106.308" style="fill:none;stroke:#ffffff;stroke-linecap:square;stroke-width:4;"/>
                     <path d="
M102.188 106.308
L110.588 106.308" style="fill:none;stroke:#008000;stroke-linecap:square;stroke-width:2.0;"/>
                     <g id="text_11">
                      <path d="
M120.886 108.702
L120.821 108.765
L120.728 108.795
L120.628 108.83
L120.37 109.088
L120.341 109.182
L120.306 109.281
L120.212 109.311
L120.113 109.346
L119.919 109.539
L119.826 109.569
L118.665 109.569
L118.566 109.539
L118.501 109.475
L118.407 109.439
L118.308 109.41
L118.243 109.346
L118.149 109.311
L118.05 109.281
L117.792 109.023
L117.763 108.924
L117.728 108.83
L117.663 108.765
L117.634 108.666
L117.599 108.572
L117.534 108.507
L117.505 108.408
L117.505 108.279
L117.47 108.185
L117.405 108.121
L117.376 108.021
L117.376 107.377
L117.405 107.283
L117.47 107.218
L117.505 107.119
L117.505 106.732
L117.534 106.638
L117.599 106.574
L117.634 106.474
L117.663 106.38
L117.728 106.317
L117.763 106.216
L117.792 106.123
L117.985 105.929
L118.021 105.83
L118.05 105.736
L118.436 105.349
L118.537 105.314
L118.63 105.285
L118.694 105.221
L118.794 105.185
L118.888 105.156
L118.952 105.091
L119.052 105.057
L119.696 105.057
L119.79 105.091
L119.855 105.156
L119.954 105.185
L120.048 105.221
L120.083 105.314
L120.113 105.414
L120.177 105.478
L120.212 105.572
L120.212 105.701
L120.177 105.801
L120.048 105.929
L119.954 105.958
L119.855 105.929
L119.532 105.607
L119.438 105.572
L119.339 105.607
L119.274 105.672
L119.181 105.701
L119.081 105.736
L118.436 106.38
L118.407 106.474
L118.373 106.574
L118.178 106.767
L118.149 106.861
L118.149 106.99
L118.115 107.09
L117.921 107.283
L117.892 107.377
L117.892 107.763
L117.921 107.863
L117.985 107.927
L118.021 108.021
L118.021 108.15
L118.05 108.25
L118.243 108.444
L118.279 108.537
L118.308 108.637
L118.436 108.765
L118.537 108.795
L118.63 108.83
L118.823 109.023
L118.923 109.053
L119.052 109.053
L119.146 109.088
L119.21 109.153
L119.31 109.182
L119.438 109.182
L119.532 109.153
L119.855 108.83
L119.954 108.795
L120.048 108.765
L120.083 108.666
L120.113 108.572
L120.37 108.314
L120.47 108.279
L120.599 108.279
L120.693 108.314
L120.951 108.572
L120.951 108.637
z
" style="stroke:#ffffff;stroke-width:4;"/>
                      <path d="
M120.886 108.702
L120.821 108.765
L120.728 108.795
L120.628 108.83
L120.37 109.088
L120.341 109.182
L120.306 109.281
L120.212 109.311
L120.113 109.346
L119.919 109.539
L119.826 109.569
L118.665 109.569
L118.566 109.539
L118.501 109.475
L118.407 109.439
L118.308 109.41
L118.243 109.346
L118.149 109.311
L118.05 109.281
L117.792 109.023
L117.763 108.924
L117.728 108.83
L117.663 108.765
L117.634 108.666
L117.599 108.572
L117.534 108.507
L117.505 108.408
L117.505 108.279
L117.47 108.185
L117.405 108.121
L117.376 108.021
L117.376 107.377
L117.405 107.283
L117.47 107.218
L117.505 107.119
L117.505 106.732
L117.534 106.638
L117.599 106.574
L117.634 106.474
L117.663 106.38
L117.728 106.317
L117.763 106.216
L117.792 106.123
L117.985 105.929
L118.021 105.83
L118.05 105.736
L118.436 105.349
L118.537 105.314
L118.63 105.285
L118.694 105.221
L118.794 105.185
L118.888 105.156
L118.952 105.091
L119.052 105.057
L119.696 105.057
L119.79 105.091
L119.855 105.156
L119.954 105.185
L120.048 105.221
L120.083 105.314
L120.113 105.414
L120.177 105.478
L120.212 105.572
L120.212 105.701
L120.177 105.801
L120.048 105.929
L119.954 105.958
L119.855 105.929
L119.532 105.607
L119.438 105.572
L119.339 105.607
L119.274 105.672
L119.181 105.701
L119.081 105.736
L118.436 106.38
L118.407 106.474
L118.373 106.574
L118.178 106.767
L118.149 106.861
L118.149 106.99
L118.115 107.09
L117.921 107.283
L117.892 107.377
L117.892 107.763
L117.921 107.863
L117.985 107.927
L118.021 108.021
L118.021 108.15
L118.05 108.25
L118.243 108.444
L118.279 108.537
L118.308 108.637
L118.436 108.765
L118.537 108.795
L118.63 108.83
L118.823 109.023
L118.923 109.053
L119.052 109.053
L119.146 109.088
L119.21 109.153
L119.31 109.182
L119.438 109.182
L119.532 109.153
L119.855 108.83
L119.954 108.795
L120.048 108.765
L120.083 108.666
L120.113 108.572
L120.37 108.314
L120.47 108.279
L120.599 108.279
L120.693 108.314
L120.951 108.572
L120.951 108.637
z
"/>
                     </g>
                    </g>
                   </g>
                   <defs>
                    <clipPath id="p4e8784dd9a">
                     <rect height="84.40875" width="89.043125" x="37.12" y="30.56"/>
                    </clipPath>
                   </defs>
                  </g>
                 </g>
                </g>
               </g>
              </g>
             </g>
            </g>
           </g>
          </g>
         </g>
        </g>
       </g>
      </g>
     </g>
    </g>
   </g>
  </g>
 </g>
</svg>
